G04 DipTrace 3.3.0.0*
G04 BoardOutline.gbr*
%MOIN*%
G04 #@! TF.FileFunction,Profile*
G04 #@! TF.Part,Single*
%ADD11C,0.005512*%
%FSLAX26Y26*%
G04*
G70*
G90*
G75*
G01*
G04 BoardOutline*
%LPD*%
X4803465Y394016D2*
D11*
X512126D1*
G02X394016Y512126I-2J118108D01*
G01*
Y4409764D1*
G02X512126Y4527874I118108J2D01*
G01*
X4803465D1*
G02X5972743Y4165341I-16J-2066957D01*
G01*
G03X6230866Y4159383I133627J194795D01*
G01*
G02X6501903Y3888346I103730J-167307D01*
G01*
G03X6507861Y3630223I200753J-124497D01*
G01*
G02X6507861Y1291667I-1704372J-1169278D01*
G01*
G03X6501903Y1033543I194795J-133627D01*
G01*
G02X6230866Y762507I-167307J-103730D01*
G01*
G03X5972743Y756549I-124497J-200753D01*
G01*
G02X4803465Y394016I-1169294J1704424D01*
G01*
D3*
X2830682Y799160D2*
X2967060Y877900D1*
X3006806Y903711D1*
X3043635Y933535D1*
X3077146Y967046D1*
X3106970Y1003875D1*
X3132781Y1043621D1*
X3154297Y1085845D1*
X3171280Y1130089D1*
X3183546Y1175865D1*
X3190959Y1222672D1*
X3193440Y1269999D1*
X3190959Y1317324D1*
X3183546Y1364131D1*
X3171281Y1409908D1*
X3154298Y1454151D1*
X3132782Y1496377D1*
X3106972Y1536122D1*
X3077148Y1572953D1*
X3043638Y1606463D1*
X3006808Y1636287D1*
X2967063Y1662098D1*
X2924837Y1683613D1*
X2880593Y1700596D1*
X2834818Y1712862D1*
X2788010Y1720276D1*
X2740684Y1722756D1*
X2693358Y1720276D1*
X2646551Y1712862D1*
X2600774Y1700597D1*
X2556531Y1683613D1*
X2514306Y1662098D1*
X2377927Y1583360D1*
X2338181Y1557549D1*
X2301352Y1527724D1*
X2267841Y1494214D1*
X2238017Y1457385D1*
X2212206Y1417639D1*
X2190690Y1375413D1*
X2173707Y1331169D1*
X2161441Y1285394D1*
X2154028Y1238585D1*
X2151547Y1191260D1*
X2154028Y1143934D1*
X2161441Y1097126D1*
X2173707Y1051350D1*
X2190690Y1007106D1*
X2212205Y964881D1*
X2238016Y925135D1*
X2267840Y888306D1*
X2301350Y854795D1*
X2338181Y824971D1*
X2377927Y799160D1*
X2420151Y777644D1*
X2464395Y760661D1*
X2510171Y748395D1*
X2556979Y740982D1*
X2604304Y738501D1*
X2651631Y740982D1*
X2698438Y748395D1*
X2744215Y760660D1*
X2788458Y777644D1*
X2830684Y799159D1*
M02*
