G04 DipTrace 3.3.0.0*
G04 Bottom.gbr*
%MOIN*%
G04 #@! TF.FileFunction,Copper,L2,Bot*
G04 #@! TF.Part,Single*
%AMOUTLINE0*
4,1,16,
0.112483,-0.037345,
0.141382,-0.01053,
0.155785,0.026168,
0.152839,0.06548,
0.133127,0.099622,
0.100554,0.121829,
0.061571,0.127705,
0.0239,0.116085,
-0.112483,0.037345,
-0.141382,0.01053,
-0.155785,-0.026168,
-0.152839,-0.06548,
-0.133127,-0.099622,
-0.100554,-0.121829,
-0.061571,-0.127705,
-0.0239,-0.116085,
0.112483,-0.037345,
0*%
G04 #@! TA.AperFunction,Conductor*
%ADD13C,0.012*%
%ADD14C,0.019685*%
%ADD15C,0.029528*%
G04 #@! TA.AperFunction,CopperBalancing*
%ADD16C,0.025*%
G04 #@! TA.AperFunction,ComponentPad*
%ADD24R,0.059055X0.059055*%
%ADD25C,0.059055*%
%ADD26R,0.066929X0.066929*%
%ADD27C,0.066929*%
%ADD28O,0.07874X0.11811*%
%ADD29O,0.11811X0.07874*%
%ADD34C,0.2*%
%ADD35C,0.275591*%
%ADD36R,0.070866X0.070866*%
%ADD37C,0.070866*%
%ADD39C,0.06*%
%ADD40R,0.059X0.059*%
%ADD41C,0.059*%
G04 #@! TA.AperFunction,ViaPad*
%ADD42C,0.04*%
G04 #@! TA.AperFunction,ComponentPad*
%ADD107OUTLINE0*%
%FSLAX26Y26*%
G04*
G70*
G90*
G75*
G01*
G04 Bottom*
%LPD*%
X1169016Y2294016D2*
D13*
X769016D1*
X1744016Y2569016D2*
X1894016D1*
X1919016Y2544016D1*
X2044016D1*
X6334606Y3992087D2*
Y3984606D1*
X6194016Y3844016D1*
X6334606Y929803D2*
X6333228D1*
X6206516Y1056516D1*
X1569016Y2244016D2*
X2044016D1*
Y2144016D2*
X1344016D1*
X1269016Y2069016D1*
X944016D1*
X519016Y2519016D2*
D15*
X556516D1*
X619016Y2581516D1*
Y2919016D1*
X506516Y3031516D1*
Y3606516D1*
X681516Y3781516D1*
X2056516D1*
X2519016Y4244016D1*
Y4369016D1*
X519016Y2519016D2*
D14*
Y2431516D1*
X681516Y2269016D1*
Y569016D1*
X769016Y481516D1*
Y494016D1*
X894016Y1994016D2*
D13*
X1319016D1*
X1207402Y2157402D2*
X1244016Y2194016D1*
X1669016D1*
X1250709Y1350709D2*
X1294016Y1394016D1*
X1669016D1*
X1019016Y1594016D2*
X1669016D1*
X2744016Y4244016D2*
X2944016D1*
X1120787Y1442244D2*
X1172559Y1494016D1*
X1669016D1*
X1244016Y3169016D2*
Y3244016D1*
X1294016Y3294016D1*
X1794016D1*
X1856516Y3231516D1*
Y2919016D1*
X1931516Y2844016D1*
X2044016D1*
X1063307Y1299528D2*
X1663504D1*
X1669016Y1294016D1*
D42*
X1169016Y2294016D3*
X1569016Y2244016D3*
X944016Y2069016D3*
X894016Y1994016D3*
X1319016D3*
X1207402Y2157402D3*
X1250709Y1350709D3*
X1019016Y1594016D3*
X2744016Y4244016D3*
X2944016D3*
X1120787Y1442244D3*
X1063307Y1299528D3*
X1081516Y906516D3*
X906516Y881516D3*
Y669016D3*
X1481516D3*
Y894016D3*
X2356516Y2544016D3*
Y2594016D3*
Y2494016D3*
X1556516Y2819016D3*
Y2869016D3*
Y2769016D3*
X469016Y2231516D3*
Y1656516D3*
X481516Y1094016D3*
X1056516Y2194016D3*
X6194016Y3844016D3*
X6206516Y1056516D3*
X631516Y1419016D3*
X644016Y881516D3*
X631516Y1981516D3*
X507613Y4451135D2*
D16*
X5049031D1*
X476537Y4426266D2*
X2498706D1*
X2539339D2*
X2556552D1*
X2681477D2*
X5229206D1*
X448404Y4401398D2*
X2010502D1*
X2127533D2*
X2466052D1*
X2681477D2*
X5316225D1*
X448404Y4376529D2*
X2010502D1*
X2127533D2*
X2457045D1*
X2681477D2*
X5403280D1*
X448404Y4351660D2*
X2010502D1*
X2127533D2*
X2459126D1*
X2681477D2*
X5481615D1*
X448404Y4326791D2*
X2010502D1*
X2127533D2*
X2473946D1*
X2681477D2*
X5537595D1*
X448404Y4301923D2*
X2475274D1*
X2562772D2*
X5593538D1*
X448404Y4277054D2*
X2475274D1*
X2562772D2*
X2708808D1*
X2779225D2*
X2908791D1*
X2979244D2*
X5649482D1*
X448404Y4252185D2*
X2466339D1*
X2562772D2*
X2695746D1*
X2992270D2*
X5705461D1*
X448404Y4227316D2*
X2441471D1*
X2559255D2*
X2698115D1*
X2989901D2*
X5761404D1*
X448404Y4202448D2*
X2416603D1*
X2538299D2*
X2720686D1*
X2767348D2*
X2920704D1*
X2967330D2*
X5817348D1*
X448404Y4177579D2*
X861060D1*
X931800D2*
X2391736D1*
X2513431D2*
X5852550D1*
X448404Y4152710D2*
X813047D1*
X979777D2*
X2366868D1*
X2488563D2*
X5887358D1*
X448404Y4127841D2*
X790189D1*
X1002635D2*
X2342000D1*
X2463696D2*
X2615761D1*
X2739178D2*
X5922165D1*
X448404Y4102972D2*
X776696D1*
X1016127D2*
X2317132D1*
X2438828D2*
X2583070D1*
X2771905D2*
X5957009D1*
X448404Y4078104D2*
X769483D1*
X1023376D2*
X2292265D1*
X2413960D2*
X2564733D1*
X2790206D2*
X5991817D1*
X448404Y4053235D2*
X767438D1*
X1025386D2*
X2267397D1*
X2389092D2*
X2554076D1*
X2800899D2*
X6026624D1*
X448404Y4028366D2*
X770345D1*
X1022479D2*
X2242529D1*
X2364225D2*
X2549088D1*
X2805887D2*
X6061432D1*
X448404Y4003497D2*
X778562D1*
X1014262D2*
X2217661D1*
X2339357D2*
X2549124D1*
X2805851D2*
X6095055D1*
X448404Y3978629D2*
X793418D1*
X999405D2*
X2192794D1*
X2314489D2*
X2554147D1*
X2800792D2*
X6119923D1*
X448404Y3953760D2*
X818681D1*
X974179D2*
X2167926D1*
X2289621D2*
X2564913D1*
X2790062D2*
X6144791D1*
X448404Y3928891D2*
X2143058D1*
X2264754D2*
X2583321D1*
X2771654D2*
X6169659D1*
X448404Y3904022D2*
X2118191D1*
X2239850D2*
X2616263D1*
X2738676D2*
X6194526D1*
X448404Y3879154D2*
X2093323D1*
X2214982D2*
X6219394D1*
X448404Y3854285D2*
X2068455D1*
X2190115D2*
X6244262D1*
X448404Y3829416D2*
X2043587D1*
X2165247D2*
X6269130D1*
X448404Y3804547D2*
X643709D1*
X2140379D2*
X6293997D1*
X448404Y3779678D2*
X618842D1*
X2115511D2*
X6318901D1*
X448404Y3754810D2*
X593974D1*
X2090644D2*
X6338422D1*
X448404Y3729941D2*
X569106D1*
X690801D2*
X6355539D1*
X448404Y3705072D2*
X544238D1*
X665934D2*
X6372620D1*
X448404Y3680203D2*
X519371D1*
X641066D2*
X6389736D1*
X448404Y3655335D2*
X494503D1*
X616162D2*
X6406817D1*
X448404Y3630466D2*
X470425D1*
X591295D2*
X6423934D1*
X448404Y3605597D2*
X462745D1*
X566427D2*
X6441015D1*
X448404Y3580728D2*
X462745D1*
X550279D2*
X6458132D1*
X448404Y3555860D2*
X462745D1*
X550279D2*
X6475213D1*
X448404Y3530991D2*
X462745D1*
X550279D2*
X6492329D1*
X448404Y3506122D2*
X462745D1*
X550279D2*
X6509410D1*
X448404Y3481253D2*
X462745D1*
X550279D2*
X6526491D1*
X448404Y3456385D2*
X462745D1*
X550279D2*
X6543213D1*
X448404Y3431516D2*
X462745D1*
X550279D2*
X6555629D1*
X448404Y3406647D2*
X462745D1*
X550279D2*
X6568081D1*
X448404Y3381778D2*
X462745D1*
X550279D2*
X6580497D1*
X448404Y3356909D2*
X462745D1*
X550279D2*
X6592949D1*
X448404Y3332041D2*
X462745D1*
X550279D2*
X6605364D1*
X448404Y3307172D2*
X462745D1*
X550279D2*
X1258728D1*
X1829299D2*
X6617816D1*
X448404Y3282303D2*
X462745D1*
X550279D2*
X1233861D1*
X1854167D2*
X6630232D1*
X448404Y3257434D2*
X462745D1*
X550279D2*
X1211935D1*
X1305892D2*
X1782135D1*
X1879035D2*
X6642684D1*
X448404Y3232566D2*
X462745D1*
X550279D2*
X1209029D1*
X1281025D2*
X1807003D1*
X1891486D2*
X6655100D1*
X448404Y3207697D2*
X462745D1*
X550279D2*
X1185525D1*
X1302519D2*
X1701037D1*
X1786992D2*
X1821536D1*
X1891522D2*
X6667552D1*
X448404Y3182828D2*
X462745D1*
X550279D2*
X842615D1*
X945400D2*
X1185525D1*
X1302519D2*
X1687257D1*
X1800771D2*
X1821536D1*
X2099399D2*
X2113633D1*
X2199409D2*
X2213607D1*
X2299418D2*
X6679968D1*
X448404Y3157959D2*
X462745D1*
X550279D2*
X828549D1*
X959502D2*
X1185525D1*
X1302519D2*
X1686611D1*
X1801417D2*
X1821536D1*
X2313269D2*
X6692420D1*
X448404Y3133091D2*
X462745D1*
X550279D2*
X825642D1*
X962373D2*
X1185525D1*
X1302519D2*
X1698561D1*
X1789468D2*
X1821536D1*
X2313951D2*
X6701749D1*
X448404Y3108222D2*
X462745D1*
X550279D2*
X825642D1*
X962373D2*
X1201529D1*
X1286479D2*
X1821536D1*
X2302109D2*
X6707957D1*
X448404Y3083353D2*
X462745D1*
X550279D2*
X827616D1*
X960399D2*
X1187391D1*
X1300653D2*
X1821536D1*
X1891522D2*
X6714165D1*
X448404Y3058484D2*
X462745D1*
X550279D2*
X839852D1*
X948199D2*
X1186529D1*
X1301514D2*
X1821536D1*
X1891522D2*
X6720373D1*
X448404Y3033615D2*
X462745D1*
X565279D2*
X887112D1*
X900913D2*
X1198120D1*
X1289888D2*
X1821536D1*
X1891522D2*
X6726617D1*
X448404Y3008747D2*
X469599D1*
X590146D2*
X1202067D1*
X1285977D2*
X1702077D1*
X1785987D2*
X1821536D1*
X1891522D2*
X6732825D1*
X448404Y2983878D2*
X493319D1*
X615014D2*
X710741D1*
X841084D2*
X1187534D1*
X1300510D2*
X1687544D1*
X1800484D2*
X1821536D1*
X1891522D2*
X6739033D1*
X448404Y2959009D2*
X518186D1*
X639882D2*
X692799D1*
X859027D2*
X1186422D1*
X1301622D2*
X1686432D1*
X1801596D2*
X1821536D1*
X1891522D2*
X6745241D1*
X448404Y2934140D2*
X543054D1*
X659905D2*
X687847D1*
X863943D2*
X1197725D1*
X1290319D2*
X1697700D1*
X1790329D2*
X1821536D1*
X1891522D2*
X6751485D1*
X448404Y2909272D2*
X567922D1*
X662776D2*
X692655D1*
X859134D2*
X1202605D1*
X1285438D2*
X1702616D1*
X1785449D2*
X1823007D1*
X1914703D2*
X6757693D1*
X448404Y2884403D2*
X575242D1*
X662776D2*
X710346D1*
X841443D2*
X1187678D1*
X1300366D2*
X1687688D1*
X1800340D2*
X1842672D1*
X1939571D2*
X1985527D1*
X2102521D2*
X2502725D1*
X2585307D2*
X6763901D1*
X448404Y2859534D2*
X575242D1*
X662776D2*
X1186350D1*
X1301694D2*
X1686324D1*
X1801704D2*
X1867539D1*
X2102521D2*
X2487726D1*
X2600307D2*
X6770109D1*
X448404Y2834665D2*
X575242D1*
X662776D2*
X1197295D1*
X1290749D2*
X1697305D1*
X1790724D2*
X1892407D1*
X2102521D2*
X2486326D1*
X2601706D2*
X6776353D1*
X448404Y2809797D2*
X575242D1*
X662776D2*
X1203144D1*
X1284900D2*
X1703154D1*
X1784874D2*
X1985527D1*
X2102521D2*
X2497199D1*
X2590833D2*
X6780120D1*
X448404Y2784928D2*
X575242D1*
X662776D2*
X1187821D1*
X1300187D2*
X1687831D1*
X1800197D2*
X2003289D1*
X2084759D2*
X6783673D1*
X662776Y2760059D2*
X1186242D1*
X1301801D2*
X1686253D1*
X1801776D2*
X1987859D1*
X2100153D2*
X6787226D1*
X662776Y2735190D2*
X1196900D1*
X1291144D2*
X1696910D1*
X1791118D2*
X1986208D1*
X2101804D2*
X6790778D1*
X662776Y2710322D2*
X1203718D1*
X1284326D2*
X1703728D1*
X1784300D2*
X1996794D1*
X2091218D2*
X6794331D1*
X662776Y2685453D2*
X1188001D1*
X1300043D2*
X1687975D1*
X1800053D2*
X2003863D1*
X2084184D2*
X2503874D1*
X2584159D2*
X2635497D1*
X2752527D2*
X6797883D1*
X662776Y2660584D2*
X1186171D1*
X1301873D2*
X1686145D1*
X1801884D2*
X1988039D1*
X2100009D2*
X2488049D1*
X2599984D2*
X2635497D1*
X2752527D2*
X6801436D1*
X448404Y2635715D2*
X575242D1*
X662776D2*
X1196505D1*
X1291539D2*
X1696515D1*
X1791513D2*
X1986137D1*
X2101875D2*
X2486147D1*
X2601886D2*
X2635497D1*
X2752527D2*
X6804988D1*
X448404Y2610846D2*
X575242D1*
X662776D2*
X1204292D1*
X1283752D2*
X1704302D1*
X1783726D2*
X1996400D1*
X2091612D2*
X2496410D1*
X2591623D2*
X2635497D1*
X2752527D2*
X4733717D1*
X4873211D2*
X6808541D1*
X448404Y2585978D2*
X562647D1*
X662776D2*
X1188144D1*
X1299864D2*
X1688154D1*
X1925505D2*
X2004438D1*
X2083574D2*
X2504448D1*
X2583585D2*
X2654408D1*
X2733616D2*
X4694388D1*
X4912540D2*
X6812093D1*
X448404Y2561109D2*
X471106D1*
X657357D2*
X1186099D1*
X1301945D2*
X1686073D1*
X2099830D2*
X2488192D1*
X2599840D2*
X2638152D1*
X2749872D2*
X4670740D1*
X4936188D2*
X6815646D1*
X634571Y2536240D2*
X1196110D1*
X1291897D2*
X1696121D1*
X1791908D2*
X1878341D1*
X2101983D2*
X2486075D1*
X2601957D2*
X2636035D1*
X2751989D2*
X4654951D1*
X4951977D2*
X6814641D1*
X609703Y2511371D2*
X1204902D1*
X1283142D2*
X1996041D1*
X2092007D2*
X2496015D1*
X2592017D2*
X2645975D1*
X2742049D2*
X4644617D1*
X4962311D2*
X6813170D1*
X448404Y2486503D2*
X463822D1*
X584405D2*
X1188324D1*
X1299720D2*
X2005048D1*
X2083000D2*
X2505058D1*
X2582975D2*
X2655018D1*
X2733042D2*
X4638660D1*
X4968268D2*
X6811699D1*
X448404Y2461634D2*
X480185D1*
X557851D2*
X1186027D1*
X1302017D2*
X1988362D1*
X2099650D2*
X2488372D1*
X2599661D2*
X2638332D1*
X2749693D2*
X4636686D1*
X4970242D2*
X6810263D1*
X448404Y2436765D2*
X480185D1*
X567647D2*
X1195752D1*
X1292292D2*
X1985993D1*
X2102019D2*
X2486003D1*
X2602029D2*
X2635963D1*
X2752061D2*
X4638480D1*
X4968448D2*
X6808792D1*
X448404Y2411896D2*
X485927D1*
X592515D2*
X1995646D1*
X2092366D2*
X2495656D1*
X2592376D2*
X2645616D1*
X2742408D2*
X4644186D1*
X4962742D2*
X6807321D1*
X448404Y2387028D2*
X509610D1*
X617382D2*
X2005658D1*
X2082354D2*
X2505668D1*
X2582365D2*
X2655628D1*
X2732396D2*
X4654234D1*
X4952694D2*
X6805849D1*
X448404Y2362159D2*
X534478D1*
X642250D2*
X1988541D1*
X2099471D2*
X2488551D1*
X2599481D2*
X2638511D1*
X2749513D2*
X4669700D1*
X4937228D2*
X6804414D1*
X448404Y2337290D2*
X559346D1*
X667118D2*
X730190D1*
X807820D2*
X1149533D1*
X1188515D2*
X1985921D1*
X2102091D2*
X2485932D1*
X2602101D2*
X2635892D1*
X2752133D2*
X4692809D1*
X4914119D2*
X6802943D1*
X448404Y2312421D2*
X584213D1*
X691986D2*
X713109D1*
X1214208D2*
X1995287D1*
X2092725D2*
X2495297D1*
X2592735D2*
X2645257D1*
X2742767D2*
X4730739D1*
X4876189D2*
X6801472D1*
X448404Y2287552D2*
X609081D1*
X1217545D2*
X1550216D1*
X1587834D2*
X2006304D1*
X2081708D2*
X2506314D1*
X2581719D2*
X6800000D1*
X448404Y2262684D2*
X633949D1*
X1205847D2*
X1523948D1*
X2099292D2*
X2488731D1*
X2599302D2*
X6798565D1*
X448404Y2237815D2*
X642669D1*
X807210D2*
X1520432D1*
X2102162D2*
X2485860D1*
X2602173D2*
X6797094D1*
X448404Y2212946D2*
X642669D1*
X824757D2*
X1214483D1*
X2093084D2*
X2494939D1*
X2593094D2*
X6793900D1*
X448404Y2188077D2*
X642669D1*
X827700D2*
X1169951D1*
X2081062D2*
X6789235D1*
X448404Y2163209D2*
X642669D1*
X818872D2*
X1158791D1*
X2099112D2*
X6784570D1*
X448404Y2138340D2*
X476991D1*
X536248D2*
X551774D1*
X611067D2*
X642669D1*
X806528D2*
X1162487D1*
X1252317D2*
X1289876D1*
X2102234D2*
X6779941D1*
X448404Y2113471D2*
X464145D1*
X623877D2*
X642669D1*
X824542D2*
X927912D1*
X960112D2*
X1189687D1*
X1225117D2*
X1265008D1*
X2093443D2*
X6775276D1*
X448404Y2088602D2*
X469133D1*
X618890D2*
X642669D1*
X827736D2*
X899348D1*
X1337040D2*
X1610286D1*
X1827756D2*
X2033504D1*
X2054528D2*
X6770611D1*
X448404Y2063734D2*
X642669D1*
X819195D2*
X895329D1*
X1312172D2*
X1618826D1*
X1819216D2*
X6765946D1*
X448404Y2038865D2*
X642669D1*
X805882D2*
X879253D1*
X1283644D2*
X1304265D1*
X1333774D2*
X1632175D1*
X1805867D2*
X6761281D1*
X448404Y2013996D2*
X642669D1*
X824362D2*
X849541D1*
X1363486D2*
X1613659D1*
X1824347D2*
X6756616D1*
X448404Y1989127D2*
X642669D1*
X827807D2*
X845271D1*
X1367757D2*
X1610250D1*
X1827792D2*
X6751951D1*
X448404Y1964259D2*
X642669D1*
X819518D2*
X855785D1*
X1357243D2*
X1618503D1*
X1819539D2*
X6747286D1*
X448404Y1939390D2*
X642669D1*
X805164D2*
X1632857D1*
X1805185D2*
X6742621D1*
X448404Y1914521D2*
X642669D1*
X824147D2*
X1613874D1*
X1824168D2*
X6737957D1*
X448404Y1889652D2*
X642669D1*
X827843D2*
X1610178D1*
X1827828D2*
X2193117D1*
X2271320D2*
X6729918D1*
X448404Y1864783D2*
X642669D1*
X819841D2*
X1618180D1*
X1819861D2*
X2139936D1*
X2310004D2*
X6721629D1*
X448404Y1839915D2*
X642669D1*
X804447D2*
X1633575D1*
X1804467D2*
X2096839D1*
X2328125D2*
X6713340D1*
X448404Y1815046D2*
X642669D1*
X823932D2*
X1614089D1*
X1823952D2*
X2053778D1*
X2341510D2*
X6705051D1*
X448404Y1790177D2*
X642669D1*
X827879D2*
X1610142D1*
X1827864D2*
X2017930D1*
X2343914D2*
X6696762D1*
X448404Y1765308D2*
X642669D1*
X820164D2*
X1617857D1*
X1820184D2*
X1993349D1*
X2345242D2*
X6688472D1*
X448404Y1740440D2*
X642669D1*
X803693D2*
X1648610D1*
X1689422D2*
X1748583D1*
X1789432D2*
X1983410D1*
X2336343D2*
X2621394D1*
X2859965D2*
X6680183D1*
X448404Y1715571D2*
X642669D1*
X823716D2*
X1975910D1*
X2325398D2*
X2546612D1*
X2934783D2*
X6671894D1*
X448404Y1690702D2*
X642669D1*
X827915D2*
X1977740D1*
X2299095D2*
X2496374D1*
X2984985D2*
X6663605D1*
X448404Y1665833D2*
X642669D1*
X820487D2*
X1981292D1*
X2260627D2*
X2453277D1*
X3023489D2*
X6653198D1*
X448404Y1640965D2*
X642669D1*
X802940D2*
X1635082D1*
X1702951D2*
X1735091D1*
X1802924D2*
X1995538D1*
X2217566D2*
X2410216D1*
X3055175D2*
X6640782D1*
X448404Y1616096D2*
X642669D1*
X823501D2*
X975602D1*
X1823522D2*
X2017212D1*
X2174469D2*
X2367119D1*
X3082482D2*
X6628330D1*
X448404Y1591227D2*
X642669D1*
X827951D2*
X970112D1*
X1827935D2*
X2074807D1*
X2115260D2*
X2327862D1*
X3106668D2*
X6615914D1*
X448404Y1566358D2*
X480723D1*
X532516D2*
X555506D1*
X607335D2*
X642669D1*
X820774D2*
X979155D1*
X1820759D2*
X2294920D1*
X3126799D2*
X6603463D1*
X448404Y1541490D2*
X464611D1*
X623411D2*
X642669D1*
X802150D2*
X1635907D1*
X1802135D2*
X2266643D1*
X3144742D2*
X6591047D1*
X448404Y1516621D2*
X467590D1*
X620433D2*
X642669D1*
X823286D2*
X1146698D1*
X1823270D2*
X2241812D1*
X3160889D2*
X6578595D1*
X448404Y1491752D2*
X642669D1*
X827951D2*
X1121830D1*
X1827971D2*
X2221537D1*
X3174131D2*
X6566179D1*
X448404Y1466883D2*
X642669D1*
X821061D2*
X1078877D1*
X1821082D2*
X2202949D1*
X3186690D2*
X6553727D1*
X448404Y1442014D2*
X642669D1*
X801289D2*
X1071808D1*
X1169784D2*
X1636732D1*
X1801309D2*
X2186801D1*
X3196271D2*
X6541024D1*
X448404Y1417146D2*
X642669D1*
X823071D2*
X1079164D1*
X1162427D2*
X1268704D1*
X1823055D2*
X2172986D1*
X3205493D2*
X6524446D1*
X448404Y1392277D2*
X642669D1*
X827987D2*
X1227401D1*
X1827971D2*
X2160319D1*
X3212168D2*
X6507867D1*
X448404Y1367408D2*
X642669D1*
X821348D2*
X1204830D1*
X1821333D2*
X2150307D1*
X3218448D2*
X6491289D1*
X448404Y1342539D2*
X642669D1*
X800428D2*
X1043172D1*
X1083446D2*
X1202426D1*
X1800448D2*
X2140762D1*
X3222359D2*
X6474710D1*
X448404Y1317671D2*
X642669D1*
X822819D2*
X1018017D1*
X1822804D2*
X2133944D1*
X3225983D2*
X6458132D1*
X448404Y1292802D2*
X642669D1*
X827987D2*
X1014788D1*
X1828007D2*
X2127305D1*
X3227275D2*
X6441553D1*
X448404Y1267933D2*
X642669D1*
X821635D2*
X1026701D1*
X1821620D2*
X2123286D1*
X3228388D2*
X6424975D1*
X448404Y1243064D2*
X642669D1*
X799531D2*
X1638491D1*
X1799551D2*
X2119339D1*
X3227060D2*
X6405705D1*
X448404Y1218196D2*
X642669D1*
X822568D2*
X1615453D1*
X1822589D2*
X2117903D1*
X3225660D2*
X6386363D1*
X448404Y1193327D2*
X642669D1*
X827987D2*
X1610035D1*
X1828007D2*
X2116612D1*
X3221713D2*
X6367022D1*
X448404Y1168458D2*
X642669D1*
X821886D2*
X1616135D1*
X1821907D2*
X2117688D1*
X3217694D2*
X6347680D1*
X448404Y1143589D2*
X642669D1*
X798598D2*
X1639424D1*
X1798618D2*
X2119016D1*
X3211056D2*
X6328339D1*
X448404Y1118720D2*
X642669D1*
X822317D2*
X1615704D1*
X1822337D2*
X2122604D1*
X3204238D2*
X6308997D1*
X448404Y1093852D2*
X642669D1*
X828023D2*
X1610035D1*
X1828007D2*
X2126552D1*
X3194692D2*
X6289655D1*
X448404Y1068983D2*
X642669D1*
X822173D2*
X1615884D1*
X1822158D2*
X2132831D1*
X3184681D2*
X6265326D1*
X448404Y1044114D2*
X642669D1*
X720334D2*
X740022D1*
X797988D2*
X1640034D1*
X1798008D2*
X2139506D1*
X3172014D2*
X6240458D1*
X448404Y1019245D2*
X497948D1*
X515292D2*
X572766D1*
X590108D2*
X642669D1*
X720334D2*
X1615955D1*
X1822050D2*
X2148728D1*
X3158198D2*
X6215590D1*
X448404Y994377D2*
X466728D1*
X621330D2*
X642669D1*
X720334D2*
X1610035D1*
X1828007D2*
X2158273D1*
X3142050D2*
X6190723D1*
X448404Y969508D2*
X465078D1*
X622944D2*
X642669D1*
X720334D2*
X1615632D1*
X1822409D2*
X2170868D1*
X3123462D2*
X6165855D1*
X448404Y944639D2*
X483881D1*
X529358D2*
X558664D1*
X604177D2*
X642669D1*
X720334D2*
X741458D1*
X796588D2*
X1639065D1*
X1798977D2*
X2184110D1*
X3103188D2*
X6138152D1*
X448404Y919770D2*
X642669D1*
X821779D2*
X1616243D1*
X1821799D2*
X2200258D1*
X3078320D2*
X6106180D1*
X448404Y894902D2*
X642669D1*
X827987D2*
X1610035D1*
X1828007D2*
X2218164D1*
X3050079D2*
X6074207D1*
X448404Y870033D2*
X642669D1*
X822676D2*
X1615381D1*
X1822660D2*
X2206071D1*
X3017101D2*
X3229703D1*
X3270157D2*
X6042234D1*
X448404Y845164D2*
X642669D1*
X799889D2*
X1638132D1*
X1799874D2*
X2146862D1*
X2977844D2*
X3170494D1*
X3327751D2*
X6010261D1*
X448404Y820295D2*
X642669D1*
X821528D2*
X1616494D1*
X1821512D2*
X2103765D1*
X2934783D2*
X3127397D1*
X3349425D2*
X5978288D1*
X448404Y795427D2*
X642669D1*
X827987D2*
X1610035D1*
X1828007D2*
X2060704D1*
X2891722D2*
X3084336D1*
X3363671D2*
X5937811D1*
X448404Y770558D2*
X642669D1*
X822891D2*
X1615130D1*
X1822912D2*
X2022236D1*
X2343591D2*
X2359978D1*
X2848625D2*
X3045868D1*
X3367223D2*
X5896365D1*
X448404Y745689D2*
X642669D1*
X800786D2*
X1637271D1*
X1800771D2*
X1995933D1*
X2345421D2*
X2410216D1*
X2798387D2*
X3019565D1*
X3369054D2*
X5854918D1*
X448404Y720820D2*
X642669D1*
X821240D2*
X1616781D1*
X1821261D2*
X1984988D1*
X2337921D2*
X2484999D1*
X2723605D2*
X3008585D1*
X3361554D2*
X5813472D1*
X448404Y695951D2*
X642669D1*
X827987D2*
X1610070D1*
X1827971D2*
X1976089D1*
X2327982D2*
X2999721D1*
X3351614D2*
X5770591D1*
X448404Y671083D2*
X642669D1*
X823142D2*
X1614879D1*
X1823127D2*
X1977417D1*
X2303401D2*
X3001049D1*
X3327033D2*
X5720855D1*
X448404Y646214D2*
X642669D1*
X801612D2*
X1636409D1*
X1801632D2*
X1979821D1*
X2267553D2*
X3003453D1*
X3291185D2*
X5671120D1*
X448404Y621345D2*
X642669D1*
X820953D2*
X1617068D1*
X1820974D2*
X1993206D1*
X2224492D2*
X3016838D1*
X3248124D2*
X5621384D1*
X448404Y596476D2*
X642669D1*
X827951D2*
X972660D1*
X1057107D2*
X1287615D1*
X1372063D2*
X1610070D1*
X1827971D2*
X2011327D1*
X2181431D2*
X3034960D1*
X3205027D2*
X5565656D1*
X448404Y571608D2*
X642669D1*
X823358D2*
X961105D1*
X1068662D2*
X1276060D1*
X1383617D2*
X1614664D1*
X1823378D2*
X2050011D1*
X2128250D2*
X3073643D1*
X3151847D2*
X5491053D1*
X448404Y546739D2*
X650312D1*
X802437D2*
X962971D1*
X1066796D2*
X1277926D1*
X1381751D2*
X1635584D1*
X1802422D2*
X5410888D1*
X448404Y521870D2*
X674785D1*
X820666D2*
X980447D1*
X1049320D2*
X1295402D1*
X1364276D2*
X1617355D1*
X1820651D2*
X5327995D1*
X468678Y497001D2*
X699653D1*
X827915D2*
X1610106D1*
X1827935D2*
X5220845D1*
X493546Y472133D2*
X714437D1*
X823609D2*
X1614448D1*
X1823593D2*
X5059187D1*
X518414Y447264D2*
X734819D1*
X803227D2*
X1634795D1*
X1803211D2*
X4815569D1*
X2022182Y4425035D2*
X2125035D1*
Y4312996D1*
X2012996D1*
Y4425035D1*
X2022182D1*
X2647182Y2700035D2*
X2750035D1*
Y2587996D1*
X2728684D1*
X2733628Y2583628D1*
X2739337Y2576943D1*
X2743930Y2569448D1*
X2747294Y2561327D1*
X2749346Y2552779D1*
X2750035Y2544016D1*
X2749346Y2535252D1*
X2747294Y2526705D1*
X2743930Y2518583D1*
X2739337Y2511088D1*
X2733628Y2504404D1*
X2726943Y2498695D1*
X2719277Y2494023D1*
X2726943Y2489337D1*
X2733628Y2483628D1*
X2739337Y2476943D1*
X2743930Y2469448D1*
X2747294Y2461327D1*
X2749346Y2452779D1*
X2750035Y2444016D1*
X2749346Y2435252D1*
X2747294Y2426705D1*
X2743930Y2418583D1*
X2739337Y2411088D1*
X2733628Y2404404D1*
X2726943Y2398695D1*
X2719277Y2394023D1*
X2726943Y2389337D1*
X2733628Y2383628D1*
X2739337Y2376943D1*
X2743930Y2369448D1*
X2747294Y2361327D1*
X2749346Y2352779D1*
X2750035Y2344016D1*
X2749346Y2335252D1*
X2747294Y2326705D1*
X2743930Y2318583D1*
X2739337Y2311088D1*
X2733628Y2304404D1*
X2726943Y2298695D1*
X2719448Y2294102D1*
X2711327Y2290738D1*
X2702779Y2288686D1*
X2694016Y2287996D1*
X2685252Y2288686D1*
X2676705Y2290738D1*
X2668583Y2294102D1*
X2661088Y2298695D1*
X2654404Y2304404D1*
X2648695Y2311088D1*
X2644102Y2318583D1*
X2640738Y2326705D1*
X2638686Y2335252D1*
X2637996Y2344016D1*
X2638686Y2352779D1*
X2640738Y2361327D1*
X2644102Y2369448D1*
X2648695Y2376943D1*
X2654404Y2383628D1*
X2661088Y2389337D1*
X2668755Y2394009D1*
X2661088Y2398695D1*
X2654404Y2404404D1*
X2648695Y2411088D1*
X2644102Y2418583D1*
X2640738Y2426705D1*
X2638686Y2435252D1*
X2637996Y2444016D1*
X2638686Y2452779D1*
X2640738Y2461327D1*
X2644102Y2469448D1*
X2648695Y2476943D1*
X2654404Y2483628D1*
X2661088Y2489337D1*
X2668755Y2494009D1*
X2661088Y2498695D1*
X2654404Y2504404D1*
X2648695Y2511088D1*
X2644102Y2518583D1*
X2640738Y2526705D1*
X2638686Y2535252D1*
X2637996Y2544016D1*
X2638686Y2552779D1*
X2640738Y2561327D1*
X2644102Y2569448D1*
X2648695Y2576943D1*
X2654404Y2583628D1*
X2659375Y2587986D1*
X2637996Y2587996D1*
Y2700035D1*
X2647182D1*
X1909682Y3200035D2*
X2012535D1*
Y3178684D1*
X2016904Y3183628D1*
X2023588Y3189337D1*
X2031083Y3193930D1*
X2039205Y3197294D1*
X2047752Y3199346D1*
X2056516Y3200035D1*
X2065279Y3199346D1*
X2073827Y3197294D1*
X2081948Y3193930D1*
X2089443Y3189337D1*
X2096128Y3183628D1*
X2101837Y3176943D1*
X2106509Y3169277D1*
X2111195Y3176943D1*
X2116904Y3183628D1*
X2123588Y3189337D1*
X2131083Y3193930D1*
X2139205Y3197294D1*
X2147752Y3199346D1*
X2156516Y3200035D1*
X2165279Y3199346D1*
X2173827Y3197294D1*
X2181948Y3193930D1*
X2189443Y3189337D1*
X2196128Y3183628D1*
X2201837Y3176943D1*
X2206509Y3169277D1*
X2211195Y3176943D1*
X2216904Y3183628D1*
X2223588Y3189337D1*
X2231083Y3193930D1*
X2239205Y3197294D1*
X2247752Y3199346D1*
X2256516Y3200035D1*
X2265279Y3199346D1*
X2273827Y3197294D1*
X2281948Y3193930D1*
X2289443Y3189337D1*
X2296128Y3183628D1*
X2301837Y3176943D1*
X2306430Y3169448D1*
X2309794Y3161327D1*
X2311846Y3152779D1*
X2312535Y3144016D1*
X2311846Y3135252D1*
X2309794Y3126705D1*
X2306430Y3118583D1*
X2301837Y3111088D1*
X2296128Y3104404D1*
X2289443Y3098695D1*
X2281948Y3094102D1*
X2273827Y3090738D1*
X2265279Y3088686D1*
X2256516Y3087996D1*
X2247752Y3088686D1*
X2239205Y3090738D1*
X2231083Y3094102D1*
X2223588Y3098695D1*
X2216904Y3104404D1*
X2211195Y3111088D1*
X2206523Y3118755D1*
X2201837Y3111088D1*
X2196128Y3104404D1*
X2189443Y3098695D1*
X2181948Y3094102D1*
X2173827Y3090738D1*
X2165279Y3088686D1*
X2156516Y3087996D1*
X2147752Y3088686D1*
X2139205Y3090738D1*
X2131083Y3094102D1*
X2123588Y3098695D1*
X2116904Y3104404D1*
X2111195Y3111088D1*
X2106523Y3118755D1*
X2101837Y3111088D1*
X2096128Y3104404D1*
X2089443Y3098695D1*
X2081948Y3094102D1*
X2073827Y3090738D1*
X2065279Y3088686D1*
X2056516Y3087996D1*
X2047752Y3088686D1*
X2039205Y3090738D1*
X2031083Y3094102D1*
X2023588Y3098695D1*
X2016904Y3104404D1*
X2012546Y3109375D1*
X2012535Y3087996D1*
X1900496D1*
Y3200035D1*
X1909682D1*
X2568245Y4428972D2*
X2678973D1*
Y4309059D1*
X2560303D1*
X2560145Y4240779D1*
X2559132Y4234385D1*
X2557131Y4228228D1*
X2554192Y4222460D1*
X2550387Y4217222D1*
X2522205Y4188860D1*
X2083309Y3750144D1*
X2078072Y3746339D1*
X2072304Y3743400D1*
X2066147Y3741400D1*
X2059753Y3740387D1*
X2019770Y3740260D1*
X698622D1*
X547762Y3589417D1*
X547772Y3048624D1*
X650387Y2945809D1*
X654192Y2940572D1*
X657131Y2934804D1*
X659132Y2928647D1*
X660145Y2922253D1*
X660272Y2882270D1*
X660145Y2578279D1*
X659132Y2571885D1*
X657131Y2565728D1*
X654192Y2559960D1*
X650387Y2554722D1*
X622205Y2526360D1*
X583309Y2487644D1*
X578072Y2483839D1*
X572304Y2480900D1*
X566104Y2478799D1*
X559233Y2471927D1*
X555336Y2468864D1*
X555350Y2446566D1*
X709145Y2292613D1*
X712502Y2287991D1*
X712524Y2294016D1*
X713219Y2302853D1*
X715289Y2311473D1*
X718681Y2319663D1*
X723313Y2327221D1*
X729070Y2333962D1*
X735811Y2339719D1*
X743369Y2344351D1*
X751559Y2347743D1*
X760178Y2349812D1*
X769016Y2350508D1*
X777853Y2349812D1*
X786473Y2347743D1*
X794663Y2344351D1*
X802221Y2339719D1*
X808962Y2333962D1*
X814719Y2327221D1*
X815191Y2326515D1*
X1135788Y2326508D1*
X1141688Y2331629D1*
X1147909Y2335441D1*
X1154649Y2338232D1*
X1161743Y2339935D1*
X1169016Y2340508D1*
X1176289Y2339935D1*
X1183383Y2338232D1*
X1190123Y2335441D1*
X1196343Y2331629D1*
X1201891Y2326891D1*
X1206629Y2321343D1*
X1210441Y2315123D1*
X1213232Y2308383D1*
X1214935Y2301289D1*
X1215508Y2294016D1*
X1214935Y2286743D1*
X1213232Y2279649D1*
X1210441Y2272909D1*
X1206629Y2266688D1*
X1201891Y2261141D1*
X1196343Y2256403D1*
X1190123Y2252591D1*
X1183383Y2249799D1*
X1176289Y2248096D1*
X1169016Y2247524D1*
X1161743Y2248096D1*
X1154649Y2249799D1*
X1147909Y2252591D1*
X1141688Y2256403D1*
X1135783Y2261528D1*
X815234Y2261524D1*
X811973Y2257327D1*
X805704Y2251059D1*
X798533Y2245848D1*
X795282Y2244028D1*
X802221Y2239719D1*
X808962Y2233962D1*
X814719Y2227221D1*
X819351Y2219663D1*
X822743Y2211473D1*
X824812Y2202853D1*
X825508Y2194016D1*
X824812Y2185178D1*
X822743Y2176559D1*
X819351Y2168369D1*
X814719Y2160811D1*
X808962Y2154070D1*
X802221Y2148313D1*
X795282Y2144028D1*
X802221Y2139719D1*
X808962Y2133962D1*
X814719Y2127221D1*
X819351Y2119663D1*
X822743Y2111473D1*
X824812Y2102853D1*
X825508Y2094016D1*
X824812Y2085178D1*
X822743Y2076559D1*
X819351Y2068369D1*
X814719Y2060811D1*
X808962Y2054070D1*
X802221Y2048313D1*
X795282Y2044028D1*
X802221Y2039719D1*
X808962Y2033962D1*
X814719Y2027221D1*
X819351Y2019663D1*
X822743Y2011473D1*
X824812Y2002853D1*
X825508Y1994016D1*
X824812Y1985178D1*
X822743Y1976559D1*
X819351Y1968369D1*
X814719Y1960811D1*
X808962Y1954070D1*
X802221Y1948313D1*
X795282Y1944028D1*
X802221Y1939719D1*
X808962Y1933962D1*
X814719Y1927221D1*
X819351Y1919663D1*
X822743Y1911473D1*
X824812Y1902853D1*
X825508Y1894016D1*
X824812Y1885178D1*
X822743Y1876559D1*
X819351Y1868369D1*
X814719Y1860811D1*
X808962Y1854070D1*
X802221Y1848313D1*
X795282Y1844028D1*
X802221Y1839719D1*
X808962Y1833962D1*
X814719Y1827221D1*
X819351Y1819663D1*
X822743Y1811473D1*
X824812Y1802853D1*
X825508Y1794016D1*
X824812Y1785178D1*
X822743Y1776559D1*
X819351Y1768369D1*
X814719Y1760811D1*
X808962Y1754070D1*
X802221Y1748313D1*
X795282Y1744028D1*
X802221Y1739719D1*
X808962Y1733962D1*
X814719Y1727221D1*
X819351Y1719663D1*
X822743Y1711473D1*
X824812Y1702853D1*
X825508Y1694016D1*
X824812Y1685178D1*
X822743Y1676559D1*
X819351Y1668369D1*
X814719Y1660811D1*
X808962Y1654070D1*
X802221Y1648313D1*
X795282Y1644028D1*
X802221Y1639719D1*
X808962Y1633962D1*
X814719Y1627221D1*
X819351Y1619663D1*
X822743Y1611473D1*
X824812Y1602853D1*
X825508Y1594016D1*
X824812Y1585178D1*
X822743Y1576559D1*
X819351Y1568369D1*
X814719Y1560811D1*
X808962Y1554070D1*
X802221Y1548313D1*
X795282Y1544028D1*
X802221Y1539719D1*
X808962Y1533962D1*
X814719Y1527221D1*
X819351Y1519663D1*
X822743Y1511473D1*
X824812Y1502853D1*
X825508Y1494016D1*
X824812Y1485178D1*
X822743Y1476559D1*
X819351Y1468369D1*
X814719Y1460811D1*
X808962Y1454070D1*
X802221Y1448313D1*
X795282Y1444028D1*
X802221Y1439719D1*
X808962Y1433962D1*
X814719Y1427221D1*
X819351Y1419663D1*
X822743Y1411473D1*
X824812Y1402853D1*
X825508Y1394016D1*
X824812Y1385178D1*
X822743Y1376559D1*
X819351Y1368369D1*
X814719Y1360811D1*
X808962Y1354070D1*
X802221Y1348313D1*
X795282Y1344028D1*
X802221Y1339719D1*
X808962Y1333962D1*
X814719Y1327221D1*
X819351Y1319663D1*
X822743Y1311473D1*
X824812Y1302853D1*
X825508Y1294016D1*
X824812Y1285178D1*
X822743Y1276559D1*
X819351Y1268369D1*
X814719Y1260811D1*
X808962Y1254070D1*
X802221Y1248313D1*
X795282Y1244028D1*
X802221Y1239719D1*
X808962Y1233962D1*
X814719Y1227221D1*
X819351Y1219663D1*
X822743Y1211473D1*
X824812Y1202853D1*
X825508Y1194016D1*
X824812Y1185178D1*
X822743Y1176559D1*
X819351Y1168369D1*
X814719Y1160811D1*
X808962Y1154070D1*
X802221Y1148313D1*
X795282Y1144028D1*
X802221Y1139719D1*
X808962Y1133962D1*
X814719Y1127221D1*
X819351Y1119663D1*
X822743Y1111473D1*
X824812Y1102853D1*
X825508Y1094016D1*
X824812Y1085178D1*
X822743Y1076559D1*
X819351Y1068369D1*
X814719Y1060811D1*
X808962Y1054070D1*
X802221Y1048313D1*
X794663Y1043681D1*
X786473Y1040289D1*
X777853Y1038219D1*
X769016Y1037524D1*
X760178Y1038219D1*
X751559Y1040289D1*
X743369Y1043681D1*
X735811Y1048313D1*
X729070Y1054070D1*
X723313Y1060811D1*
X718681Y1068369D1*
X717847Y1070178D1*
X717850Y917940D1*
X720848Y923533D1*
X726059Y930704D1*
X732327Y936973D1*
X739499Y942183D1*
X747397Y946208D1*
X755828Y948947D1*
X764583Y950334D1*
X773448D1*
X782204Y948947D1*
X790634Y946208D1*
X798533Y942183D1*
X805704Y936973D1*
X811973Y930704D1*
X817183Y923533D1*
X821208Y915634D1*
X823947Y907204D1*
X825334Y898448D1*
Y889583D1*
X823947Y880828D1*
X821208Y872397D1*
X817183Y864499D1*
X811973Y857327D1*
X805704Y851059D1*
X798533Y845848D1*
X795282Y844028D1*
X802221Y839719D1*
X808962Y833962D1*
X814719Y827221D1*
X819351Y819663D1*
X822743Y811473D1*
X824812Y802853D1*
X825508Y794016D1*
X824812Y785178D1*
X822743Y776559D1*
X819351Y768369D1*
X814719Y760811D1*
X808962Y754070D1*
X802221Y748313D1*
X795282Y744028D1*
X802221Y739719D1*
X808962Y733962D1*
X814719Y727221D1*
X819351Y719663D1*
X822743Y711473D1*
X824812Y702853D1*
X825508Y694016D1*
X824812Y685178D1*
X822743Y676559D1*
X819351Y668369D1*
X814719Y660811D1*
X808962Y654070D1*
X802221Y648313D1*
X795282Y644028D1*
X802221Y639719D1*
X808962Y633962D1*
X814719Y627221D1*
X819351Y619663D1*
X822743Y611473D1*
X824812Y602853D1*
X825508Y594016D1*
X824812Y585178D1*
X822743Y576559D1*
X819351Y568369D1*
X814719Y560811D1*
X808962Y554070D1*
X802221Y548313D1*
X795282Y544028D1*
X802221Y539719D1*
X808962Y533962D1*
X814719Y527221D1*
X819351Y519663D1*
X822743Y511473D1*
X824812Y502853D1*
X825508Y494016D1*
X824812Y485178D1*
X822743Y476559D1*
X819351Y468369D1*
X814719Y460811D1*
X808962Y454070D1*
X802221Y448313D1*
X798576Y445877D1*
X1639428Y445886D1*
X1632327Y451059D1*
X1626059Y457327D1*
X1620848Y464499D1*
X1616824Y472397D1*
X1614085Y480828D1*
X1612698Y489583D1*
Y498448D1*
X1614085Y507204D1*
X1616824Y515634D1*
X1620848Y523533D1*
X1626059Y530704D1*
X1632327Y536973D1*
X1639499Y542183D1*
X1642749Y544003D1*
X1635811Y548313D1*
X1629070Y554070D1*
X1623313Y560811D1*
X1618681Y568369D1*
X1615289Y576559D1*
X1613219Y585178D1*
X1612524Y594016D1*
X1613219Y602853D1*
X1615289Y611473D1*
X1618681Y619663D1*
X1623313Y627221D1*
X1629070Y633962D1*
X1635811Y639719D1*
X1642749Y644003D1*
X1635811Y648313D1*
X1629070Y654070D1*
X1623313Y660811D1*
X1618681Y668369D1*
X1615289Y676559D1*
X1613219Y685178D1*
X1612524Y694016D1*
X1613219Y702853D1*
X1615289Y711473D1*
X1618681Y719663D1*
X1623313Y727221D1*
X1629070Y733962D1*
X1635811Y739719D1*
X1642749Y744003D1*
X1635811Y748313D1*
X1629070Y754070D1*
X1623313Y760811D1*
X1618681Y768369D1*
X1615289Y776559D1*
X1613219Y785178D1*
X1612524Y794016D1*
X1613219Y802853D1*
X1615289Y811473D1*
X1618681Y819663D1*
X1623313Y827221D1*
X1629070Y833962D1*
X1635811Y839719D1*
X1642749Y844003D1*
X1635811Y848313D1*
X1629070Y854070D1*
X1623313Y860811D1*
X1618681Y868369D1*
X1615289Y876559D1*
X1613219Y885178D1*
X1612524Y894016D1*
X1613219Y902853D1*
X1615289Y911473D1*
X1618681Y919663D1*
X1623313Y927221D1*
X1629070Y933962D1*
X1635811Y939719D1*
X1642749Y944003D1*
X1635811Y948313D1*
X1629070Y954070D1*
X1623313Y960811D1*
X1618681Y968369D1*
X1615289Y976559D1*
X1613219Y985178D1*
X1612524Y994016D1*
X1613219Y1002853D1*
X1615289Y1011473D1*
X1618681Y1019663D1*
X1623313Y1027221D1*
X1629070Y1033962D1*
X1635811Y1039719D1*
X1642749Y1044003D1*
X1635811Y1048313D1*
X1629070Y1054070D1*
X1623313Y1060811D1*
X1618681Y1068369D1*
X1615289Y1076559D1*
X1613219Y1085178D1*
X1612524Y1094016D1*
X1613219Y1102853D1*
X1615289Y1111473D1*
X1618681Y1119663D1*
X1623313Y1127221D1*
X1629070Y1133962D1*
X1635811Y1139719D1*
X1642749Y1144003D1*
X1635811Y1148313D1*
X1629070Y1154070D1*
X1623313Y1160811D1*
X1618681Y1168369D1*
X1615289Y1176559D1*
X1613219Y1185178D1*
X1612524Y1194016D1*
X1613219Y1202853D1*
X1615289Y1211473D1*
X1618681Y1219663D1*
X1623313Y1227221D1*
X1629070Y1233962D1*
X1635811Y1239719D1*
X1642749Y1244003D1*
X1635811Y1248313D1*
X1629070Y1254070D1*
X1623313Y1260811D1*
X1619434Y1267023D1*
X1096570Y1267035D1*
X1090634Y1261915D1*
X1084414Y1258103D1*
X1077674Y1255311D1*
X1070580Y1253608D1*
X1063307Y1253035D1*
X1056034Y1253608D1*
X1048940Y1255311D1*
X1042200Y1258103D1*
X1035980Y1261915D1*
X1030432Y1266653D1*
X1025694Y1272200D1*
X1021882Y1278421D1*
X1019090Y1285161D1*
X1017387Y1292255D1*
X1016815Y1299528D1*
X1017387Y1306801D1*
X1019090Y1313894D1*
X1021882Y1320635D1*
X1025694Y1326855D1*
X1030432Y1332402D1*
X1035980Y1337140D1*
X1042200Y1340952D1*
X1048940Y1343744D1*
X1056034Y1345447D1*
X1063307Y1346020D1*
X1070580Y1345447D1*
X1077674Y1343744D1*
X1084414Y1340952D1*
X1090634Y1337140D1*
X1096540Y1332015D1*
X1208172Y1332020D1*
X1206492Y1336342D1*
X1204789Y1343436D1*
X1204217Y1350709D1*
X1204789Y1357982D1*
X1206492Y1365076D1*
X1209284Y1371816D1*
X1213096Y1378036D1*
X1217834Y1383584D1*
X1223381Y1388322D1*
X1229602Y1392133D1*
X1236342Y1394925D1*
X1243436Y1396628D1*
X1251236Y1397180D1*
X1272914Y1418723D1*
X1277039Y1421720D1*
X1281582Y1424035D1*
X1286431Y1425610D1*
X1291466Y1426408D1*
X1358320Y1426508D1*
X1622823D1*
X1626059Y1430704D1*
X1632327Y1436973D1*
X1639499Y1442183D1*
X1642749Y1444003D1*
X1635811Y1448313D1*
X1629070Y1454070D1*
X1623313Y1460811D1*
X1622841Y1461516D1*
X1186050Y1461523D1*
X1167293Y1442799D1*
X1166707Y1434971D1*
X1165004Y1427877D1*
X1162212Y1421137D1*
X1158400Y1414917D1*
X1153662Y1409369D1*
X1148115Y1404631D1*
X1141894Y1400819D1*
X1135154Y1398027D1*
X1128060Y1396324D1*
X1120787Y1395752D1*
X1113514Y1396324D1*
X1106421Y1398027D1*
X1099680Y1400819D1*
X1093460Y1404631D1*
X1087913Y1409369D1*
X1083174Y1414917D1*
X1079363Y1421137D1*
X1076571Y1427877D1*
X1074868Y1434971D1*
X1074295Y1442244D1*
X1074868Y1449517D1*
X1076571Y1456611D1*
X1079363Y1463351D1*
X1083174Y1469571D1*
X1087913Y1475119D1*
X1093460Y1479857D1*
X1099680Y1483669D1*
X1106421Y1486461D1*
X1113514Y1488164D1*
X1121315Y1488716D1*
X1151457Y1518723D1*
X1155582Y1521720D1*
X1160125Y1524035D1*
X1164974Y1525610D1*
X1170010Y1526408D1*
X1236864Y1526508D1*
X1622798D1*
X1626059Y1530704D1*
X1632327Y1536973D1*
X1639499Y1542183D1*
X1642749Y1544003D1*
X1635811Y1548313D1*
X1629070Y1554070D1*
X1623313Y1560811D1*
X1622841Y1561516D1*
X1052274Y1561523D1*
X1046343Y1556403D1*
X1040123Y1552591D1*
X1033383Y1549799D1*
X1026289Y1548096D1*
X1019016Y1547524D1*
X1011743Y1548096D1*
X1004649Y1549799D1*
X997909Y1552591D1*
X991688Y1556403D1*
X986141Y1561141D1*
X981403Y1566688D1*
X977591Y1572909D1*
X974799Y1579649D1*
X973096Y1586743D1*
X972524Y1594016D1*
X973096Y1601289D1*
X974799Y1608383D1*
X977591Y1615123D1*
X981403Y1621343D1*
X986141Y1626891D1*
X991688Y1631629D1*
X997909Y1635441D1*
X1004649Y1638232D1*
X1011743Y1639935D1*
X1019016Y1640508D1*
X1026289Y1639935D1*
X1033383Y1638232D1*
X1040123Y1635441D1*
X1046343Y1631629D1*
X1052249Y1626503D1*
X1622767Y1626508D1*
X1629070Y1633962D1*
X1635811Y1639719D1*
X1643369Y1644351D1*
X1651559Y1647743D1*
X1660178Y1649812D1*
X1669016Y1650508D1*
X1677853Y1649812D1*
X1686473Y1647743D1*
X1694663Y1644351D1*
X1702221Y1639719D1*
X1708962Y1633962D1*
X1714719Y1627221D1*
X1719003Y1620282D1*
X1723313Y1627221D1*
X1729070Y1633962D1*
X1735811Y1639719D1*
X1743369Y1644351D1*
X1751559Y1647743D1*
X1760178Y1649812D1*
X1769016Y1650508D1*
X1777853Y1649812D1*
X1786473Y1647743D1*
X1794663Y1644351D1*
X1802221Y1639719D1*
X1808962Y1633962D1*
X1814719Y1627221D1*
X1819351Y1619663D1*
X1822743Y1611473D1*
X1824812Y1602853D1*
X1825508Y1594016D1*
X1824812Y1585178D1*
X1822743Y1576559D1*
X1819351Y1568369D1*
X1814719Y1560811D1*
X1808962Y1554070D1*
X1802221Y1548313D1*
X1795282Y1544028D1*
X1802221Y1539719D1*
X1808962Y1533962D1*
X1814719Y1527221D1*
X1819351Y1519663D1*
X1822743Y1511473D1*
X1824812Y1502853D1*
X1825508Y1494016D1*
X1824812Y1485178D1*
X1822743Y1476559D1*
X1819351Y1468369D1*
X1814719Y1460811D1*
X1808962Y1454070D1*
X1802221Y1448313D1*
X1795282Y1444028D1*
X1802221Y1439719D1*
X1808962Y1433962D1*
X1814719Y1427221D1*
X1819351Y1419663D1*
X1822743Y1411473D1*
X1824812Y1402853D1*
X1825508Y1394016D1*
X1824812Y1385178D1*
X1822743Y1376559D1*
X1819351Y1368369D1*
X1814719Y1360811D1*
X1808962Y1354070D1*
X1802221Y1348313D1*
X1795282Y1344028D1*
X1802221Y1339719D1*
X1808962Y1333962D1*
X1814719Y1327221D1*
X1819351Y1319663D1*
X1822743Y1311473D1*
X1824812Y1302853D1*
X1825508Y1294016D1*
X1824812Y1285178D1*
X1822743Y1276559D1*
X1819351Y1268369D1*
X1814719Y1260811D1*
X1808962Y1254070D1*
X1802221Y1248313D1*
X1795282Y1244028D1*
X1802221Y1239719D1*
X1808962Y1233962D1*
X1814719Y1227221D1*
X1819351Y1219663D1*
X1822743Y1211473D1*
X1824812Y1202853D1*
X1825508Y1194016D1*
X1824812Y1185178D1*
X1822743Y1176559D1*
X1819351Y1168369D1*
X1814719Y1160811D1*
X1808962Y1154070D1*
X1802221Y1148313D1*
X1795282Y1144028D1*
X1802221Y1139719D1*
X1808962Y1133962D1*
X1814719Y1127221D1*
X1819351Y1119663D1*
X1822743Y1111473D1*
X1824812Y1102853D1*
X1825508Y1094016D1*
X1824812Y1085178D1*
X1822743Y1076559D1*
X1819351Y1068369D1*
X1814719Y1060811D1*
X1808962Y1054070D1*
X1802221Y1048313D1*
X1795282Y1044028D1*
X1802221Y1039719D1*
X1808962Y1033962D1*
X1814719Y1027221D1*
X1819351Y1019663D1*
X1822743Y1011473D1*
X1824812Y1002853D1*
X1825508Y994016D1*
X1824812Y985178D1*
X1822743Y976559D1*
X1819351Y968369D1*
X1814719Y960811D1*
X1808962Y954070D1*
X1802221Y948313D1*
X1795282Y944028D1*
X1802221Y939719D1*
X1808962Y933962D1*
X1814719Y927221D1*
X1819351Y919663D1*
X1822743Y911473D1*
X1824812Y902853D1*
X1825508Y894016D1*
X1824812Y885178D1*
X1822743Y876559D1*
X1819351Y868369D1*
X1814719Y860811D1*
X1808962Y854070D1*
X1802221Y848313D1*
X1795282Y844028D1*
X1802221Y839719D1*
X1808962Y833962D1*
X1814719Y827221D1*
X1819351Y819663D1*
X1822743Y811473D1*
X1824812Y802853D1*
X1825508Y794016D1*
X1824812Y785178D1*
X1822743Y776559D1*
X1819351Y768369D1*
X1814719Y760811D1*
X1808962Y754070D1*
X1802221Y748313D1*
X1795282Y744028D1*
X1802221Y739719D1*
X1808962Y733962D1*
X1814719Y727221D1*
X1819351Y719663D1*
X1822743Y711473D1*
X1824812Y702853D1*
X1825508Y694016D1*
X1824812Y685178D1*
X1822743Y676559D1*
X1819351Y668369D1*
X1814719Y660811D1*
X1808962Y654070D1*
X1802221Y648313D1*
X1795282Y644028D1*
X1802221Y639719D1*
X1808962Y633962D1*
X1814719Y627221D1*
X1819351Y619663D1*
X1822743Y611473D1*
X1824812Y602853D1*
X1825508Y594016D1*
X1824812Y585178D1*
X1822743Y576559D1*
X1819351Y568369D1*
X1814719Y560811D1*
X1808962Y554070D1*
X1802221Y548313D1*
X1795282Y544028D1*
X1802221Y539719D1*
X1808962Y533962D1*
X1814719Y527221D1*
X1819351Y519663D1*
X1822743Y511473D1*
X1824812Y502853D1*
X1825508Y494016D1*
X1824812Y485178D1*
X1822743Y476559D1*
X1819351Y468369D1*
X1814719Y460811D1*
X1808962Y454070D1*
X1802221Y448313D1*
X1798576Y445877D1*
X4802896Y445886D1*
X5018462Y465483D1*
X5273146Y504664D1*
X5468972Y563411D1*
X5586067Y602443D1*
X5781727Y700272D1*
X5977496Y817737D1*
X6153433Y954578D1*
X6290142Y1091285D1*
X6427180Y1267477D1*
X6544602Y1443612D1*
X6661966Y1678340D1*
X6740154Y1912903D1*
X6798907Y2226249D1*
X6818472Y2558854D1*
X6779370Y2832554D1*
X6701122Y3145548D1*
X6544642Y3458512D1*
X6329251Y3771810D1*
X6094571Y4006491D1*
X5820859Y4202000D1*
X5468482Y4358614D1*
X5194803Y4436808D1*
X4802841Y4476004D1*
X536225D1*
X445902Y4403769D1*
X445886Y517298D1*
X517306Y445883D1*
X739452Y445886D1*
X732327Y451059D1*
X726059Y457327D1*
X720848Y464499D1*
X716824Y472397D1*
X714085Y480828D1*
X713119Y486022D1*
X653887Y545418D1*
X650535Y550031D1*
X647947Y555111D1*
X646185Y560534D1*
X645293Y566165D1*
X645181Y614948D1*
Y2253958D1*
X491387Y2407918D1*
X488035Y2412531D1*
X485447Y2417611D1*
X483685Y2423034D1*
X482793Y2428665D1*
X482681Y2468871D1*
X475228Y2475228D1*
X468917Y2482617D1*
X463840Y2490902D1*
X460121Y2499880D1*
X457853Y2509329D1*
X457091Y2519016D1*
X457853Y2528703D1*
X460121Y2538152D1*
X463840Y2547129D1*
X468917Y2555414D1*
X475228Y2562803D1*
X482617Y2569114D1*
X490902Y2574192D1*
X499880Y2577910D1*
X509329Y2580179D1*
X519016Y2580941D1*
X528703Y2580179D1*
X538152Y2577910D1*
X547129Y2574192D1*
X551123Y2571955D1*
X577761Y2598606D1*
X577760Y2657124D1*
X457091Y2657090D1*
Y2780941D1*
X577776D1*
X577760Y2901926D1*
X475145Y3004722D1*
X471339Y3009960D1*
X468400Y3015728D1*
X466400Y3021885D1*
X465387Y3028279D1*
X465260Y3068261D1*
X465387Y3609753D1*
X466400Y3616147D1*
X468400Y3622304D1*
X471339Y3628072D1*
X475144Y3633309D1*
X503326Y3661671D1*
X654722Y3812887D1*
X659960Y3816692D1*
X665728Y3819631D1*
X671885Y3821632D1*
X678279Y3822644D1*
X718261Y3822772D1*
X2039409D1*
X2477756Y4261101D1*
X2477760Y4325509D1*
X2473424Y4330077D1*
X2467894Y4337688D1*
X2463623Y4346071D1*
X2460716Y4355019D1*
X2459244Y4364312D1*
Y4373720D1*
X2460716Y4383012D1*
X2463623Y4391960D1*
X2467894Y4400343D1*
X2473424Y4407955D1*
X2480077Y4414607D1*
X2487688Y4420137D1*
X2496071Y4424409D1*
X2505019Y4427316D1*
X2514312Y4428788D1*
X2523720D1*
X2533012Y4427316D1*
X2541960Y4424409D1*
X2550343Y4420137D1*
X2557955Y4414607D1*
X2559048Y4413596D1*
X2559059Y4428972D1*
X2568245D1*
X828154Y3138681D2*
X828964Y3149004D1*
X831377Y3159053D1*
X835332Y3168602D1*
X840732Y3177414D1*
X847444Y3185272D1*
X855303Y3191984D1*
X864115Y3197384D1*
X873663Y3201339D1*
X883713Y3203752D1*
X894016Y3204563D1*
X904319Y3203752D1*
X914368Y3201339D1*
X923917Y3197384D1*
X932729Y3191984D1*
X940587Y3185272D1*
X947299Y3177414D1*
X952699Y3168602D1*
X956654Y3159053D1*
X959067Y3149004D1*
X959878Y3138701D1*
X959675Y3094163D1*
X958058Y3083955D1*
X954864Y3074126D1*
X950173Y3064918D1*
X944098Y3056557D1*
X936790Y3049249D1*
X928429Y3043174D1*
X919220Y3038482D1*
X909391Y3035288D1*
X899183Y3033672D1*
X888848D1*
X878641Y3035288D1*
X868811Y3038482D1*
X859603Y3043174D1*
X851242Y3049249D1*
X843934Y3056557D1*
X837859Y3064918D1*
X833167Y3074126D1*
X829973Y3083955D1*
X828357Y3094163D1*
X828154Y3117703D1*
Y3138608D1*
X756241Y2868115D2*
X745917Y2868925D1*
X735868Y2871338D1*
X726320Y2875293D1*
X717508Y2880693D1*
X709649Y2887405D1*
X702937Y2895264D1*
X697537Y2904076D1*
X693582Y2913624D1*
X691169Y2923673D1*
X690358Y2933976D1*
X691169Y2944279D1*
X693582Y2954329D1*
X697537Y2963877D1*
X702937Y2972689D1*
X709649Y2980548D1*
X717508Y2987260D1*
X726320Y2992660D1*
X735868Y2996615D1*
X745917Y2999028D1*
X756241Y2999838D1*
X800758Y2999636D1*
X810966Y2998019D1*
X820795Y2994825D1*
X830003Y2990133D1*
X838365Y2984058D1*
X845673Y2976750D1*
X851747Y2968389D1*
X856439Y2959181D1*
X859633Y2949352D1*
X861250Y2939144D1*
Y2928809D1*
X859633Y2918601D1*
X856439Y2908772D1*
X851747Y2899563D1*
X845673Y2891202D1*
X838365Y2883894D1*
X830003Y2877820D1*
X820795Y2873128D1*
X810966Y2869934D1*
X800758Y2868317D1*
X777218Y2868114D1*
X756221Y2868150D1*
X1066723Y558833D2*
X1065446Y550774D1*
X1062925Y543013D1*
X1059220Y535743D1*
X1054424Y529141D1*
X1048654Y523371D1*
X1042053Y518575D1*
X1034782Y514870D1*
X1027021Y512349D1*
X1018962Y511072D1*
X1010802D1*
X1002742Y512349D1*
X994982Y514870D1*
X987711Y518575D1*
X981110Y523371D1*
X975340Y529141D1*
X970543Y535743D1*
X966839Y543013D1*
X964317Y550774D1*
X963041Y558833D1*
Y566993D1*
X964317Y575053D1*
X966839Y582813D1*
X970543Y590084D1*
X975340Y596686D1*
X981110Y602455D1*
X987711Y607252D1*
X994982Y610956D1*
X1002742Y613478D1*
X1010802Y614754D1*
X1018962D1*
X1027021Y613478D1*
X1034782Y610956D1*
X1042053Y607252D1*
X1048654Y602455D1*
X1054424Y596686D1*
X1059220Y590084D1*
X1062925Y582813D1*
X1065446Y575053D1*
X1066723Y566993D1*
Y558833D1*
X1381684D2*
X1380407Y550774D1*
X1377885Y543013D1*
X1374181Y535743D1*
X1369385Y529141D1*
X1363615Y523371D1*
X1357013Y518575D1*
X1349743Y514870D1*
X1341982Y512349D1*
X1333922Y511072D1*
X1325763D1*
X1317703Y512349D1*
X1309942Y514870D1*
X1302672Y518575D1*
X1296070Y523371D1*
X1290300Y529141D1*
X1285504Y535743D1*
X1281800Y543013D1*
X1279278Y550774D1*
X1278002Y558833D1*
Y566993D1*
X1279278Y575053D1*
X1281800Y582813D1*
X1285504Y590084D1*
X1290300Y596686D1*
X1296070Y602455D1*
X1302672Y607252D1*
X1309942Y610956D1*
X1317703Y613478D1*
X1325763Y614754D1*
X1333922D1*
X1341982Y613478D1*
X1349743Y610956D1*
X1357013Y607252D1*
X1363615Y602455D1*
X1369385Y596686D1*
X1374181Y590084D1*
X1377885Y582813D1*
X1380407Y575053D1*
X1381684Y566993D1*
Y558833D1*
X1022576Y4046255D2*
X1021577Y4037125D1*
X1019919Y4028092D1*
X1017610Y4019202D1*
X1014661Y4010504D1*
X1011090Y4002043D1*
X1006913Y3993863D1*
X1002154Y3986008D1*
X996838Y3978518D1*
X990993Y3971434D1*
X984648Y3964793D1*
X977839Y3958630D1*
X970600Y3952978D1*
X962971Y3947865D1*
X954990Y3943319D1*
X946701Y3939365D1*
X938146Y3936022D1*
X929372Y3933309D1*
X920424Y3931240D1*
X911349Y3929825D1*
X902195Y3929073D1*
X893011Y3928987D1*
X883845Y3929567D1*
X874746Y3930811D1*
X865760Y3932712D1*
X856936Y3935260D1*
X848321Y3938442D1*
X839959Y3942240D1*
X831894Y3946635D1*
X824170Y3951604D1*
X816826Y3957120D1*
X809903Y3963154D1*
X803435Y3969675D1*
X797457Y3976647D1*
X792001Y3984036D1*
X787096Y3991800D1*
X782767Y3999900D1*
X779037Y4008293D1*
X775926Y4016935D1*
X773450Y4025779D1*
X771623Y4034780D1*
X770453Y4043889D1*
X769947Y4053060D1*
X770109Y4062243D1*
X770936Y4071390D1*
X772424Y4080452D1*
X774566Y4089383D1*
X777351Y4098135D1*
X780763Y4106662D1*
X784786Y4114919D1*
X789396Y4122862D1*
X794571Y4130450D1*
X800283Y4137642D1*
X806501Y4144401D1*
X813194Y4150691D1*
X820325Y4156479D1*
X827857Y4161734D1*
X835751Y4166428D1*
X843965Y4170537D1*
X852455Y4174040D1*
X861177Y4176917D1*
X870085Y4179154D1*
X879132Y4180739D1*
X888269Y4181663D1*
X897450Y4181921D1*
X906625Y4181513D1*
X915747Y4180440D1*
X924766Y4178708D1*
X933636Y4176326D1*
X942310Y4173306D1*
X950742Y4169666D1*
X958888Y4165423D1*
X966704Y4160600D1*
X974149Y4155223D1*
X981185Y4149319D1*
X987774Y4142921D1*
X993882Y4136062D1*
X999475Y4128777D1*
X1004525Y4121106D1*
X1009006Y4113088D1*
X1012892Y4104767D1*
X1016165Y4096186D1*
X1018806Y4087389D1*
X1020802Y4078424D1*
X1022143Y4069338D1*
X1022909Y4055433D1*
X1022576Y4046255D1*
X2320044Y688844D2*
X2289593Y660700D1*
X2278443Y653938D1*
X2148174Y578822D1*
X2135799Y574711D1*
X2104897Y565264D1*
X2100781Y564676D1*
X2096617Y564739D1*
X2054124Y571184D1*
X2050161Y572439D1*
X2046436Y574303D1*
X2010947Y598546D1*
X2007921Y601396D1*
X2005374Y604692D1*
X1983919Y641934D1*
X1982429Y645815D1*
X1981564Y649889D1*
X1978397Y692155D1*
X1978645Y696305D1*
X1979540Y700365D1*
X1994626Y739028D1*
X1996444Y742766D1*
X1998824Y746175D1*
X2008002Y755017D1*
X2031746Y776938D1*
X2042896Y783700D1*
X2173164Y858816D1*
X2185539Y862927D1*
X2216442Y872374D1*
X2220557Y872962D1*
X2224722Y872899D1*
X2240346Y870586D1*
X2211226Y906735D1*
X2183639Y949382D1*
X2160660Y994679D1*
X2142543Y1042130D1*
X2129484Y1091213D1*
X2121627Y1141395D1*
X2119059Y1192120D1*
X2121807Y1242837D1*
X2129842Y1292990D1*
X2143075Y1342028D1*
X2161361Y1389413D1*
X2184501Y1434629D1*
X2212239Y1477177D1*
X2244274Y1516593D1*
X2280252Y1552444D1*
X2319781Y1584338D1*
X2360234Y1610621D1*
X2499551Y1691056D1*
X2544104Y1713643D1*
X2591553Y1731761D1*
X2640639Y1744820D1*
X2690818Y1752676D1*
X2741544Y1755244D1*
X2792262Y1752496D1*
X2842414Y1744462D1*
X2891452Y1731228D1*
X2938837Y1712943D1*
X2984052Y1689804D1*
X3026601Y1662065D1*
X3066016Y1630031D1*
X3101868Y1594052D1*
X3133762Y1554522D1*
X3161349Y1511875D1*
X3184327Y1466579D1*
X3202445Y1419129D1*
X3215503Y1370044D1*
X3223360Y1319864D1*
X3225928Y1269138D1*
X3223059Y1217588D1*
X3215145Y1168268D1*
X3201912Y1119231D1*
X3183626Y1071845D1*
X3160486Y1026630D1*
X3132748Y984083D1*
X3100713Y944667D1*
X3064734Y908816D1*
X3025206Y876922D1*
X2984753Y850638D1*
X2845438Y770201D1*
X2800886Y747615D1*
X2753437Y729496D1*
X2704351Y716438D1*
X2654171Y708581D1*
X2603444Y706013D1*
X2552727Y708761D1*
X2502574Y716796D1*
X2453536Y730029D1*
X2406151Y748315D1*
X2360226Y771903D1*
X2340032Y785017D1*
X2342946Y744888D1*
X2342604Y740745D1*
X2341616Y736699D1*
X2325877Y696705D1*
X2323771Y693121D1*
X2321125Y689904D1*
X2320044Y1712466D2*
X2289593Y1684322D1*
X2278443Y1677560D1*
X2148174Y1602444D1*
X2135799Y1598333D1*
X2104897Y1588886D1*
X2100781Y1588298D1*
X2096617Y1588361D1*
X2054124Y1594806D1*
X2050161Y1596061D1*
X2046436Y1597925D1*
X2010947Y1622168D1*
X2007921Y1625018D1*
X2005374Y1628314D1*
X1983919Y1665556D1*
X1982429Y1669437D1*
X1981564Y1673511D1*
X1978393Y1716372D1*
X1978734Y1720515D1*
X1979723Y1724561D1*
X1995462Y1764555D1*
X1997567Y1768139D1*
X2000213Y1771356D1*
X2031746Y1800560D1*
X2042896Y1807322D1*
X2173164Y1882438D1*
X2185539Y1886549D1*
X2216442Y1895996D1*
X2220557Y1896584D1*
X2224722Y1896521D1*
X2267214Y1890076D1*
X2271178Y1888821D1*
X2274902Y1886957D1*
X2309924Y1863081D1*
X2313014Y1860299D1*
X2315630Y1857068D1*
X2336451Y1821167D1*
X2338241Y1817415D1*
X2339421Y1813429D1*
X2340613Y1800740D1*
X2342946Y1768510D1*
X2342605Y1764367D1*
X2341616Y1760321D1*
X2325877Y1720327D1*
X2323771Y1716743D1*
X2321125Y1713526D1*
X3343666Y688844D2*
X3313446Y660885D1*
X3310020Y658531D1*
X3171796Y578822D1*
X3159421Y574711D1*
X3128519Y565264D1*
X3124403Y564675D1*
X3120239Y564739D1*
X3077746Y571184D1*
X3073783Y572439D1*
X3070058Y574303D1*
X3034569Y598546D1*
X3031543Y601396D1*
X3028996Y604692D1*
X3007541Y641934D1*
X3006051Y645815D1*
X3005186Y649889D1*
X3002015Y692750D1*
X3002356Y696893D1*
X3003345Y700939D1*
X3019084Y740933D1*
X3021189Y744517D1*
X3023835Y747734D1*
X3055368Y776938D1*
X3066518Y783700D1*
X3196787Y858816D1*
X3209161Y862927D1*
X3240064Y872374D1*
X3244179Y872962D1*
X3248344Y872899D1*
X3290837Y866454D1*
X3294800Y865199D1*
X3298524Y863335D1*
X3334013Y839092D1*
X3337039Y836242D1*
X3339587Y832946D1*
X3361041Y795704D1*
X3362531Y791823D1*
X3363396Y787749D1*
X3366568Y744888D1*
X3366226Y740745D1*
X3365238Y736699D1*
X3349499Y696705D1*
X3347393Y693121D1*
X3344747Y689904D1*
X2803639Y4006885D2*
X2802640Y3997755D1*
X2800982Y3988721D1*
X2798673Y3979832D1*
X2795724Y3971134D1*
X2792153Y3962673D1*
X2787976Y3954493D1*
X2783217Y3946637D1*
X2777901Y3939148D1*
X2772056Y3932064D1*
X2765711Y3925423D1*
X2758902Y3919260D1*
X2751663Y3913607D1*
X2744034Y3908495D1*
X2736053Y3903949D1*
X2727764Y3899995D1*
X2719209Y3896652D1*
X2710435Y3893939D1*
X2701487Y3891870D1*
X2692412Y3890455D1*
X2683258Y3889703D1*
X2674074Y3889617D1*
X2664908Y3890197D1*
X2655809Y3891441D1*
X2646823Y3893342D1*
X2637999Y3895890D1*
X2629384Y3899072D1*
X2621022Y3902870D1*
X2612957Y3907265D1*
X2605233Y3912234D1*
X2597889Y3917749D1*
X2590966Y3923784D1*
X2584498Y3930305D1*
X2578520Y3937277D1*
X2573064Y3944666D1*
X2568159Y3952430D1*
X2563830Y3960530D1*
X2560100Y3968923D1*
X2556989Y3977565D1*
X2554513Y3986409D1*
X2552686Y3995410D1*
X2551516Y4004519D1*
X2551010Y4013690D1*
X2551172Y4022872D1*
X2551999Y4032019D1*
X2553487Y4041082D1*
X2555629Y4050013D1*
X2558414Y4058765D1*
X2561826Y4067292D1*
X2565848Y4075549D1*
X2570459Y4083492D1*
X2575634Y4091080D1*
X2581346Y4098272D1*
X2587564Y4105031D1*
X2594257Y4111321D1*
X2601388Y4117109D1*
X2608920Y4122363D1*
X2616814Y4127058D1*
X2625028Y4131167D1*
X2633518Y4134670D1*
X2642240Y4137547D1*
X2651148Y4139784D1*
X2660195Y4141368D1*
X2669332Y4142292D1*
X2678513Y4142551D1*
X2687688Y4142143D1*
X2696810Y4141070D1*
X2705829Y4139337D1*
X2714699Y4136956D1*
X2723373Y4133936D1*
X2731805Y4130296D1*
X2739951Y4126053D1*
X2747767Y4121230D1*
X2755212Y4115853D1*
X2762248Y4109949D1*
X2768837Y4103551D1*
X2774945Y4096692D1*
X2780538Y4089407D1*
X2785588Y4081736D1*
X2790069Y4073718D1*
X2793955Y4065397D1*
X2797228Y4056816D1*
X2799869Y4048019D1*
X2801865Y4039054D1*
X2803206Y4029968D1*
X2803972Y4016063D1*
X2803639Y4006885D1*
X4967495Y2451763D2*
X4966726Y2442610D1*
X4965446Y2433515D1*
X4963660Y2424505D1*
X4961373Y2415609D1*
X4958592Y2406855D1*
X4955327Y2398270D1*
X4951587Y2389881D1*
X4947384Y2381714D1*
X4942731Y2373794D1*
X4937643Y2366147D1*
X4932135Y2358796D1*
X4926225Y2351765D1*
X4919931Y2345075D1*
X4913274Y2338747D1*
X4906273Y2332801D1*
X4898951Y2327256D1*
X4891330Y2322128D1*
X4883434Y2317435D1*
X4875289Y2313190D1*
X4866919Y2309407D1*
X4858351Y2306097D1*
X4849611Y2303272D1*
X4840727Y2300939D1*
X4831727Y2299107D1*
X4822638Y2297780D1*
X4813489Y2296964D1*
X4804309Y2296660D1*
X4795126Y2296869D1*
X4785969Y2297592D1*
X4776867Y2298825D1*
X4767848Y2300565D1*
X4758941Y2302806D1*
X4750173Y2305541D1*
X4741571Y2308762D1*
X4733162Y2312459D1*
X4724974Y2316620D1*
X4717031Y2321233D1*
X4709358Y2326282D1*
X4701979Y2331751D1*
X4694917Y2337625D1*
X4688195Y2343884D1*
X4681833Y2350509D1*
X4675851Y2357480D1*
X4670268Y2364773D1*
X4665101Y2372368D1*
X4660367Y2380239D1*
X4656080Y2388362D1*
X4652254Y2396712D1*
X4648901Y2405264D1*
X4646031Y2413989D1*
X4643652Y2422861D1*
X4641774Y2431852D1*
X4640400Y2440934D1*
X4639537Y2450078D1*
X4639186Y2459257D1*
X4639348Y2468440D1*
X4640024Y2477601D1*
X4641210Y2486709D1*
X4642903Y2495736D1*
X4645099Y2504655D1*
X4647789Y2513438D1*
X4650966Y2522056D1*
X4654620Y2530483D1*
X4658739Y2538693D1*
X4663310Y2546660D1*
X4668319Y2554359D1*
X4673751Y2561766D1*
X4679589Y2568857D1*
X4685813Y2575612D1*
X4692405Y2582008D1*
X4699345Y2588025D1*
X4706610Y2593646D1*
X4714177Y2598851D1*
X4722024Y2603626D1*
X4730125Y2607954D1*
X4738456Y2611823D1*
X4746990Y2615220D1*
X4755700Y2618136D1*
X4764560Y2620559D1*
X4773541Y2622484D1*
X4782616Y2623904D1*
X4791756Y2624814D1*
X4800932Y2625213D1*
X4810117Y2625098D1*
X4819280Y2624469D1*
X4828394Y2623330D1*
X4837431Y2621683D1*
X4846361Y2619533D1*
X4855157Y2616888D1*
X4863791Y2613755D1*
X4872237Y2610145D1*
X4880468Y2606068D1*
X4888458Y2601538D1*
X4896183Y2596568D1*
X4903617Y2591175D1*
X4910739Y2585374D1*
X4917525Y2579184D1*
X4923955Y2572625D1*
X4930008Y2565716D1*
X4935666Y2558480D1*
X4940910Y2550940D1*
X4945725Y2543117D1*
X4950095Y2535038D1*
X4954007Y2526728D1*
X4957448Y2518212D1*
X4960408Y2509516D1*
X4962877Y2500669D1*
X4964848Y2491698D1*
X4966314Y2482631D1*
X4967272Y2473496D1*
X4967752Y2460945D1*
X4967495Y2451763D1*
X621565Y976289D2*
X620576Y970048D1*
X618623Y964038D1*
X615755Y958407D1*
X612040Y953294D1*
X607572Y948826D1*
X602459Y945112D1*
X596829Y942243D1*
X590819Y940290D1*
X584577Y939301D1*
X578258D1*
X572016Y940290D1*
X566006Y942243D1*
X560375Y945112D1*
X555263Y948826D1*
X550795Y953294D1*
X547080Y958407D1*
X544027Y964536D1*
X540951Y958407D1*
X537237Y953294D1*
X532769Y948826D1*
X527656Y945112D1*
X522025Y942243D1*
X516015Y940290D1*
X509774Y939301D1*
X503454D1*
X497213Y940290D1*
X491203Y942243D1*
X485572Y945112D1*
X480460Y948826D1*
X475991Y953294D1*
X472277Y958407D1*
X469408Y964038D1*
X467455Y970048D1*
X466467Y976289D1*
Y982608D1*
X467455Y988850D1*
X469408Y994860D1*
X472277Y1000491D1*
X475991Y1005603D1*
X480460Y1010072D1*
X485572Y1013786D1*
X491203Y1016655D1*
X497213Y1018608D1*
X503454Y1019596D1*
X509774D1*
X516015Y1018608D1*
X522025Y1016655D1*
X527656Y1013786D1*
X532769Y1010072D1*
X537237Y1005603D1*
X540951Y1000491D1*
X544004Y994362D1*
X547080Y1000491D1*
X550795Y1005603D1*
X555263Y1010072D1*
X560375Y1013786D1*
X566006Y1016655D1*
X572016Y1018608D1*
X578258Y1019596D1*
X584577D1*
X590819Y1018608D1*
X596829Y1016655D1*
X602459Y1013786D1*
X607572Y1010072D1*
X612040Y1005603D1*
X615755Y1000491D1*
X618623Y994860D1*
X620576Y988850D1*
X621565Y982608D1*
Y976289D1*
Y1530423D2*
X620576Y1524181D1*
X618623Y1518171D1*
X615755Y1512541D1*
X612040Y1507428D1*
X607572Y1502960D1*
X602459Y1499245D1*
X596829Y1496377D1*
X590819Y1494424D1*
X584577Y1493435D1*
X578258D1*
X572016Y1494424D1*
X566006Y1496377D1*
X560375Y1499245D1*
X555263Y1502960D1*
X550795Y1507428D1*
X547080Y1512541D1*
X544027Y1518670D1*
X540951Y1512541D1*
X537237Y1507428D1*
X532769Y1502960D1*
X527656Y1499245D1*
X522025Y1496377D1*
X516015Y1494424D1*
X509774Y1493435D1*
X503454D1*
X497213Y1494424D1*
X491203Y1496377D1*
X485572Y1499245D1*
X480460Y1502960D1*
X475991Y1507428D1*
X472277Y1512541D1*
X469408Y1518171D1*
X467455Y1524181D1*
X466467Y1530423D1*
Y1536742D1*
X467455Y1542984D1*
X469408Y1548994D1*
X472277Y1554625D1*
X475991Y1559737D1*
X480460Y1564205D1*
X485572Y1567920D1*
X491203Y1570789D1*
X497213Y1572742D1*
X503454Y1573730D1*
X509774D1*
X516015Y1572742D1*
X522025Y1570789D1*
X527656Y1567920D1*
X532769Y1564205D1*
X537237Y1559737D1*
X540951Y1554625D1*
X544004Y1548496D1*
X547080Y1554625D1*
X550795Y1559737D1*
X555263Y1564205D1*
X560375Y1567920D1*
X566006Y1570789D1*
X572016Y1572742D1*
X578258Y1573730D1*
X584577D1*
X590819Y1572742D1*
X596829Y1570789D1*
X602459Y1567920D1*
X607572Y1564205D1*
X612040Y1559737D1*
X615755Y1554625D1*
X618623Y1548994D1*
X620576Y1542984D1*
X621565Y1536742D1*
Y1530423D1*
Y2105423D2*
X620576Y2099181D1*
X618623Y2093171D1*
X615755Y2087541D1*
X612040Y2082428D1*
X607572Y2077960D1*
X602459Y2074245D1*
X596829Y2071377D1*
X590819Y2069424D1*
X584577Y2068435D1*
X578258D1*
X572016Y2069424D1*
X566006Y2071377D1*
X560375Y2074245D1*
X555263Y2077960D1*
X550795Y2082428D1*
X547080Y2087541D1*
X544027Y2093670D1*
X540951Y2087541D1*
X537237Y2082428D1*
X532769Y2077960D1*
X527656Y2074245D1*
X522025Y2071377D1*
X516015Y2069424D1*
X509774Y2068435D1*
X503454D1*
X497213Y2069424D1*
X491203Y2071377D1*
X485572Y2074245D1*
X480460Y2077960D1*
X475991Y2082428D1*
X472277Y2087541D1*
X469408Y2093171D1*
X467455Y2099181D1*
X466467Y2105423D1*
Y2111742D1*
X467455Y2117984D1*
X469408Y2123994D1*
X472277Y2129625D1*
X475991Y2134737D1*
X480460Y2139205D1*
X485572Y2142920D1*
X491203Y2145789D1*
X497213Y2147742D1*
X503454Y2148730D1*
X509774D1*
X516015Y2147742D1*
X522025Y2145789D1*
X527656Y2142920D1*
X532769Y2139205D1*
X537237Y2134737D1*
X540951Y2129625D1*
X544004Y2123496D1*
X547080Y2129625D1*
X550795Y2134737D1*
X555263Y2139205D1*
X560375Y2142920D1*
X566006Y2145789D1*
X572016Y2147742D1*
X578258Y2148730D1*
X584577D1*
X590819Y2147742D1*
X596829Y2145789D1*
X602459Y2142920D1*
X607572Y2139205D1*
X612040Y2134737D1*
X615755Y2129625D1*
X618623Y2123994D1*
X620576Y2117984D1*
X621565Y2111742D1*
Y2105423D1*
X717847Y2217853D2*
X720848Y2223533D1*
X726059Y2230704D1*
X732327Y2236973D1*
X739499Y2242183D1*
X742749Y2244003D1*
X735811Y2248313D1*
X729070Y2254070D1*
X723313Y2260811D1*
X718681Y2268369D1*
X717832Y2270210D1*
X717850Y2217953D1*
X1719003Y1767749D2*
X1714719Y1760811D1*
X1708962Y1754070D1*
X1702221Y1748313D1*
X1694663Y1743681D1*
X1686473Y1740289D1*
X1677853Y1738219D1*
X1669016Y1737524D1*
X1660178Y1738219D1*
X1651559Y1740289D1*
X1643369Y1743681D1*
X1635811Y1748313D1*
X1629070Y1754070D1*
X1623313Y1760811D1*
X1618681Y1768369D1*
X1615289Y1776559D1*
X1613219Y1785178D1*
X1612524Y1794016D1*
X1613219Y1802853D1*
X1615289Y1811473D1*
X1618681Y1819663D1*
X1623313Y1827221D1*
X1629070Y1833962D1*
X1635811Y1839719D1*
X1642749Y1844003D1*
X1635811Y1848313D1*
X1629070Y1854070D1*
X1623313Y1860811D1*
X1618681Y1868369D1*
X1615289Y1876559D1*
X1613219Y1885178D1*
X1612524Y1894016D1*
X1613219Y1902853D1*
X1615289Y1911473D1*
X1618681Y1919663D1*
X1623313Y1927221D1*
X1629070Y1933962D1*
X1635811Y1939719D1*
X1642749Y1944003D1*
X1635811Y1948313D1*
X1629070Y1954070D1*
X1623313Y1960811D1*
X1618681Y1968369D1*
X1615289Y1976559D1*
X1613219Y1985178D1*
X1612524Y1994016D1*
X1613219Y2002853D1*
X1615289Y2011473D1*
X1618681Y2019663D1*
X1623313Y2027221D1*
X1629070Y2033962D1*
X1635811Y2039719D1*
X1642749Y2044003D1*
X1635811Y2048313D1*
X1629070Y2054070D1*
X1623313Y2060811D1*
X1618681Y2068369D1*
X1615289Y2076559D1*
X1613219Y2085178D1*
X1612524Y2094016D1*
X1613219Y2102853D1*
X1615307Y2111522D1*
X1357444Y2111524D1*
X1290118Y2044308D1*
X1285993Y2041312D1*
X1281450Y2038997D1*
X1276601Y2037421D1*
X1271565Y2036624D1*
X1204711Y2036523D1*
X977241D1*
X971343Y2031403D1*
X965123Y2027591D1*
X962779Y2026510D1*
X1285763Y2026508D1*
X1291688Y2031629D1*
X1297909Y2035441D1*
X1304649Y2038232D1*
X1311743Y2039935D1*
X1319016Y2040508D1*
X1326289Y2039935D1*
X1333383Y2038232D1*
X1340123Y2035441D1*
X1346343Y2031629D1*
X1351891Y2026891D1*
X1356629Y2021343D1*
X1360441Y2015123D1*
X1363232Y2008383D1*
X1364935Y2001289D1*
X1365508Y1994016D1*
X1364935Y1986743D1*
X1363232Y1979649D1*
X1360441Y1972909D1*
X1356629Y1966688D1*
X1351891Y1961141D1*
X1346343Y1956403D1*
X1340123Y1952591D1*
X1333383Y1949799D1*
X1326289Y1948096D1*
X1319016Y1947524D1*
X1311743Y1948096D1*
X1304649Y1949799D1*
X1297909Y1952591D1*
X1291688Y1956403D1*
X1285783Y1961528D1*
X927268Y1961524D1*
X921343Y1956403D1*
X915123Y1952591D1*
X908383Y1949799D1*
X901289Y1948096D1*
X894016Y1947524D1*
X886743Y1948096D1*
X879649Y1949799D1*
X872909Y1952591D1*
X866688Y1956403D1*
X861141Y1961141D1*
X856403Y1966688D1*
X852591Y1972909D1*
X849799Y1979649D1*
X848096Y1986743D1*
X847524Y1994016D1*
X848096Y2001289D1*
X849799Y2008383D1*
X852591Y2015123D1*
X856403Y2021343D1*
X861141Y2026891D1*
X866688Y2031629D1*
X872909Y2035441D1*
X879649Y2038232D1*
X886743Y2039935D1*
X894016Y2040508D1*
X901289Y2039935D1*
X908383Y2038232D1*
X909573Y2037793D1*
X906403Y2041688D1*
X902591Y2047909D1*
X899799Y2054649D1*
X898096Y2061743D1*
X897524Y2069016D1*
X898096Y2076289D1*
X899799Y2083383D1*
X902591Y2090123D1*
X906403Y2096343D1*
X911141Y2101891D1*
X916688Y2106629D1*
X922909Y2110441D1*
X929649Y2113232D1*
X936743Y2114935D1*
X944016Y2115508D1*
X951289Y2114935D1*
X958383Y2113232D1*
X965123Y2110441D1*
X971343Y2106629D1*
X977249Y2101503D1*
X1255526Y2101508D1*
X1315590Y2161541D1*
X1257460Y2161524D1*
X1253873Y2157922D1*
X1253321Y2150129D1*
X1251618Y2143035D1*
X1248826Y2136295D1*
X1245014Y2130074D1*
X1240276Y2124527D1*
X1234729Y2119789D1*
X1228509Y2115977D1*
X1221768Y2113185D1*
X1214675Y2111482D1*
X1207402Y2110909D1*
X1200129Y2111482D1*
X1193035Y2113185D1*
X1186295Y2115977D1*
X1180074Y2119789D1*
X1174527Y2124527D1*
X1169789Y2130074D1*
X1165977Y2136295D1*
X1163185Y2143035D1*
X1161482Y2150129D1*
X1160909Y2157402D1*
X1161482Y2164675D1*
X1163185Y2171768D1*
X1165977Y2178509D1*
X1169789Y2184729D1*
X1174527Y2190276D1*
X1180074Y2195014D1*
X1186295Y2198826D1*
X1193035Y2201618D1*
X1200129Y2203321D1*
X1207929Y2203873D1*
X1222914Y2218723D1*
X1227039Y2221720D1*
X1231582Y2224035D1*
X1236431Y2225610D1*
X1241466Y2226408D1*
X1308320Y2226508D1*
X1525958D1*
X1523808Y2233162D1*
X1522667Y2240368D1*
Y2247663D1*
X1523808Y2254869D1*
X1526063Y2261808D1*
X1529375Y2268308D1*
X1533663Y2274210D1*
X1538822Y2279369D1*
X1544724Y2283657D1*
X1551224Y2286969D1*
X1558162Y2289223D1*
X1565368Y2290365D1*
X1572663D1*
X1579869Y2289223D1*
X1586808Y2286969D1*
X1593308Y2283657D1*
X1599210Y2279369D1*
X1602249Y2276503D1*
X1998442Y2276508D1*
X2001439Y2280380D1*
X2007652Y2286592D1*
X2014760Y2291757D1*
X2018830Y2294013D1*
X2011104Y2298717D1*
X2004423Y2304423D1*
X1998717Y2311104D1*
X1994126Y2318596D1*
X1990764Y2326713D1*
X1988713Y2335257D1*
X1988024Y2344016D1*
X1988713Y2352775D1*
X1990764Y2361318D1*
X1994126Y2369436D1*
X1998717Y2376927D1*
X2004423Y2383608D1*
X2011104Y2389314D1*
X2018830Y2394013D1*
X2011104Y2398717D1*
X2004423Y2404423D1*
X1998717Y2411104D1*
X1994126Y2418596D1*
X1990764Y2426713D1*
X1988713Y2435257D1*
X1988024Y2444016D1*
X1988713Y2452775D1*
X1990764Y2461318D1*
X1994126Y2469436D1*
X1998717Y2476927D1*
X2004423Y2483608D1*
X2011104Y2489314D1*
X2018830Y2494013D1*
X2011104Y2498717D1*
X2004423Y2504423D1*
X1998440Y2511519D1*
X1916466Y2511624D1*
X1911431Y2512421D1*
X1906582Y2513997D1*
X1902039Y2516312D1*
X1897914Y2519308D1*
X1880537Y2536544D1*
X1789629Y2536524D1*
X1783608Y2529423D1*
X1776927Y2523717D1*
X1769436Y2519126D1*
X1761318Y2515764D1*
X1752775Y2513713D1*
X1744016Y2513024D1*
X1735257Y2513713D1*
X1726713Y2515764D1*
X1718596Y2519126D1*
X1711104Y2523717D1*
X1704423Y2529423D1*
X1698717Y2536104D1*
X1694126Y2543596D1*
X1690764Y2551713D1*
X1688713Y2560257D1*
X1688024Y2569016D1*
X1688713Y2577775D1*
X1690764Y2586318D1*
X1694126Y2594436D1*
X1698717Y2601927D1*
X1704423Y2608608D1*
X1711104Y2614314D1*
X1718830Y2619013D1*
X1711104Y2623717D1*
X1704423Y2629423D1*
X1698717Y2636104D1*
X1694126Y2643596D1*
X1690764Y2651713D1*
X1688713Y2660257D1*
X1688024Y2669016D1*
X1688713Y2677775D1*
X1690764Y2686318D1*
X1694126Y2694436D1*
X1698717Y2701927D1*
X1704423Y2708608D1*
X1711104Y2714314D1*
X1718830Y2719013D1*
X1711104Y2723717D1*
X1704423Y2729423D1*
X1698717Y2736104D1*
X1694126Y2743596D1*
X1690764Y2751713D1*
X1688713Y2760257D1*
X1688024Y2769016D1*
X1688713Y2777775D1*
X1690764Y2786318D1*
X1694126Y2794436D1*
X1698717Y2801927D1*
X1704423Y2808608D1*
X1711104Y2814314D1*
X1718830Y2819013D1*
X1711104Y2823717D1*
X1704423Y2829423D1*
X1698717Y2836104D1*
X1694126Y2843596D1*
X1690764Y2851713D1*
X1688713Y2860257D1*
X1688024Y2869016D1*
X1688713Y2877775D1*
X1690764Y2886318D1*
X1694126Y2894436D1*
X1698717Y2901927D1*
X1704423Y2908608D1*
X1711104Y2914314D1*
X1718830Y2919013D1*
X1711104Y2923717D1*
X1704423Y2929423D1*
X1698717Y2936104D1*
X1694126Y2943596D1*
X1690764Y2951713D1*
X1688713Y2960257D1*
X1688024Y2969016D1*
X1688713Y2977775D1*
X1690764Y2986318D1*
X1694126Y2994436D1*
X1698717Y3001927D1*
X1704423Y3008608D1*
X1711104Y3014314D1*
X1718596Y3018905D1*
X1726713Y3022267D1*
X1735257Y3024319D1*
X1744016Y3025008D1*
X1752775Y3024319D1*
X1761318Y3022267D1*
X1769436Y3018905D1*
X1776927Y3014314D1*
X1783608Y3008608D1*
X1789314Y3001927D1*
X1793905Y2994436D1*
X1797267Y2986318D1*
X1799319Y2977775D1*
X1800008Y2969016D1*
X1799319Y2960257D1*
X1797267Y2951713D1*
X1793905Y2943596D1*
X1789314Y2936104D1*
X1783608Y2929423D1*
X1776927Y2923717D1*
X1769202Y2919019D1*
X1776927Y2914314D1*
X1783608Y2908608D1*
X1789314Y2901927D1*
X1793905Y2894436D1*
X1797267Y2886318D1*
X1799319Y2877775D1*
X1800008Y2869016D1*
X1799319Y2860257D1*
X1797267Y2851713D1*
X1793905Y2843596D1*
X1789314Y2836104D1*
X1783608Y2829423D1*
X1776927Y2823717D1*
X1769202Y2819019D1*
X1776927Y2814314D1*
X1783608Y2808608D1*
X1789314Y2801927D1*
X1793905Y2794436D1*
X1797267Y2786318D1*
X1799319Y2777775D1*
X1800008Y2769016D1*
X1799319Y2760257D1*
X1797267Y2751713D1*
X1793905Y2743596D1*
X1789314Y2736104D1*
X1783608Y2729423D1*
X1776927Y2723717D1*
X1769202Y2719019D1*
X1776927Y2714314D1*
X1783608Y2708608D1*
X1789314Y2701927D1*
X1793905Y2694436D1*
X1797267Y2686318D1*
X1799319Y2677775D1*
X1800008Y2669016D1*
X1799319Y2660257D1*
X1797267Y2651713D1*
X1793905Y2643596D1*
X1789314Y2636104D1*
X1783608Y2629423D1*
X1776927Y2623717D1*
X1769202Y2619019D1*
X1776927Y2614314D1*
X1783608Y2608608D1*
X1789591Y2601513D1*
X1896565Y2601408D1*
X1901601Y2600610D1*
X1906450Y2599035D1*
X1910993Y2596720D1*
X1915118Y2593723D1*
X1932495Y2576488D1*
X1998427Y2576508D1*
X2004423Y2583608D1*
X2011104Y2589314D1*
X2018830Y2594013D1*
X2011104Y2598717D1*
X2004423Y2604423D1*
X1998717Y2611104D1*
X1994126Y2618596D1*
X1990764Y2626713D1*
X1988713Y2635257D1*
X1988024Y2644016D1*
X1988713Y2652775D1*
X1990764Y2661318D1*
X1994126Y2669436D1*
X1998717Y2676927D1*
X2004423Y2683608D1*
X2011104Y2689314D1*
X2018830Y2694013D1*
X2011104Y2698717D1*
X2004423Y2704423D1*
X1998717Y2711104D1*
X1994126Y2718596D1*
X1990764Y2726713D1*
X1988713Y2735257D1*
X1988024Y2744016D1*
X1988713Y2752775D1*
X1990764Y2761318D1*
X1994126Y2769436D1*
X1998717Y2776927D1*
X2004423Y2783608D1*
X2009472Y2788028D1*
X1988024Y2788023D1*
Y2811528D1*
X1928966Y2811624D1*
X1923931Y2812421D1*
X1919082Y2813997D1*
X1914539Y2816312D1*
X1910414Y2819309D1*
X1863070Y2866510D1*
X1831809Y2897914D1*
X1828812Y2902039D1*
X1826497Y2906582D1*
X1824921Y2911431D1*
X1824124Y2916466D1*
X1824024Y2983320D1*
Y3218039D1*
X1780534Y3261547D1*
X1307462Y3261524D1*
X1276520Y3230569D1*
X1276508Y3225033D1*
X1300008Y3225008D1*
Y3113023D1*
X1278657D1*
X1283608Y3108608D1*
X1289314Y3101927D1*
X1293905Y3094436D1*
X1297267Y3086318D1*
X1299319Y3077775D1*
X1300008Y3069016D1*
X1299319Y3060257D1*
X1297267Y3051713D1*
X1293905Y3043596D1*
X1289314Y3036104D1*
X1283608Y3029423D1*
X1276927Y3023717D1*
X1269202Y3019019D1*
X1276927Y3014314D1*
X1283608Y3008608D1*
X1289314Y3001927D1*
X1293905Y2994436D1*
X1297267Y2986318D1*
X1299319Y2977775D1*
X1300008Y2969016D1*
X1299319Y2960257D1*
X1297267Y2951713D1*
X1293905Y2943596D1*
X1289314Y2936104D1*
X1283608Y2929423D1*
X1276927Y2923717D1*
X1269202Y2919019D1*
X1276927Y2914314D1*
X1283608Y2908608D1*
X1289314Y2901927D1*
X1293905Y2894436D1*
X1297267Y2886318D1*
X1299319Y2877775D1*
X1300008Y2869016D1*
X1299319Y2860257D1*
X1297267Y2851713D1*
X1293905Y2843596D1*
X1289314Y2836104D1*
X1283608Y2829423D1*
X1276927Y2823717D1*
X1269202Y2819019D1*
X1276927Y2814314D1*
X1283608Y2808608D1*
X1289314Y2801927D1*
X1293905Y2794436D1*
X1297267Y2786318D1*
X1299319Y2777775D1*
X1300008Y2769016D1*
X1299319Y2760257D1*
X1297267Y2751713D1*
X1293905Y2743596D1*
X1289314Y2736104D1*
X1283608Y2729423D1*
X1276927Y2723717D1*
X1269202Y2719019D1*
X1276927Y2714314D1*
X1283608Y2708608D1*
X1289314Y2701927D1*
X1293905Y2694436D1*
X1297267Y2686318D1*
X1299319Y2677775D1*
X1300008Y2669016D1*
X1299319Y2660257D1*
X1297267Y2651713D1*
X1293905Y2643596D1*
X1289314Y2636104D1*
X1283608Y2629423D1*
X1276927Y2623717D1*
X1269202Y2619019D1*
X1276927Y2614314D1*
X1283608Y2608608D1*
X1289314Y2601927D1*
X1293905Y2594436D1*
X1297267Y2586318D1*
X1299319Y2577775D1*
X1300008Y2569016D1*
X1299319Y2560257D1*
X1297267Y2551713D1*
X1293905Y2543596D1*
X1289314Y2536104D1*
X1283608Y2529423D1*
X1276927Y2523717D1*
X1269202Y2519019D1*
X1276927Y2514314D1*
X1283608Y2508608D1*
X1289314Y2501927D1*
X1293905Y2494436D1*
X1297267Y2486318D1*
X1299319Y2477775D1*
X1300008Y2469016D1*
X1299319Y2460257D1*
X1297267Y2451713D1*
X1293905Y2443596D1*
X1289314Y2436104D1*
X1283608Y2429423D1*
X1276927Y2423717D1*
X1269436Y2419126D1*
X1261318Y2415764D1*
X1252775Y2413713D1*
X1244016Y2413024D1*
X1235257Y2413713D1*
X1226713Y2415764D1*
X1218596Y2419126D1*
X1211104Y2423717D1*
X1204423Y2429423D1*
X1198717Y2436104D1*
X1194126Y2443596D1*
X1190764Y2451713D1*
X1188713Y2460257D1*
X1188024Y2469016D1*
X1188713Y2477775D1*
X1190764Y2486318D1*
X1194126Y2494436D1*
X1198717Y2501927D1*
X1204423Y2508608D1*
X1211104Y2514314D1*
X1218830Y2519013D1*
X1211104Y2523717D1*
X1204423Y2529423D1*
X1198717Y2536104D1*
X1194126Y2543596D1*
X1190764Y2551713D1*
X1188713Y2560257D1*
X1188024Y2569016D1*
X1188713Y2577775D1*
X1190764Y2586318D1*
X1194126Y2594436D1*
X1198717Y2601927D1*
X1204423Y2608608D1*
X1211104Y2614314D1*
X1218830Y2619013D1*
X1211104Y2623717D1*
X1204423Y2629423D1*
X1198717Y2636104D1*
X1194126Y2643596D1*
X1190764Y2651713D1*
X1188713Y2660257D1*
X1188024Y2669016D1*
X1188713Y2677775D1*
X1190764Y2686318D1*
X1194126Y2694436D1*
X1198717Y2701927D1*
X1204423Y2708608D1*
X1211104Y2714314D1*
X1218830Y2719013D1*
X1211104Y2723717D1*
X1204423Y2729423D1*
X1198717Y2736104D1*
X1194126Y2743596D1*
X1190764Y2751713D1*
X1188713Y2760257D1*
X1188024Y2769016D1*
X1188713Y2777775D1*
X1190764Y2786318D1*
X1194126Y2794436D1*
X1198717Y2801927D1*
X1204423Y2808608D1*
X1211104Y2814314D1*
X1218830Y2819013D1*
X1211104Y2823717D1*
X1204423Y2829423D1*
X1198717Y2836104D1*
X1194126Y2843596D1*
X1190764Y2851713D1*
X1188713Y2860257D1*
X1188024Y2869016D1*
X1188713Y2877775D1*
X1190764Y2886318D1*
X1194126Y2894436D1*
X1198717Y2901927D1*
X1204423Y2908608D1*
X1211104Y2914314D1*
X1218830Y2919013D1*
X1211104Y2923717D1*
X1204423Y2929423D1*
X1198717Y2936104D1*
X1194126Y2943596D1*
X1190764Y2951713D1*
X1188713Y2960257D1*
X1188024Y2969016D1*
X1188713Y2977775D1*
X1190764Y2986318D1*
X1194126Y2994436D1*
X1198717Y3001927D1*
X1204423Y3008608D1*
X1211104Y3014314D1*
X1218830Y3019013D1*
X1211104Y3023717D1*
X1204423Y3029423D1*
X1198717Y3036104D1*
X1194126Y3043596D1*
X1190764Y3051713D1*
X1188713Y3060257D1*
X1188024Y3069016D1*
X1188713Y3077775D1*
X1190764Y3086318D1*
X1194126Y3094436D1*
X1198717Y3101927D1*
X1204423Y3108608D1*
X1209472Y3113028D1*
X1188024Y3113023D1*
Y3225008D1*
X1211528D1*
X1211624Y3246565D1*
X1212421Y3251601D1*
X1213997Y3256450D1*
X1216312Y3260993D1*
X1219308Y3265118D1*
X1266510Y3312461D1*
X1272914Y3318723D1*
X1277039Y3321720D1*
X1281582Y3324035D1*
X1286431Y3325610D1*
X1291466Y3326408D1*
X1358320Y3326508D1*
X1796565Y3326408D1*
X1801601Y3325610D1*
X1806450Y3324035D1*
X1810993Y3321720D1*
X1815118Y3318723D1*
X1862461Y3271521D1*
X1881223Y3252618D1*
X1884220Y3248493D1*
X1886535Y3243950D1*
X1888110Y3239101D1*
X1888908Y3234065D1*
X1889008Y3167211D1*
Y2932493D1*
X1944981Y2876501D1*
X1988033Y2876508D1*
X1988024Y2900008D1*
X2100008D1*
Y2788023D1*
X2078657D1*
X2083608Y2783608D1*
X2089314Y2776927D1*
X2093905Y2769436D1*
X2097267Y2761318D1*
X2099319Y2752775D1*
X2100008Y2744016D1*
X2099319Y2735257D1*
X2097267Y2726713D1*
X2093905Y2718596D1*
X2089314Y2711104D1*
X2083608Y2704423D1*
X2076927Y2698717D1*
X2069202Y2694019D1*
X2076927Y2689314D1*
X2083608Y2683608D1*
X2089314Y2676927D1*
X2093905Y2669436D1*
X2097267Y2661318D1*
X2099319Y2652775D1*
X2100008Y2644016D1*
X2099319Y2635257D1*
X2097267Y2626713D1*
X2093905Y2618596D1*
X2089314Y2611104D1*
X2083608Y2604423D1*
X2076927Y2598717D1*
X2069202Y2594019D1*
X2076927Y2589314D1*
X2083608Y2583608D1*
X2089314Y2576927D1*
X2093905Y2569436D1*
X2097267Y2561318D1*
X2099319Y2552775D1*
X2100008Y2544016D1*
X2099319Y2535257D1*
X2097267Y2526713D1*
X2093905Y2518596D1*
X2089314Y2511104D1*
X2083608Y2504423D1*
X2076927Y2498717D1*
X2069202Y2494019D1*
X2076927Y2489314D1*
X2083608Y2483608D1*
X2089314Y2476927D1*
X2093905Y2469436D1*
X2097267Y2461318D1*
X2099319Y2452775D1*
X2100008Y2444016D1*
X2099319Y2435257D1*
X2097267Y2426713D1*
X2093905Y2418596D1*
X2089314Y2411104D1*
X2083608Y2404423D1*
X2076927Y2398717D1*
X2069202Y2394019D1*
X2076927Y2389314D1*
X2083608Y2383608D1*
X2089314Y2376927D1*
X2093905Y2369436D1*
X2097267Y2361318D1*
X2099319Y2352775D1*
X2100008Y2344016D1*
X2099319Y2335257D1*
X2097267Y2326713D1*
X2093905Y2318596D1*
X2089314Y2311104D1*
X2083608Y2304423D1*
X2076927Y2298717D1*
X2069202Y2294019D1*
X2076927Y2289314D1*
X2083608Y2283608D1*
X2089314Y2276927D1*
X2093905Y2269436D1*
X2097267Y2261318D1*
X2099319Y2252775D1*
X2100008Y2244016D1*
X2099319Y2235257D1*
X2097267Y2226713D1*
X2093905Y2218596D1*
X2089314Y2211104D1*
X2083608Y2204423D1*
X2076927Y2198717D1*
X2069202Y2194019D1*
X2076927Y2189314D1*
X2083608Y2183608D1*
X2089314Y2176927D1*
X2093905Y2169436D1*
X2097267Y2161318D1*
X2099319Y2152775D1*
X2100008Y2144016D1*
X2099319Y2135257D1*
X2097267Y2126713D1*
X2093905Y2118596D1*
X2089314Y2111104D1*
X2083608Y2104423D1*
X2076927Y2098717D1*
X2069436Y2094126D1*
X2061318Y2090764D1*
X2052775Y2088713D1*
X2044016Y2088024D1*
X2035257Y2088713D1*
X2026713Y2090764D1*
X2018596Y2094126D1*
X2011104Y2098717D1*
X2004423Y2104423D1*
X1998440Y2111519D1*
X1822743Y2111473D1*
X1824812Y2102853D1*
X1825508Y2094016D1*
X1824812Y2085178D1*
X1822743Y2076559D1*
X1819351Y2068369D1*
X1814719Y2060811D1*
X1808962Y2054070D1*
X1802221Y2048313D1*
X1795282Y2044028D1*
X1802221Y2039719D1*
X1808962Y2033962D1*
X1814719Y2027221D1*
X1819351Y2019663D1*
X1822743Y2011473D1*
X1824812Y2002853D1*
X1825508Y1994016D1*
X1824812Y1985178D1*
X1822743Y1976559D1*
X1819351Y1968369D1*
X1814719Y1960811D1*
X1808962Y1954070D1*
X1802221Y1948313D1*
X1795282Y1944028D1*
X1802221Y1939719D1*
X1808962Y1933962D1*
X1814719Y1927221D1*
X1819351Y1919663D1*
X1822743Y1911473D1*
X1824812Y1902853D1*
X1825508Y1894016D1*
X1824812Y1885178D1*
X1822743Y1876559D1*
X1819351Y1868369D1*
X1814719Y1860811D1*
X1808962Y1854070D1*
X1802221Y1848313D1*
X1795282Y1844028D1*
X1802221Y1839719D1*
X1808962Y1833962D1*
X1814719Y1827221D1*
X1819351Y1819663D1*
X1822743Y1811473D1*
X1824812Y1802853D1*
X1825508Y1794016D1*
X1824812Y1785178D1*
X1822743Y1776559D1*
X1819351Y1768369D1*
X1814719Y1760811D1*
X1808962Y1754070D1*
X1802221Y1748313D1*
X1794663Y1743681D1*
X1786473Y1740289D1*
X1777853Y1738219D1*
X1769016Y1737524D1*
X1760178Y1738219D1*
X1751559Y1740289D1*
X1743369Y1743681D1*
X1735811Y1748313D1*
X1729070Y1754070D1*
X1723313Y1760811D1*
X1719028Y1767749D1*
X2599835Y2239623D2*
X2598461Y2230945D1*
X2595746Y2222588D1*
X2591757Y2214760D1*
X2586592Y2207652D1*
X2580380Y2201439D1*
X2573272Y2196275D1*
X2565443Y2192286D1*
X2557087Y2189571D1*
X2548409Y2188196D1*
X2539623D1*
X2530945Y2189571D1*
X2522588Y2192286D1*
X2514760Y2196275D1*
X2507652Y2201439D1*
X2501439Y2207652D1*
X2496275Y2214760D1*
X2492286Y2222588D1*
X2489571Y2230945D1*
X2488196Y2239623D1*
Y2248409D1*
X2489571Y2257087D1*
X2492286Y2265443D1*
X2496275Y2273272D1*
X2501439Y2280380D1*
X2507652Y2286592D1*
X2514760Y2291757D1*
X2518830Y2294013D1*
X2511104Y2298717D1*
X2504423Y2304423D1*
X2498717Y2311104D1*
X2494126Y2318596D1*
X2490764Y2326713D1*
X2488713Y2335257D1*
X2488024Y2344016D1*
X2488713Y2352775D1*
X2490764Y2361318D1*
X2494126Y2369436D1*
X2498717Y2376927D1*
X2504423Y2383608D1*
X2511104Y2389314D1*
X2518830Y2394013D1*
X2511104Y2398717D1*
X2504423Y2404423D1*
X2498717Y2411104D1*
X2494126Y2418596D1*
X2490764Y2426713D1*
X2488713Y2435257D1*
X2488024Y2444016D1*
X2488713Y2452775D1*
X2490764Y2461318D1*
X2494126Y2469436D1*
X2498717Y2476927D1*
X2504423Y2483608D1*
X2511104Y2489314D1*
X2518830Y2494013D1*
X2511104Y2498717D1*
X2504423Y2504423D1*
X2498717Y2511104D1*
X2494126Y2518596D1*
X2490764Y2526713D1*
X2488713Y2535257D1*
X2488024Y2544016D1*
X2488713Y2552775D1*
X2490764Y2561318D1*
X2494126Y2569436D1*
X2498717Y2576927D1*
X2504423Y2583608D1*
X2511104Y2589314D1*
X2518830Y2594013D1*
X2511104Y2598717D1*
X2504423Y2604423D1*
X2498717Y2611104D1*
X2494126Y2618596D1*
X2490764Y2626713D1*
X2488713Y2635257D1*
X2488024Y2644016D1*
X2488713Y2652775D1*
X2490764Y2661318D1*
X2494126Y2669436D1*
X2498717Y2676927D1*
X2504423Y2683608D1*
X2511104Y2689314D1*
X2518596Y2693905D1*
X2526713Y2697267D1*
X2535257Y2699319D1*
X2544016Y2700008D1*
X2552775Y2699319D1*
X2561318Y2697267D1*
X2569436Y2693905D1*
X2576927Y2689314D1*
X2583608Y2683608D1*
X2589314Y2676927D1*
X2593905Y2669436D1*
X2597267Y2661318D1*
X2599319Y2652775D1*
X2600008Y2644016D1*
X2599319Y2635257D1*
X2597267Y2626713D1*
X2593905Y2618596D1*
X2589314Y2611104D1*
X2583608Y2604423D1*
X2576927Y2598717D1*
X2569202Y2594019D1*
X2576927Y2589314D1*
X2583608Y2583608D1*
X2589314Y2576927D1*
X2593905Y2569436D1*
X2597267Y2561318D1*
X2599319Y2552775D1*
X2600008Y2544016D1*
X2599319Y2535257D1*
X2597267Y2526713D1*
X2593905Y2518596D1*
X2589314Y2511104D1*
X2583608Y2504423D1*
X2576927Y2498717D1*
X2569202Y2494019D1*
X2576927Y2489314D1*
X2583608Y2483608D1*
X2589314Y2476927D1*
X2593905Y2469436D1*
X2597267Y2461318D1*
X2599319Y2452775D1*
X2600008Y2444016D1*
X2599319Y2435257D1*
X2597267Y2426713D1*
X2593905Y2418596D1*
X2589314Y2411104D1*
X2583608Y2404423D1*
X2576927Y2398717D1*
X2569202Y2394019D1*
X2576927Y2389314D1*
X2583608Y2383608D1*
X2589314Y2376927D1*
X2593905Y2369436D1*
X2597267Y2361318D1*
X2599319Y2352775D1*
X2600008Y2344016D1*
X2599319Y2335257D1*
X2597267Y2326713D1*
X2593905Y2318596D1*
X2589314Y2311104D1*
X2583608Y2304423D1*
X2576927Y2298717D1*
X2569202Y2294019D1*
X2576927Y2289314D1*
X2583608Y2283608D1*
X2589314Y2276927D1*
X2593905Y2269436D1*
X2597267Y2261318D1*
X2599319Y2252775D1*
X2600008Y2244016D1*
X2599835Y2239623D1*
Y2839623D2*
X2598461Y2830945D1*
X2595746Y2822588D1*
X2591757Y2814760D1*
X2586592Y2807652D1*
X2580380Y2801439D1*
X2573272Y2796275D1*
X2565443Y2792286D1*
X2557087Y2789571D1*
X2548409Y2788196D1*
X2539623D1*
X2530945Y2789571D1*
X2522588Y2792286D1*
X2514760Y2796275D1*
X2507652Y2801439D1*
X2501439Y2807652D1*
X2496275Y2814760D1*
X2492286Y2822588D1*
X2489571Y2830945D1*
X2488196Y2839623D1*
Y2848409D1*
X2489571Y2857087D1*
X2492286Y2865443D1*
X2496275Y2873272D1*
X2501439Y2880380D1*
X2507652Y2886592D1*
X2514760Y2891757D1*
X2522588Y2895746D1*
X2530945Y2898461D1*
X2539623Y2899835D1*
X2548409D1*
X2557087Y2898461D1*
X2565443Y2895746D1*
X2573272Y2891757D1*
X2580380Y2886592D1*
X2586592Y2880380D1*
X2591757Y2873272D1*
X2595746Y2865443D1*
X2598461Y2857087D1*
X2599835Y2848409D1*
Y2839623D1*
X1799835Y3164623D2*
X1798461Y3155945D1*
X1795746Y3147588D1*
X1791757Y3139760D1*
X1786592Y3132652D1*
X1780380Y3126439D1*
X1773272Y3121275D1*
X1765443Y3117286D1*
X1757087Y3114571D1*
X1748409Y3113196D1*
X1739623D1*
X1730945Y3114571D1*
X1722588Y3117286D1*
X1714760Y3121275D1*
X1707652Y3126439D1*
X1701439Y3132652D1*
X1696275Y3139760D1*
X1692286Y3147588D1*
X1689571Y3155945D1*
X1688196Y3164623D1*
Y3173409D1*
X1689571Y3182087D1*
X1692286Y3190443D1*
X1696275Y3198272D1*
X1701439Y3205380D1*
X1707652Y3211592D1*
X1714760Y3216757D1*
X1722588Y3220746D1*
X1730945Y3223461D1*
X1739623Y3224835D1*
X1748409D1*
X1757087Y3223461D1*
X1765443Y3220746D1*
X1773272Y3216757D1*
X1780380Y3211592D1*
X1786592Y3205380D1*
X1791757Y3198272D1*
X1795746Y3190443D1*
X1798461Y3182087D1*
X1799835Y3173409D1*
Y3164623D1*
X2777280Y4276508D2*
X2910770D1*
X2916688Y4281629D1*
X2922909Y4285441D1*
X2929649Y4288232D1*
X2936743Y4289935D1*
X2944016Y4290508D1*
X2951289Y4289935D1*
X2958383Y4288232D1*
X2965123Y4285441D1*
X2971343Y4281629D1*
X2976891Y4276891D1*
X2981629Y4271343D1*
X2985441Y4265123D1*
X2988232Y4258383D1*
X2989935Y4251289D1*
X2990508Y4244016D1*
X2989935Y4236743D1*
X2988232Y4229649D1*
X2985441Y4222909D1*
X2981629Y4216688D1*
X2976891Y4211141D1*
X2971343Y4206403D1*
X2965123Y4202591D1*
X2958383Y4199799D1*
X2951289Y4198096D1*
X2944016Y4197524D1*
X2936743Y4198096D1*
X2929649Y4199799D1*
X2922909Y4202591D1*
X2916688Y4206403D1*
X2910783Y4211528D1*
X2777262Y4211523D1*
X2771343Y4206403D1*
X2765123Y4202591D1*
X2758383Y4199799D1*
X2751289Y4198096D1*
X2744016Y4197524D1*
X2736743Y4198096D1*
X2729649Y4199799D1*
X2722909Y4202591D1*
X2716688Y4206403D1*
X2711141Y4211141D1*
X2706403Y4216688D1*
X2702591Y4222909D1*
X2699799Y4229649D1*
X2698096Y4236743D1*
X2697524Y4244016D1*
X2698096Y4251289D1*
X2699799Y4258383D1*
X2702591Y4265123D1*
X2706403Y4271343D1*
X2711141Y4276891D1*
X2716688Y4281629D1*
X2722909Y4285441D1*
X2729649Y4288232D1*
X2736743Y4289935D1*
X2744016Y4290508D1*
X2751289Y4289935D1*
X2758383Y4288232D1*
X2765123Y4285441D1*
X2771343Y4281629D1*
X2777249Y4276503D1*
D24*
X2069016Y4369016D3*
D25*
X2169016D3*
D24*
X2694016Y2644016D3*
D25*
Y2544016D3*
Y2444016D3*
Y2344016D3*
D24*
X1956516Y3144016D3*
D25*
X2056516D3*
X2156516D3*
X2256516D3*
D26*
X2619016Y4369016D3*
D27*
X2519016D3*
X2419016D3*
D28*
X894016Y3119016D3*
X657795D3*
D29*
X775906Y2933976D3*
D34*
X551496Y4370394D3*
X6334606Y929803D3*
Y3992087D3*
X551496Y551496D3*
X896417Y4055433D3*
D107*
X2160669Y718819D3*
Y1742441D3*
X3184291Y718819D3*
D34*
X2677480Y4016063D3*
D35*
X4803465Y2460945D3*
D36*
X519016Y2719016D3*
D37*
Y2619016D3*
Y2519016D3*
D39*
X769016Y494016D3*
Y594016D3*
Y694016D3*
Y794016D3*
Y894016D3*
Y994016D3*
Y1094016D3*
Y1194016D3*
Y1294016D3*
Y1394016D3*
Y1494016D3*
Y1594016D3*
Y1694016D3*
Y1794016D3*
Y1894016D3*
Y1994016D3*
Y2094016D3*
Y2194016D3*
Y2294016D3*
X1669016Y494016D3*
Y594016D3*
Y694016D3*
Y794016D3*
Y894016D3*
Y994016D3*
Y1094016D3*
Y1194016D3*
Y1294016D3*
Y1394016D3*
Y1494016D3*
Y1594016D3*
Y1694016D3*
Y1794016D3*
Y1894016D3*
Y1994016D3*
Y2094016D3*
Y2194016D3*
Y2294016D3*
X1769016D3*
Y494016D3*
Y594016D3*
Y694016D3*
Y794016D3*
Y894016D3*
Y994016D3*
Y1094016D3*
Y1194016D3*
Y1294016D3*
Y1394016D3*
Y1494016D3*
Y1594016D3*
Y1694016D3*
Y1794016D3*
Y1894016D3*
Y1994016D3*
Y2094016D3*
Y2194016D3*
D40*
X2044016Y2844016D3*
D41*
Y2744016D3*
Y2644016D3*
Y2544016D3*
Y2444016D3*
Y2344016D3*
Y2244016D3*
Y2144016D3*
X2544016D3*
Y2244016D3*
Y2344016D3*
Y2444016D3*
Y2544016D3*
Y2644016D3*
Y2744016D3*
Y2844016D3*
D40*
X1244016Y3169016D3*
D41*
Y3069016D3*
Y2969016D3*
Y2869016D3*
Y2769016D3*
Y2669016D3*
Y2569016D3*
Y2469016D3*
X1744016D3*
Y2569016D3*
Y2669016D3*
Y2769016D3*
Y2869016D3*
Y2969016D3*
Y3069016D3*
Y3169016D3*
M02*
