G04 DipTrace 3.3.0.0*
G04 BottomSilk.gbr*
%MOIN*%
G04 #@! TF.FileFunction,Legend,Bot*
G04 #@! TF.Part,Single*
%ADD102C,0.009264*%
%ADD103C,0.012351*%
%FSLAX26Y26*%
G04*
G70*
G90*
G75*
G01*
G04 BotSilk*
%LPD*%
X2453102Y4169211D2*
D102*
X2392814D1*
Y4195077D1*
X2395732Y4203699D1*
X2398584Y4206551D1*
X2404288Y4209403D1*
X2412910D1*
X2418680Y4206551D1*
X2421532Y4203699D1*
X2424384Y4195077D1*
X2427302Y4203699D1*
X2430154Y4206551D1*
X2435858Y4209403D1*
X2441628D1*
X2447332Y4206551D1*
X2450250Y4203699D1*
X2453102Y4195077D1*
Y4169211D1*
X2424384D2*
Y4195077D1*
X2433006Y4227930D2*
X2392814D1*
X2415762D2*
X2424384Y4230848D1*
X2430154Y4236552D1*
X2433006Y4242322D1*
Y4250944D1*
Y4269471D2*
X2392814D1*
X2421532D2*
X2430154Y4278093D1*
X2433006Y4283864D1*
Y4292419D1*
X2430154Y4298189D1*
X2421532Y4301041D1*
X2392814D1*
X2524384Y4154952D2*
Y4180751D1*
X2527302Y4189373D1*
X2530154Y4192292D1*
X2535858Y4195143D1*
X2541628D1*
X2547332Y4192292D1*
X2550250Y4189373D1*
X2553102Y4180751D1*
Y4154951D1*
X2492814Y4154952D1*
X2524384Y4175048D2*
X2492814Y4195144D1*
X2515762Y4213671D2*
Y4248092D1*
X2521532D1*
X2527302Y4245241D1*
X2530154Y4242389D1*
X2533006Y4236618D1*
Y4227996D1*
X2530154Y4222293D1*
X2524384Y4216522D1*
X2515762Y4213671D1*
X2510058D1*
X2501436Y4216523D1*
X2495733Y4222293D1*
X2492814Y4227996D1*
Y4236619D1*
X2495733Y4242389D1*
X2501436Y4248092D1*
X2553102Y4301041D2*
X2492814D1*
X2524384D2*
X2530154Y4295338D1*
X2533006Y4289567D1*
Y4280945D1*
X2530154Y4275242D1*
X2524384Y4269471D1*
X2515762Y4266620D1*
X2510058D1*
X2501436Y4269471D1*
X2495732Y4275242D1*
X2492814Y4280945D1*
Y4289567D1*
X2495733Y4295338D1*
X2501436Y4301041D1*
X2653102Y4183670D2*
X2624384Y4206617D1*
X2592814D1*
X2653102Y4229565D2*
X2624384Y4206617D1*
X2615762Y4248092D2*
Y4282514D1*
X2621532D1*
X2627302Y4279662D1*
X2630154Y4276810D1*
X2633006Y4271040D1*
Y4262418D1*
X2630154Y4256714D1*
X2624384Y4250944D1*
X2615762Y4248092D1*
X2610058D1*
X2601436Y4250944D1*
X2595732Y4256715D1*
X2592814Y4262418D1*
Y4271040D1*
X2595732Y4276810D1*
X2601436Y4282514D1*
X2653102Y4301041D2*
X2592814D1*
X2613401Y4479429D2*
X2619105Y4485199D1*
X2627727Y4488051D1*
X2639201D1*
X2647823Y4485199D1*
X2653593Y4479429D1*
Y4473725D1*
X2650675Y4467955D1*
X2647823Y4465103D1*
X2642119Y4462251D1*
X2624875Y4456481D1*
X2619105Y4453629D1*
X2616253Y4450711D1*
X2613401Y4445007D1*
Y4436385D1*
X2619105Y4430681D1*
X2627727Y4427763D1*
X2639201D1*
X2647823Y4430681D1*
X2653593Y4436385D1*
X2594874Y4450711D2*
X2560452D1*
Y4456481D1*
X2563304Y4462251D1*
X2566156Y4465103D1*
X2571926Y4467955D1*
X2580548D1*
X2586252Y4465103D1*
X2592022Y4459333D1*
X2594874Y4450711D1*
Y4445007D1*
X2592022Y4436385D1*
X2586252Y4430681D1*
X2580548Y4427763D1*
X2571926D1*
X2566156Y4430681D1*
X2560452Y4436385D1*
X2541925Y4467955D2*
Y4427763D1*
Y4450711D2*
X2539007Y4459333D1*
X2533303Y4465103D1*
X2527533Y4467955D1*
X2518911D1*
X2500384D2*
X2483139Y4427763D1*
X2465962Y4467955D1*
X2433109D2*
X2438813Y4465103D1*
X2444583Y4459333D1*
X2447435Y4450711D1*
Y4445007D1*
X2444583Y4436385D1*
X2438813Y4430681D1*
X2433109Y4427763D1*
X2424487D1*
X2418717Y4430681D1*
X2413013Y4436385D1*
X2410094Y4445007D1*
Y4450711D1*
X2413013Y4459333D1*
X2418717Y4465103D1*
X2424487Y4467955D1*
X2433109D1*
X2272783Y4300551D2*
Y4240263D1*
X2238361D1*
X2219834Y4300551D2*
X2216982Y4297699D1*
X2214064Y4300551D1*
X2216982Y4303469D1*
X2219834Y4300551D1*
X2216982Y4280455D2*
Y4240263D1*
X2195537Y4280455D2*
Y4240263D1*
Y4268981D2*
X2186915Y4277603D1*
X2181144Y4280455D1*
X2172589D1*
X2166819Y4277603D1*
X2163967Y4268981D1*
Y4240263D1*
Y4268981D2*
X2155345Y4277603D1*
X2149575Y4280455D1*
X2141019D1*
X2135249Y4277603D1*
X2132330Y4268981D1*
Y4240263D1*
X2113803Y4300551D2*
X2110951Y4297699D1*
X2108033Y4300551D1*
X2110951Y4303469D1*
X2113803Y4300551D1*
X2110951Y4280455D2*
Y4240263D1*
X2080884Y4300551D2*
Y4251737D1*
X2078032Y4243181D1*
X2072262Y4240263D1*
X2066558D1*
X2089506Y4280455D2*
X2069410D1*
X1949518Y4291929D2*
X1955222Y4297699D1*
X1963844Y4300551D1*
X1975318D1*
X1983940Y4297699D1*
X1989710Y4291929D1*
Y4286225D1*
X1986792Y4280455D1*
X1983940Y4277603D1*
X1978236Y4274751D1*
X1960992Y4268981D1*
X1955222Y4266129D1*
X1952370Y4263211D1*
X1949518Y4257507D1*
Y4248885D1*
X1955222Y4243181D1*
X1963844Y4240263D1*
X1975318D1*
X1983940Y4243181D1*
X1989710Y4248885D1*
X1930991Y4280455D2*
X1919517Y4240263D1*
X1908043Y4280455D1*
X1896569Y4240263D1*
X1885095Y4280455D1*
X2297886Y3964174D2*
D103*
X2263398D1*
X2251990Y3967977D1*
X2248099Y3971868D1*
X2244297Y3979473D1*
Y3990969D1*
X2248099Y3998574D1*
X2251990Y4002465D1*
X2263398Y4006268D1*
X2297886D1*
Y3925884D1*
X2200493Y3979473D2*
X2208098Y3975670D1*
X2215792Y3967977D1*
X2219594Y3956481D1*
Y3948876D1*
X2215792Y3937380D1*
X2208098Y3929775D1*
X2200493Y3925884D1*
X2188997D1*
X2181303Y3929775D1*
X2173698Y3937380D1*
X2169807Y3948876D1*
Y3956481D1*
X2173698Y3967977D1*
X2181303Y3975670D1*
X2188997Y3979473D1*
X2200493D1*
X2145104Y4006268D2*
Y3925884D1*
X2074506Y3979473D2*
Y3925884D1*
Y3967977D2*
X2082111Y3975670D1*
X2089804Y3979473D1*
X2101212D1*
X2108906Y3975670D1*
X2116511Y3967977D1*
X2120402Y3956481D1*
Y3948876D1*
X2116511Y3937380D1*
X2108906Y3929775D1*
X2101212Y3925884D1*
X2089804D1*
X2082111Y3929775D1*
X2074506Y3937380D1*
X2049803Y3979473D2*
Y3925884D1*
Y3956481D2*
X2045912Y3967977D1*
X2038307Y3975670D1*
X2030613Y3979473D1*
X2019117D1*
X1859261Y3987167D2*
X1863064Y3994772D1*
X1870757Y4002465D1*
X1878362Y4006268D1*
X1893661D1*
X1901354Y4002465D1*
X1908960Y3994772D1*
X1912851Y3987167D1*
X1916653Y3975670D1*
Y3956481D1*
X1912851Y3945073D1*
X1908960Y3937380D1*
X1901354Y3929775D1*
X1893661Y3925884D1*
X1878362D1*
X1870757Y3929775D1*
X1863064Y3937380D1*
X1859261Y3945073D1*
X1815457Y3979473D2*
X1823062Y3975670D1*
X1830756Y3967977D1*
X1834558Y3956481D1*
Y3948876D1*
X1830756Y3937380D1*
X1823062Y3929775D1*
X1815457Y3925884D1*
X1803961D1*
X1796268Y3929775D1*
X1788663Y3937380D1*
X1784772Y3948876D1*
Y3956481D1*
X1788663Y3967977D1*
X1796268Y3975670D1*
X1803961Y3979473D1*
X1815457D1*
X1714173D2*
Y3925884D1*
Y3967977D2*
X1721778Y3975670D1*
X1729472Y3979473D1*
X1740879D1*
X1748573Y3975670D1*
X1756178Y3967977D1*
X1760069Y3956481D1*
Y3948876D1*
X1756178Y3937380D1*
X1748573Y3929775D1*
X1740879Y3925884D1*
X1729472D1*
X1721778Y3929775D1*
X1714173Y3937380D1*
X1647377Y3967977D2*
X1651179Y3975670D1*
X1662676Y3979473D1*
X1674172D1*
X1685668Y3975670D1*
X1689470Y3967977D1*
X1685668Y3960372D1*
X1677974Y3956481D1*
X1658873Y3952678D1*
X1651179Y3948876D1*
X1647377Y3941182D1*
Y3937380D1*
X1651179Y3929775D1*
X1662676Y3925884D1*
X1674172D1*
X1685668Y3929775D1*
X1689470Y3937380D1*
X1611178Y4006268D2*
Y3941182D1*
X1607376Y3929775D1*
X1599682Y3925884D1*
X1592077D1*
X1622674Y3979473D2*
X1595879D1*
X1567374Y3956481D2*
X1521478D1*
Y3964174D1*
X1525281Y3971868D1*
X1529083Y3975670D1*
X1536777Y3979473D1*
X1548273D1*
X1555878Y3975670D1*
X1563572Y3967977D1*
X1567374Y3956481D1*
Y3948876D1*
X1563572Y3937380D1*
X1555878Y3929775D1*
X1548273Y3925884D1*
X1536777D1*
X1529083Y3929775D1*
X1521478Y3937380D1*
X1496776Y3979473D2*
Y3925884D1*
Y3956481D2*
X1492885Y3967977D1*
X1485279Y3975670D1*
X1477586Y3979473D1*
X1466090D1*
X1363626Y4006268D2*
X1333028Y3925884D1*
X1302431Y4006268D1*
X1273837Y3987078D2*
Y3990881D1*
X1270035Y3998574D1*
X1266232Y4002377D1*
X1258539Y4006179D1*
X1243240D1*
X1235635Y4002377D1*
X1231832Y3998574D1*
X1227941Y3990881D1*
Y3983276D1*
X1231832Y3975582D1*
X1239438Y3964174D1*
X1277728Y3925884D1*
X1224139D1*
X2290592Y3843768D2*
Y3763384D1*
Y3805477D2*
X2282899Y3813170D1*
X2275294Y3816973D1*
X2263798D1*
X2256193Y3813170D1*
X2248499Y3805477D1*
X2244697Y3793981D1*
Y3786376D1*
X2248499Y3774880D1*
X2256193Y3767275D1*
X2263798Y3763384D1*
X2275294D1*
X2282899Y3767275D1*
X2290592Y3774880D1*
X2219994Y3816973D2*
Y3778682D1*
X2216191Y3767275D1*
X2208498Y3763384D1*
X2197002D1*
X2189396Y3767275D1*
X2177900Y3778682D1*
Y3816973D2*
Y3763384D1*
X2153198Y3843768D2*
X2149395Y3839965D1*
X2145504Y3843768D1*
X2149395Y3847659D1*
X2153198Y3843768D1*
X2149395Y3816973D2*
Y3763384D1*
X2120801Y3843768D2*
Y3763384D1*
X2050203Y3843768D2*
Y3763384D1*
Y3805477D2*
X2057808Y3813170D1*
X2065501Y3816973D1*
X2076997D1*
X2084602Y3813170D1*
X2092296Y3805477D1*
X2096099Y3793981D1*
Y3786376D1*
X2092296Y3774880D1*
X2084602Y3767275D1*
X2076997Y3763384D1*
X2065501D1*
X2057808Y3767275D1*
X2050203Y3774880D1*
X2025500Y3843768D2*
Y3763384D1*
X1981696Y3816973D2*
X1989301Y3813170D1*
X1996995Y3805477D1*
X2000797Y3793981D1*
Y3786376D1*
X1996995Y3774880D1*
X1989301Y3767275D1*
X1981696Y3763384D1*
X1970200D1*
X1962506Y3767275D1*
X1954901Y3774880D1*
X1951010Y3786376D1*
Y3793981D1*
X1954901Y3805477D1*
X1962506Y3813170D1*
X1970200Y3816973D1*
X1981696D1*
X1880412Y3813170D2*
Y3751888D1*
X1884214Y3740480D1*
X1888017Y3736589D1*
X1895710Y3732786D1*
X1907206D1*
X1914811Y3736589D1*
X1880412Y3801674D2*
X1888017Y3809279D1*
X1895710Y3813170D1*
X1907206D1*
X1914811Y3809279D1*
X1922505Y3801674D1*
X1926308Y3790178D1*
Y3782485D1*
X1922505Y3771077D1*
X1914811Y3763384D1*
X1907206Y3759581D1*
X1895710D1*
X1888017Y3763384D1*
X1880412Y3771077D1*
X1851906D2*
X1855709Y3767186D1*
X1851906Y3763384D1*
X1848015Y3767186D1*
X1851906Y3771077D1*
X1823313Y3816973D2*
Y3763384D1*
Y3801674D2*
X1811817Y3813170D1*
X1804123Y3816973D1*
X1792715D1*
X1785022Y3813170D1*
X1781219Y3801674D1*
Y3763384D1*
X1756517Y3793981D2*
X1710621D1*
Y3801674D1*
X1714423Y3809368D1*
X1718226Y3813170D1*
X1725919Y3816973D1*
X1737415D1*
X1745020Y3813170D1*
X1752714Y3805477D1*
X1756517Y3793981D1*
Y3786376D1*
X1752714Y3774880D1*
X1745020Y3767275D1*
X1737415Y3763384D1*
X1725919D1*
X1718226Y3767275D1*
X1710621Y3774880D1*
X1674422Y3843768D2*
Y3778682D1*
X1670619Y3767275D1*
X1662926Y3763384D1*
X1655321D1*
X1685918Y3816973D2*
X1659123D1*
X1630618Y3763384D2*
X1577029Y3843679D1*
X1552326Y3843768D2*
Y3763384D1*
Y3805477D2*
X1544632Y3813170D1*
X1537027Y3816973D1*
X1525531D1*
X1517926Y3813170D1*
X1510232Y3805477D1*
X1506430Y3793981D1*
Y3786376D1*
X1510232Y3774880D1*
X1517926Y3767275D1*
X1525531Y3763384D1*
X1537027D1*
X1544632Y3767275D1*
X1552326Y3774880D1*
X1481727Y3843768D2*
Y3763384D1*
X1437923Y3816973D2*
X1445528Y3813170D1*
X1453222Y3805477D1*
X1457024Y3793981D1*
Y3786376D1*
X1453222Y3774880D1*
X1445528Y3767275D1*
X1437923Y3763384D1*
X1426427D1*
X1418734Y3767275D1*
X1411129Y3774880D1*
X1407238Y3786376D1*
Y3793981D1*
X1411129Y3805477D1*
X1418734Y3813170D1*
X1426427Y3816973D1*
X1437923D1*
X1336639Y3813170D2*
Y3751888D1*
X1340441Y3740480D1*
X1344244Y3736589D1*
X1351938Y3732786D1*
X1363434D1*
X1371039Y3736589D1*
X1336639Y3801674D2*
X1344244Y3809279D1*
X1351938Y3813170D1*
X1363434D1*
X1371039Y3809279D1*
X1378732Y3801674D1*
X1382535Y3790178D1*
Y3782485D1*
X1378732Y3771077D1*
X1371039Y3763384D1*
X1363434Y3759581D1*
X1351938D1*
X1344244Y3763384D1*
X1336639Y3771077D1*
X2253124Y3649578D2*
X2264620D1*
X2272225Y3645776D1*
X2276116Y3641973D1*
X2279918Y3634279D1*
Y3618981D1*
X2276116Y3615178D1*
X2268422D1*
X2253124Y3618981D1*
X2249321Y3611376D1*
X2245518D1*
X2237825Y3618981D1*
X2234022Y3638082D1*
X2237825Y3649578D1*
X2241627Y3657272D1*
X2249321Y3664877D1*
X2256926Y3668679D1*
X2272225D1*
X2279918Y3664877D1*
X2287523Y3657272D1*
X2291414Y3649578D1*
X2295217Y3638082D1*
Y3618981D1*
X2291414Y3607485D1*
X2287523Y3599880D1*
X2279918Y3592186D1*
X2272225Y3588384D1*
X2256926D1*
X2249321Y3592186D1*
X2241627Y3599880D1*
X2253124Y3653381D2*
Y3618981D1*
X2209320Y3668768D2*
Y3588384D1*
Y3630477D2*
X2201626Y3638170D1*
X2194021Y3641973D1*
X2182525D1*
X2174920Y3638170D1*
X2167226Y3630477D1*
X2163424Y3618981D1*
Y3611376D1*
X2167226Y3599880D1*
X2174920Y3592275D1*
X2182525Y3588384D1*
X2194021D1*
X2201626Y3592275D1*
X2209320Y3599880D1*
X2138721Y3641973D2*
Y3603682D1*
X2134918Y3592275D1*
X2127225Y3588384D1*
X2115729D1*
X2108124Y3592275D1*
X2096628Y3603682D1*
Y3641973D2*
Y3588384D1*
X2071925Y3668768D2*
X2068122Y3664965D1*
X2064231Y3668768D1*
X2068122Y3672659D1*
X2071925Y3668768D1*
X2068122Y3641973D2*
Y3588384D1*
X2039529Y3668768D2*
Y3588384D1*
X1968930Y3668768D2*
Y3588384D1*
Y3630477D2*
X1976535Y3638170D1*
X1984229Y3641973D1*
X1995725D1*
X2003330Y3638170D1*
X2011023Y3630477D1*
X2014826Y3618981D1*
Y3611376D1*
X2011023Y3599880D1*
X2003330Y3592275D1*
X1995725Y3588384D1*
X1984229D1*
X1976535Y3592275D1*
X1968930Y3599880D1*
X1944227Y3668768D2*
Y3588384D1*
X1900423Y3641973D2*
X1908028Y3638170D1*
X1915722Y3630477D1*
X1919524Y3618981D1*
Y3611376D1*
X1915722Y3599880D1*
X1908028Y3592275D1*
X1900423Y3588384D1*
X1888927D1*
X1881234Y3592275D1*
X1873629Y3599880D1*
X1869738Y3611376D1*
Y3618981D1*
X1873629Y3630477D1*
X1881234Y3638170D1*
X1888927Y3641973D1*
X1900423D1*
X1799139Y3638170D2*
Y3576888D1*
X1802941Y3565480D1*
X1806744Y3561589D1*
X1814438Y3557786D1*
X1825934D1*
X1833539Y3561589D1*
X1799139Y3626674D2*
X1806744Y3634279D1*
X1814438Y3638170D1*
X1825934D1*
X1833539Y3634279D1*
X1841232Y3626674D1*
X1845035Y3615178D1*
Y3607485D1*
X1841232Y3596077D1*
X1833539Y3588384D1*
X1825934Y3584581D1*
X1814438D1*
X1806744Y3588384D1*
X1799139Y3596077D1*
X2850867Y2561225D2*
D102*
X2853719Y2566929D1*
X2859489Y2572699D1*
X2865193Y2575551D1*
X2876667D1*
X2882437Y2572699D1*
X2888141Y2566929D1*
X2891059Y2561225D1*
X2893911Y2552603D1*
Y2538211D1*
X2891059Y2529655D1*
X2888141Y2523885D1*
X2882437Y2518181D1*
X2876667Y2515263D1*
X2865193D1*
X2859489Y2518181D1*
X2853719Y2523885D1*
X2850867Y2529655D1*
Y2538211D1*
X2865193D1*
X2832340Y2555455D2*
Y2515263D1*
Y2538211D2*
X2829422Y2546833D1*
X2823718Y2552603D1*
X2817948Y2555455D1*
X2809326D1*
X2790799D2*
Y2515263D1*
Y2543981D2*
X2782177Y2552603D1*
X2776407Y2555455D1*
X2767851D1*
X2762081Y2552603D1*
X2759229Y2543981D1*
Y2515263D1*
X2893911Y2675551D2*
Y2615263D1*
X2868045D1*
X2859423Y2618181D1*
X2856571Y2621033D1*
X2853719Y2626737D1*
Y2635359D1*
X2856571Y2641129D1*
X2859423Y2643981D1*
X2868045Y2646833D1*
X2859423Y2649751D1*
X2856571Y2652603D1*
X2853719Y2658307D1*
Y2664077D1*
X2856571Y2669781D1*
X2859423Y2672699D1*
X2868045Y2675551D1*
X2893911D1*
Y2646833D2*
X2868045D1*
X2835192Y2675551D2*
Y2615263D1*
X2816665Y2675551D2*
Y2615263D1*
X2787947Y2655455D2*
X2816665Y2626737D1*
X2805191Y2638211D2*
X2785095Y2615263D1*
X2893911Y2446833D2*
X2868111D1*
X2859489Y2449751D1*
X2856571Y2452603D1*
X2853719Y2458307D1*
Y2464077D1*
X2856571Y2469781D1*
X2859489Y2472699D1*
X2868111Y2475551D1*
X2893911D1*
Y2415263D1*
X2873815Y2446833D2*
X2853719Y2415263D1*
X2835192Y2438211D2*
X2800770D1*
Y2443981D1*
X2803622Y2449751D1*
X2806474Y2452603D1*
X2812244Y2455455D1*
X2820866D1*
X2826570Y2452603D1*
X2832340Y2446833D1*
X2835192Y2438211D1*
Y2432507D1*
X2832340Y2423885D1*
X2826570Y2418181D1*
X2820866Y2415263D1*
X2812244D1*
X2806474Y2418181D1*
X2800770Y2423885D1*
X2747821Y2475551D2*
Y2415263D1*
Y2446833D2*
X2753525Y2452603D1*
X2759295Y2455455D1*
X2767917D1*
X2773621Y2452603D1*
X2779391Y2446833D1*
X2782243Y2438211D1*
Y2432507D1*
X2779391Y2423885D1*
X2773621Y2418181D1*
X2767917Y2415263D1*
X2759295D1*
X2753525Y2418181D1*
X2747821Y2423885D1*
X2893911Y2375551D2*
Y2315263D1*
X2868045D1*
X2859423Y2318181D1*
X2856571Y2321033D1*
X2853719Y2326737D1*
Y2335359D1*
X2856571Y2341129D1*
X2859423Y2343981D1*
X2868045Y2346833D1*
X2859423Y2349751D1*
X2856571Y2352603D1*
X2853719Y2358307D1*
Y2364077D1*
X2856571Y2369781D1*
X2859423Y2372699D1*
X2868045Y2375551D1*
X2893911D1*
Y2346833D2*
X2868045D1*
X2835192Y2375551D2*
Y2315263D1*
X2816665Y2355455D2*
Y2326737D1*
X2813813Y2318181D1*
X2808043Y2315263D1*
X2799421D1*
X2793717Y2318181D1*
X2785095Y2326737D1*
Y2355455D2*
Y2315263D1*
M02*
