M48
INCH
T01C0.0191
T02C0.0276
T03C0.035
T04C0.0354
T05C0.0394
T06C0.0433
T07C0.0453
T08C0.1378
T09C0.14
T10C0.2047
%
T01
X+010815Y+009065
X+009065Y+008815
X+009065Y+006690
X+006440Y+008815
X+004815Y+010940
X+006315Y+014190
X+004690Y+016565
X+006315Y+019815
X+008940Y+019940
X+009440Y+020690
X+010565Y+021940
X+011690Y+022940
X+012074Y+021574
X+013190Y+019940
X+015690Y+022440
X+015565Y+027690
X+015565Y+028190
X+015565Y+028690
X+023565Y+025940
X+023565Y+025440
X+023565Y+024940
X+012507Y+013507
X+011208Y+014422
X+010633Y+012995
X+010190Y+015940
X+014815Y+008940
X+014815Y+006690
X+004690Y+022315
X+027440Y+042440
X+029440Y+042440
X+061940Y+038440
X+062065Y+010565
T02
X+005814Y+009794
X+005066Y+009794
X+005066Y+015336
X+005814Y+015336
X+005814Y+021086
X+005066Y+021086
T03
X+007690Y+004940
X+007690Y+005940
X+007690Y+006940
X+007690Y+007940
X+007690Y+008940
X+007690Y+009940
X+007690Y+010940
X+007690Y+011940
X+007690Y+012940
X+007690Y+013940
X+007690Y+014940
X+007690Y+015940
X+007690Y+016940
X+007690Y+017940
X+007690Y+018940
X+007690Y+019940
X+007690Y+020940
X+007690Y+021940
X+007690Y+022940
X+012440Y+024690
X+012440Y+025690
X+012440Y+026690
X+012440Y+027690
X+012440Y+028690
X+012440Y+029690
X+012440Y+030690
X+012440Y+031690
X+017440Y+031690
X+017440Y+030690
X+017440Y+029690
X+017440Y+028690
X+017440Y+027690
X+017440Y+026690
X+017440Y+025690
X+017440Y+024690
X+017690Y+022940
X+016690Y+022940
X+016690Y+021940
X+017690Y+021940
X+017690Y+020940
X+017690Y+019940
X+017690Y+018940
X+016690Y+018940
X+016690Y+019940
X+016690Y+020940
X+016690Y+017940
X+017690Y+017940
X+017690Y+016940
X+017690Y+015940
X+016690Y+015940
X+016690Y+016940
X+016690Y+014940
X+017690Y+014940
X+017690Y+013940
X+017690Y+012940
X+016690Y+012940
X+016690Y+013940
X+016690Y+011940
X+016690Y+010940
X+016690Y+009940
X+017690Y+009940
X+017690Y+010940
X+017690Y+011940
X+017690Y+008940
X+016690Y+008940
X+016690Y+007940
X+016690Y+006940
X+017690Y+006940
X+017690Y+007940
X+017690Y+005940
X+016690Y+005940
X+016690Y+004940
X+017690Y+004940
X+020440Y+021440
X+020440Y+022440
X+020440Y+023440
X+020440Y+024440
X+020440Y+025440
X+020440Y+026440
X+020440Y+027440
X+020440Y+028440
X+025440Y+028440
X+025440Y+027440
X+025440Y+026440
X+025440Y+025440
X+025440Y+024440
X+025440Y+023440
X+025440Y+022440
X+025440Y+021440
T04
X+020690Y+043690
X+021690Y+043690
X+021565Y+031440
X+020565Y+031440
X+019565Y+031440
X+022565Y+031440
X+026940Y+026440
X+026940Y+025440
X+026940Y+024440
X+026940Y+023440
T05
X+008940Y+030993G85X+008940Y+031387
X+007956Y+029340G85X+007562Y+029340
X+006578Y+030993G85X+006578Y+031387
X+010149Y+005629
X+013298Y+005629
T06
X+026190Y+043690
X+025190Y+043690
X+024190Y+043690
T07
X+005190Y+027190
X+005190Y+026190
X+005190Y+025190
T08
X+020925Y+006794G85X+022289Y+007582
X+020925Y+017031G85X+022289Y+017818
X+031161Y+006794G85X+032525Y+007582
T09
X+005515Y+043704
X+008964Y+040554
X+026775Y+040161
X+063346Y+039921
X+063346Y+009298
X+005515Y+005515
T10
X+048035Y+024609
T00
M30
