G04 DipTrace 3.3.0.0*
G04 Top.gbr*
%MOIN*%
G04 #@! TF.FileFunction,Copper,L1,Top*
G04 #@! TF.Part,Single*
%AMOUTLINE0*
4,1,16,
0.112483,-0.037345,
0.141382,-0.01053,
0.155785,0.026168,
0.152839,0.06548,
0.133127,0.099622,
0.100554,0.121829,
0.061571,0.127705,
0.0239,0.116085,
-0.112483,0.037345,
-0.141382,0.01053,
-0.155785,-0.026168,
-0.152839,-0.06548,
-0.133127,-0.099622,
-0.100554,-0.121829,
-0.061571,-0.127705,
-0.0239,-0.116085,
0.112483,-0.037345,
0*%
G04 #@! TA.AperFunction,Conductor*
%ADD13C,0.012*%
%ADD14C,0.019685*%
%ADD16C,0.025*%
%ADD17C,0.059055*%
%ADD19R,0.106299X0.062992*%
%ADD20R,0.059055X0.051181*%
%ADD22R,0.062992X0.163386*%
%ADD23R,0.051181X0.059055*%
G04 #@! TA.AperFunction,ComponentPad*
%ADD24R,0.059055X0.059055*%
%ADD25C,0.059055*%
%ADD26R,0.066929X0.066929*%
%ADD27C,0.066929*%
%ADD28O,0.07874X0.11811*%
%ADD29O,0.11811X0.07874*%
%ADD30R,0.027559X0.051181*%
%ADD31R,0.047244X0.07874*%
%ADD32R,0.047244X0.055118*%
%ADD33R,0.031496X0.055118*%
G04 #@! TA.AperFunction,ComponentPad*
%ADD34C,0.2*%
%ADD35C,0.275591*%
%ADD36R,0.070866X0.070866*%
%ADD37C,0.070866*%
%ADD38R,0.074803X0.037402*%
G04 #@! TA.AperFunction,ComponentPad*
%ADD39C,0.06*%
%ADD40R,0.059X0.059*%
%ADD41C,0.059*%
G04 #@! TA.AperFunction,ViaPad*
%ADD42C,0.04*%
G04 #@! TA.AperFunction,ComponentPad*
%ADD107OUTLINE0*%
%FSLAX26Y26*%
G04*
G70*
G90*
G75*
G01*
G04 Top*
%LPD*%
X1164094Y994016D2*
D13*
X1169016D1*
Y2294016D1*
X1244016Y3069016D2*
Y2969016D1*
Y2869016D1*
X2044016Y2744016D2*
Y2644016D1*
Y2544016D1*
X1169016Y2294016D2*
Y2794016D1*
X1244016Y2869016D1*
X1319016D1*
X1369016Y2819016D1*
Y2619016D1*
X1419016Y2569016D1*
X1744016D1*
X2044016Y2544016D2*
X2119016D1*
X2194016Y2469016D1*
Y2344016D1*
X2294016Y2244016D1*
X2544016D1*
X519016Y2619016D2*
X694016D1*
X758780Y2683780D1*
X894016D1*
Y2529252D2*
Y2683780D1*
X1077480Y994016D2*
Y910551D1*
X1081516Y906516D1*
X904252Y960551D2*
Y883780D1*
X906516Y881516D1*
X904252Y578661D2*
Y666752D1*
X906516Y669016D1*
X1482205Y578661D2*
Y668327D1*
X1481516Y669016D1*
X1482205Y960551D2*
Y894705D1*
X1481516Y894016D1*
X1494016Y2820984D2*
X1508484D1*
X1556516Y2869016D1*
X1494016Y2820984D2*
X1554547D1*
X1556516Y2819016D1*
X1494016Y2820984D2*
X1504547D1*
X1556516Y2769016D1*
X2294016Y2545984D2*
X2354547D1*
X2356516Y2544016D1*
X2294016Y2545984D2*
X2308484D1*
X2356516Y2594016D1*
X2294016Y2545984D2*
X2304547D1*
X2356516Y2494016D1*
X1869016Y4419016D2*
X1894016D1*
X1931516Y4456516D1*
X2119016D1*
X2169016Y4406516D1*
Y4369016D1*
X544016Y2198150D2*
X502382D1*
X469016Y2231516D1*
X544016Y1623150D2*
X502382D1*
X469016Y1656516D1*
X544016Y1069016D2*
X506516D1*
X481516Y1094016D1*
X981319Y2194016D2*
X1056516D1*
X594016Y1368819D2*
Y1381516D1*
X631516Y1419016D1*
X594016Y818819D2*
Y831516D1*
X644016Y881516D1*
X594016Y1919016D2*
Y1944016D1*
X631516Y1981516D1*
X1669016Y2294016D2*
X1769016D1*
X1669016Y1694016D2*
X1769016D1*
X1669016Y894016D2*
X1644016D1*
X1569016Y969016D1*
Y2244016D1*
X1669016Y894016D2*
X1769016D1*
X944016Y2069016D2*
Y1444016D1*
X894016Y1394016D1*
X769016D1*
X2044016Y2344016D2*
Y2444016D1*
X519016Y2519016D2*
D14*
X594016D1*
X694016Y2419016D1*
X894016D1*
X494016Y819016D2*
D13*
Y839882D1*
X544016Y889882D1*
X1868819Y4319016D2*
X1919016D1*
X1969016Y4369016D1*
X2069016D1*
X494016Y1918819D2*
Y1969016D1*
X544016Y2019016D1*
X769016Y1194016D2*
X694016D1*
X669016Y1219016D1*
Y1769213D1*
X594016Y1844213D1*
X494213D1*
X494016Y1844016D1*
X1669016Y994016D2*
X1769016D1*
X2544016Y2644016D2*
D16*
X2694016D1*
Y2544016D2*
X2544016D1*
X2694016Y2444016D2*
X2544016D1*
X2694016Y2344016D2*
X2544016D1*
X1669016Y794016D2*
D13*
X1444016D1*
X1419016Y819016D1*
Y2394016D1*
X1244016Y2569016D1*
X1669016Y794016D2*
X1769016D1*
X494016Y1369016D2*
Y1394016D1*
X544016Y1444016D1*
X594016Y744016D2*
X644016D1*
X669016Y769016D1*
Y794016D1*
X769016Y894016D1*
X494016Y744213D2*
X593819D1*
X594016Y744016D1*
X769016Y1494016D2*
X869016D1*
X894016Y1519016D1*
Y1994016D1*
X1319016D2*
Y2394016D1*
X1244016Y2469016D1*
X594016Y1294016D2*
X494213D1*
X494016Y1294213D1*
X769016Y1094016D2*
X719016D1*
X594016Y1219016D1*
Y1294016D1*
X1669016Y1194016D2*
X1769016D1*
X1781516D1*
X1831516Y1244016D1*
Y1856516D1*
X2044016Y2069016D1*
X2681516D1*
X2881516Y2269016D1*
Y4256516D1*
X2769016Y4369016D1*
X2619016D1*
X1207402Y994016D2*
Y2157402D1*
X1669016Y2194016D2*
X1769016D1*
X1250709Y994016D2*
Y1350709D1*
X1669016Y1394016D2*
X1769016D1*
X1034173Y994016D2*
X1031516D1*
Y1156516D1*
X1019016Y1169016D1*
Y1594016D1*
X1669016D2*
X1769016D1*
X769016Y2194016D2*
X906516D1*
X1669016Y2094016D2*
X1769016D1*
X1669016Y1994016D2*
X1769016D1*
X1669016Y1894016D2*
X1769016D1*
X1669016Y1794016D2*
X1769016D1*
X1244016Y2669016D2*
Y2769016D1*
X1669016Y694016D2*
X1769016D1*
X1669016Y594016D2*
X1769016D1*
X1669016Y494016D2*
X1769016D1*
X1744016Y2969016D2*
D16*
X1794016D1*
X1894016Y3074436D1*
Y3094016D1*
X1944016Y3144016D1*
X1956516D1*
X1744016Y2869016D2*
X1781516D1*
X2056516Y3144016D1*
X1744016Y2769016D2*
X1781516D1*
X2156516Y3144016D1*
X1744016Y2669016D2*
X1756516D1*
X2056516Y2969016D1*
X2094016D1*
X2256516Y3131516D1*
Y3144016D1*
X1794213Y4419016D2*
D13*
Y4319213D1*
X1794016Y4319016D1*
Y4418819D2*
X1794213Y4419016D1*
X1669016Y1094016D2*
X1769016D1*
X1794016Y4319016D2*
Y4281516D1*
X1831516Y4244016D1*
X2744016D1*
X2944016D2*
Y2256516D1*
X2719016Y2031516D1*
X2069016D1*
X1869016Y1831516D1*
Y1144016D1*
X1819016Y1094016D1*
X1769016D1*
X1120787Y994016D2*
Y1442244D1*
X1669016Y1494016D2*
X1769016D1*
X1244016Y3169016D2*
X1231516D1*
X1119016Y3056516D1*
Y1552087D1*
X1063307Y1496378D1*
Y1299528D1*
X1669016Y1294016D2*
X1769016D1*
X894016Y3119016D2*
D17*
X919016D1*
X994016Y3044016D1*
Y2894016D1*
X894016Y2794016D1*
X594016D1*
X519016Y2719016D1*
X894016Y3119016D2*
X944016D1*
X1219016Y3394016D1*
X1744016D1*
X2319016D1*
X2544016Y3169016D1*
Y2844016D1*
X1744016Y3169016D2*
Y3394016D1*
Y3169016D2*
X1594016D1*
X1494016Y3069016D1*
X2544016Y2844016D2*
X2344016D1*
X2294016Y2794016D1*
D42*
X1169016Y2294016D3*
X1569016Y2244016D3*
X944016Y2069016D3*
X894016Y1994016D3*
X1319016D3*
X1207402Y2157402D3*
X1250709Y1350709D3*
X1019016Y1594016D3*
X2744016Y4244016D3*
X2944016D3*
X1120787Y1442244D3*
X1063307Y1299528D3*
X1081516Y906516D3*
X906516Y881516D3*
Y669016D3*
X1481516D3*
Y894016D3*
X2356516Y2544016D3*
Y2594016D3*
Y2494016D3*
X1556516Y2819016D3*
Y2869016D3*
Y2769016D3*
X469016Y2231516D3*
Y1656516D3*
X481516Y1094016D3*
X1056516Y2194016D3*
X6194016Y3844016D3*
X6206516Y1056516D3*
X631516Y1419016D3*
X644016Y881516D3*
X631516Y1981516D3*
D19*
X894016Y2794016D3*
Y2683780D3*
Y2419016D3*
Y2529252D3*
D20*
X594016Y744016D3*
Y818819D3*
Y1294016D3*
Y1368819D3*
D22*
X2294016Y2545984D3*
Y2794016D3*
X1494016Y2820984D3*
Y3069016D3*
D20*
X594016Y1844213D3*
Y1919016D3*
D23*
X1794213Y4419016D3*
X1869016D3*
D24*
X2069016Y4369016D3*
D25*
X2169016D3*
D24*
X2694016Y2644016D3*
D25*
Y2544016D3*
Y2444016D3*
Y2344016D3*
D24*
X1956516Y3144016D3*
D25*
X2056516D3*
X2156516D3*
X2256516D3*
D26*
X2619016Y4369016D3*
D27*
X2519016D3*
X2419016D3*
D28*
X894016Y3119016D3*
X657795D3*
D29*
X775906Y2933976D3*
D30*
X1294016Y994016D3*
X1250709D3*
X1207402D3*
X1164094D3*
X1120787D3*
X1077480D3*
X1034173D3*
X990866D3*
X947559D3*
D31*
X1482205Y578661D3*
D32*
Y960551D3*
D33*
X904252D3*
D31*
Y578661D3*
D34*
X551496Y4370394D3*
X6334606Y929803D3*
Y3992087D3*
X551496Y551496D3*
X896417Y4055433D3*
D107*
X2160669Y718819D3*
Y1742441D3*
X3184291Y718819D3*
D34*
X2677480Y4016063D3*
D35*
X4803465Y2460945D3*
D36*
X519016Y2719016D3*
D37*
Y2619016D3*
Y2519016D3*
D20*
X494016Y819016D3*
Y744213D3*
Y1369016D3*
Y1294213D3*
Y1918819D3*
Y1844016D3*
D23*
X1868819Y4319016D3*
X1794016D3*
D38*
X544016Y1069016D3*
Y889882D3*
Y1623150D3*
Y1444016D3*
Y2198150D3*
Y2019016D3*
D39*
X769016Y494016D3*
Y594016D3*
Y694016D3*
Y794016D3*
Y894016D3*
Y994016D3*
Y1094016D3*
Y1194016D3*
Y1294016D3*
Y1394016D3*
Y1494016D3*
Y1594016D3*
Y1694016D3*
Y1794016D3*
Y1894016D3*
Y1994016D3*
Y2094016D3*
Y2194016D3*
Y2294016D3*
X1669016Y494016D3*
Y594016D3*
Y694016D3*
Y794016D3*
Y894016D3*
Y994016D3*
Y1094016D3*
Y1194016D3*
Y1294016D3*
Y1394016D3*
Y1494016D3*
Y1594016D3*
Y1694016D3*
Y1794016D3*
Y1894016D3*
Y1994016D3*
Y2094016D3*
Y2194016D3*
Y2294016D3*
X1769016D3*
Y494016D3*
Y594016D3*
Y694016D3*
Y794016D3*
Y894016D3*
Y994016D3*
Y1094016D3*
Y1194016D3*
Y1294016D3*
Y1394016D3*
Y1494016D3*
Y1594016D3*
Y1694016D3*
Y1794016D3*
Y1894016D3*
Y1994016D3*
Y2094016D3*
Y2194016D3*
D40*
X2044016Y2844016D3*
D41*
Y2744016D3*
Y2644016D3*
Y2544016D3*
Y2444016D3*
Y2344016D3*
Y2244016D3*
Y2144016D3*
X2544016D3*
Y2244016D3*
Y2344016D3*
Y2444016D3*
Y2544016D3*
Y2644016D3*
Y2744016D3*
Y2844016D3*
D40*
X1244016Y3169016D3*
D41*
Y3069016D3*
Y2969016D3*
Y2869016D3*
Y2769016D3*
Y2669016D3*
Y2569016D3*
Y2469016D3*
X1744016D3*
Y2569016D3*
Y2669016D3*
Y2769016D3*
Y2869016D3*
Y2969016D3*
Y3069016D3*
Y3169016D3*
D23*
X906516Y2194016D3*
X981319D3*
G36*
X6575118Y2460945D2*
X6565413Y2646133D1*
X6536403Y2829293D1*
X6488407Y3008416D1*
X6421950Y3181541D1*
X6152203Y3061442D1*
D1*
X6207584Y2917171D1*
X6247580Y2767902D1*
X6271755Y2615269D1*
X6279843Y2460945D1*
X6271755Y2306621D1*
X6247580Y2153988D1*
X6207584Y2004719D1*
X6152203Y1860448D1*
X6082046Y1722756D1*
X5997879Y1593152D1*
X5900627Y1473055D1*
X5791354Y1363782D1*
X5671257Y1266530D1*
X5541654Y1182364D1*
X5403962Y1112206D1*
X5259690Y1056825D1*
X5110421Y1016829D1*
X4957789Y992655D1*
X4803465Y984567D1*
X4649140Y992655D1*
X4496508Y1016829D1*
X4347239Y1056825D1*
X4202967Y1112206D1*
X4065276Y1182364D1*
X3935672Y1266530D1*
X3815575Y1363782D1*
X3706302Y1473055D1*
X3609050Y1593152D1*
X3524883Y1722756D1*
X3454726Y1860448D1*
X3399345Y2004719D1*
X3359349Y2153988D1*
X3335175Y2306621D1*
X3327087Y2460945D1*
X3335175Y2615269D1*
X3359349Y2767902D1*
X3399345Y2917171D1*
X3454726Y3061442D1*
X3524883Y3199134D1*
X3609050Y3328738D1*
X3706302Y3448835D1*
X3815575Y3558108D1*
X3935672Y3655360D1*
X4065276Y3739526D1*
X4202967Y3809684D1*
X4347239Y3865064D1*
X4496508Y3905060D1*
X4649140Y3929235D1*
X4803465Y3937323D1*
X4957789Y3929235D1*
X5110421Y3905060D1*
X5259690Y3865064D1*
X5403962Y3809684D1*
X5541654Y3739526D1*
X5671257Y3655360D1*
X5791354Y3558108D1*
X5900627Y3448835D1*
X5997879Y3328738D1*
X6082046Y3199134D1*
X6152203Y3061442D1*
X6421950Y3181541D1*
X6337761Y3346772D1*
X6236762Y3502297D1*
X6120060Y3646412D1*
X5988932Y3777541D1*
X5844816Y3894243D1*
X5689291Y3995241D1*
X5524060Y4079430D1*
X5350936Y4145887D1*
X5171812Y4193883D1*
X4988652Y4222894D1*
X4803465Y4232598D1*
X4618277Y4222894D1*
X4435117Y4193883D1*
X4255993Y4145887D1*
X4082869Y4079430D1*
X3917638Y3995241D1*
X3762113Y3894243D1*
X3617997Y3777541D1*
X3486869Y3646412D1*
X3370167Y3502297D1*
X3269168Y3346772D1*
X3184979Y3181541D1*
X3118522Y3008416D1*
X3070526Y2829293D1*
X3041516Y2646133D1*
X3031811Y2460945D1*
X3041516Y2275757D1*
X3070526Y2092597D1*
X3118522Y1913474D1*
X3184979Y1740349D1*
X3269168Y1575118D1*
X3370167Y1419593D1*
X3486869Y1275478D1*
X3617997Y1144349D1*
X3762113Y1027647D1*
X3917638Y926648D1*
X4082869Y842459D1*
X4255993Y776003D1*
X4435117Y728007D1*
X4618277Y698996D1*
X4803465Y689291D1*
X4988652Y698996D1*
X5171812Y728007D1*
X5350936Y776003D1*
X5524060Y842459D1*
X5689291Y926648D1*
X5844816Y1027647D1*
X5988932Y1144349D1*
X6120060Y1275478D1*
X6236762Y1419593D1*
X6337761Y1575118D1*
X6421950Y1740349D1*
X6488407Y1913474D1*
X6536403Y2092597D1*
X6565413Y2275757D1*
X6575118Y2460945D1*
G37*
M02*
