G04 DipTrace 3.3.0.0*
G04 TopMask.gbr*
%MOIN*%
G04 #@! TF.FileFunction,Soldermask,Top*
G04 #@! TF.Part,Single*
%AMOUTLINE1*
4,1,16,
0.114883,-0.040597,
0.144785,-0.01285,
0.159858,0.025554,
0.156775,0.066694,
0.136147,0.102424,
0.102059,0.125664,
0.061263,0.131812,
0.022284,0.119789,
-0.114883,0.040597,
-0.144785,0.01285,
-0.159858,-0.025554,
-0.156775,-0.066694,
-0.136147,-0.102424,
-0.102059,-0.125664,
-0.061263,-0.131812,
-0.022284,-0.119789,
0.114883,-0.040597,
0*%
%ADD44C,0.03937*%
%ADD45C,0.027559*%
%ADD56C,0.067031*%
%ADD58R,0.067031X0.067031*%
%ADD60C,0.068031*%
%ADD62R,0.082835X0.045433*%
%ADD64C,0.078898*%
%ADD66R,0.078898X0.078898*%
%ADD68C,0.283622*%
%ADD70C,0.208031*%
%ADD72R,0.039528X0.06315*%
%ADD74R,0.055276X0.06315*%
%ADD76R,0.055276X0.086772*%
%ADD78R,0.035591X0.059213*%
%ADD80O,0.126142X0.086772*%
%ADD82O,0.086772X0.126142*%
%ADD84C,0.074961*%
%ADD86R,0.074961X0.074961*%
%ADD88C,0.067087*%
%ADD90R,0.067087X0.067087*%
%ADD92R,0.059213X0.067087*%
%ADD94R,0.071024X0.171417*%
%ADD96R,0.067087X0.059213*%
%ADD98R,0.114331X0.071024*%
%ADD108OUTLINE1*%
%FSLAX26Y26*%
G04*
G70*
G90*
G75*
G01*
G04 TopMask*
%LPD*%
D98*
X894016Y2794016D3*
Y2683780D3*
Y2419016D3*
Y2529252D3*
D96*
X594016Y744016D3*
Y818819D3*
Y1294016D3*
Y1368819D3*
D94*
X2294016Y2545984D3*
Y2794016D3*
X1494016Y2820984D3*
Y3069016D3*
D96*
X594016Y1844213D3*
Y1919016D3*
D92*
X1794213Y4419016D3*
X1869016D3*
D90*
X2069016Y4369016D3*
D88*
X2169016D3*
D90*
X2694016Y2644016D3*
D88*
Y2544016D3*
Y2444016D3*
Y2344016D3*
D90*
X1956516Y3144016D3*
D88*
X2056516D3*
X2156516D3*
X2256516D3*
D86*
X2619016Y4369016D3*
D84*
X2519016D3*
X2419016D3*
D82*
X894016Y3119016D3*
X657795D3*
D80*
X775906Y2933976D3*
D78*
X1294016Y994016D3*
X1250709D3*
X1207402D3*
X1164094D3*
X1120787D3*
X1077480D3*
X1034173D3*
X990866D3*
X947559D3*
D76*
X1482205Y578661D3*
D74*
Y960551D3*
D72*
X904252D3*
D76*
Y578661D3*
D44*
X1014882Y562913D3*
X1329843D3*
D70*
X551496Y4370394D3*
X6334606Y929803D3*
Y3992087D3*
X551496Y551496D3*
X896417Y4055433D3*
D108*
X2160669Y718819D3*
Y1742441D3*
X3184291Y718819D3*
D70*
X2677480Y4016063D3*
D68*
X4803465Y2460945D3*
D66*
X519016Y2719016D3*
D64*
Y2619016D3*
Y2519016D3*
D96*
X494016Y819016D3*
Y744213D3*
Y1369016D3*
Y1294213D3*
Y1918819D3*
Y1844016D3*
D92*
X1868819Y4319016D3*
X1794016D3*
D62*
X544016Y1069016D3*
Y889882D3*
D45*
X581417Y979449D3*
X506614D3*
D62*
X544016Y1623150D3*
Y1444016D3*
D45*
X581417Y1533583D3*
X506614D3*
D62*
X544016Y2198150D3*
Y2019016D3*
D45*
X581417Y2108583D3*
X506614D3*
D60*
X769016Y494016D3*
Y594016D3*
Y694016D3*
Y794016D3*
Y894016D3*
Y994016D3*
Y1094016D3*
Y1194016D3*
Y1294016D3*
Y1394016D3*
Y1494016D3*
Y1594016D3*
Y1694016D3*
Y1794016D3*
Y1894016D3*
Y1994016D3*
Y2094016D3*
Y2194016D3*
Y2294016D3*
X1669016Y494016D3*
Y594016D3*
Y694016D3*
Y794016D3*
Y894016D3*
Y994016D3*
Y1094016D3*
Y1194016D3*
Y1294016D3*
Y1394016D3*
Y1494016D3*
Y1594016D3*
Y1694016D3*
Y1794016D3*
Y1894016D3*
Y1994016D3*
Y2094016D3*
Y2194016D3*
Y2294016D3*
X1769016D3*
Y494016D3*
Y594016D3*
Y694016D3*
Y794016D3*
Y894016D3*
Y994016D3*
Y1094016D3*
Y1194016D3*
Y1294016D3*
Y1394016D3*
Y1494016D3*
Y1594016D3*
Y1694016D3*
Y1794016D3*
Y1894016D3*
Y1994016D3*
Y2094016D3*
Y2194016D3*
D58*
X2044016Y2844016D3*
D56*
Y2744016D3*
Y2644016D3*
Y2544016D3*
Y2444016D3*
Y2344016D3*
Y2244016D3*
Y2144016D3*
X2544016D3*
Y2244016D3*
Y2344016D3*
Y2444016D3*
Y2544016D3*
Y2644016D3*
Y2744016D3*
Y2844016D3*
D58*
X1244016Y3169016D3*
D56*
Y3069016D3*
Y2969016D3*
Y2869016D3*
Y2769016D3*
Y2669016D3*
Y2569016D3*
Y2469016D3*
X1744016D3*
Y2569016D3*
Y2669016D3*
Y2769016D3*
Y2869016D3*
Y2969016D3*
Y3069016D3*
Y3169016D3*
D92*
X906516Y2194016D3*
X981319D3*
G36*
X6575118Y2460945D2*
X6565413Y2646133D1*
X6536403Y2829293D1*
X6488407Y3008416D1*
X6421950Y3181541D1*
X6152203Y3061442D1*
D1*
X6207584Y2917171D1*
X6247580Y2767902D1*
X6271755Y2615269D1*
X6279843Y2460945D1*
X6271755Y2306621D1*
X6247580Y2153988D1*
X6207584Y2004719D1*
X6152203Y1860448D1*
X6082046Y1722756D1*
X5997879Y1593152D1*
X5900627Y1473055D1*
X5791354Y1363782D1*
X5671257Y1266530D1*
X5541654Y1182364D1*
X5403962Y1112206D1*
X5259690Y1056825D1*
X5110421Y1016829D1*
X4957789Y992655D1*
X4803465Y984567D1*
X4649140Y992655D1*
X4496508Y1016829D1*
X4347239Y1056825D1*
X4202967Y1112206D1*
X4065276Y1182364D1*
X3935672Y1266530D1*
X3815575Y1363782D1*
X3706302Y1473055D1*
X3609050Y1593152D1*
X3524883Y1722756D1*
X3454726Y1860448D1*
X3399345Y2004719D1*
X3359349Y2153988D1*
X3335175Y2306621D1*
X3327087Y2460945D1*
X3335175Y2615269D1*
X3359349Y2767902D1*
X3399345Y2917171D1*
X3454726Y3061442D1*
X3524883Y3199134D1*
X3609050Y3328738D1*
X3706302Y3448835D1*
X3815575Y3558108D1*
X3935672Y3655360D1*
X4065276Y3739526D1*
X4202967Y3809684D1*
X4347239Y3865064D1*
X4496508Y3905060D1*
X4649140Y3929235D1*
X4803465Y3937323D1*
X4957789Y3929235D1*
X5110421Y3905060D1*
X5259690Y3865064D1*
X5403962Y3809684D1*
X5541654Y3739526D1*
X5671257Y3655360D1*
X5791354Y3558108D1*
X5900627Y3448835D1*
X5997879Y3328738D1*
X6082046Y3199134D1*
X6152203Y3061442D1*
X6421950Y3181541D1*
X6337761Y3346772D1*
X6236762Y3502297D1*
X6120060Y3646412D1*
X5988932Y3777541D1*
X5844816Y3894243D1*
X5689291Y3995241D1*
X5524060Y4079430D1*
X5350936Y4145887D1*
X5171812Y4193883D1*
X4988652Y4222894D1*
X4803465Y4232598D1*
X4618277Y4222894D1*
X4435117Y4193883D1*
X4255993Y4145887D1*
X4082869Y4079430D1*
X3917638Y3995241D1*
X3762113Y3894243D1*
X3617997Y3777541D1*
X3486869Y3646412D1*
X3370167Y3502297D1*
X3269168Y3346772D1*
X3184979Y3181541D1*
X3118522Y3008416D1*
X3070526Y2829293D1*
X3041516Y2646133D1*
X3031811Y2460945D1*
X3041516Y2275757D1*
X3070526Y2092597D1*
X3118522Y1913474D1*
X3184979Y1740349D1*
X3269168Y1575118D1*
X3370167Y1419593D1*
X3486869Y1275478D1*
X3617997Y1144349D1*
X3762113Y1027647D1*
X3917638Y926648D1*
X4082869Y842459D1*
X4255993Y776003D1*
X4435117Y728007D1*
X4618277Y698996D1*
X4803465Y689291D1*
X4988652Y698996D1*
X5171812Y728007D1*
X5350936Y776003D1*
X5524060Y842459D1*
X5689291Y926648D1*
X5844816Y1027647D1*
X5988932Y1144349D1*
X6120060Y1275478D1*
X6236762Y1419593D1*
X6337761Y1575118D1*
X6421950Y1740349D1*
X6488407Y1913474D1*
X6536403Y2092597D1*
X6565413Y2275757D1*
X6575118Y2460945D1*
G37*
M02*
