G04 DipTrace 3.3.0.0*
G04 TopPaste.gbr*
%MOIN*%
G04 #@! TF.FileFunction,Paste,Top*
G04 #@! TF.Part,Single*
%ADD63R,0.066772X0.02937*%
%ADD73R,0.023465X0.047087*%
%ADD75R,0.039213X0.047087*%
%ADD77R,0.039213X0.070709*%
%ADD79R,0.019528X0.04315*%
%ADD93R,0.04315X0.051024*%
%ADD95R,0.054961X0.155354*%
%ADD97R,0.051024X0.04315*%
%ADD99R,0.098268X0.054961*%
%FSLAX26Y26*%
G04*
G70*
G90*
G75*
G01*
G04 TopPaste*
%LPD*%
D99*
X894016Y2794016D3*
Y2683780D3*
Y2419016D3*
Y2529252D3*
D97*
X594016Y744016D3*
Y818819D3*
Y1294016D3*
Y1368819D3*
D95*
X2294016Y2545984D3*
Y2794016D3*
X1494016Y2820984D3*
Y3069016D3*
D97*
X594016Y1844213D3*
Y1919016D3*
D93*
X1794213Y4419016D3*
X1869016D3*
D79*
X1294016Y994016D3*
X1250709D3*
X1207402D3*
X1164094D3*
X1120787D3*
X1077480D3*
X1034173D3*
X990866D3*
X947559D3*
D77*
X1482205Y578661D3*
D75*
Y960551D3*
D73*
X904252D3*
D77*
Y578661D3*
D97*
X494016Y819016D3*
Y744213D3*
Y1369016D3*
Y1294213D3*
Y1918819D3*
Y1844016D3*
D93*
X1868819Y4319016D3*
X1794016D3*
D63*
X544016Y1069016D3*
Y889882D3*
Y1623150D3*
Y1444016D3*
Y2198150D3*
Y2019016D3*
D93*
X906516Y2194016D3*
X981319D3*
M02*
