G04 DipTrace 3.3.0.0*
G04 TopSilk.gbr*
%MOIN*%
G04 #@! TF.FileFunction,Legend,Top*
G04 #@! TF.Part,Single*
%ADD10C,0.009843*%
%ADD21C,0.031482*%
%ADD100C,0.006176*%
%ADD101C,0.015439*%
%ADD102C,0.009264*%
%ADD104C,0.00772*%
%ADD106C,0.010807*%
%FSLAX26Y26*%
G04*
G70*
G90*
G75*
G01*
G04 TopSilk*
%LPD*%
X844799Y2743228D2*
D10*
X943232D1*
X844799Y2750677D2*
X943232D1*
X844799D2*
Y2727118D1*
X943232Y2750677D2*
Y2727118D1*
Y2469803D2*
X844799D1*
X943232Y2462354D2*
X844799D1*
X943232D2*
Y2485913D1*
X844799Y2462354D2*
Y2485913D1*
X619587Y702656D2*
X568445D1*
X619587Y1252656D2*
X568445D1*
X2459016Y2790153D2*
Y2504909D1*
X2414136Y2835079D2*
X2459016Y2790153D1*
X2129016D2*
Y2504909D1*
X2173896Y2835079D2*
X2129016Y2790153D1*
X2341272Y2835079D2*
X2414136D1*
X2173896D2*
X2246760D1*
X2341272Y2504909D2*
X2459016D1*
X2129016D2*
X2246760D1*
D21*
X2353053Y2866849D3*
X1659016Y3065153D2*
D10*
Y2779909D1*
X1614136Y3110079D2*
X1659016Y3065153D1*
X1329016D2*
Y2779909D1*
X1373896Y3110079D2*
X1329016Y3065153D1*
X1541272Y3110079D2*
X1614136D1*
X1373896D2*
X1446760D1*
X1541272Y2779909D2*
X1659016D1*
X1329016D2*
X1446760D1*
D21*
X1553053Y3141849D3*
X619587Y1802853D2*
D10*
X568445D1*
X1752853Y4393445D2*
Y4444587D1*
X2219016Y4319016D2*
Y4419016D1*
X2019016Y4319016D2*
X2219016D1*
X2019016D2*
Y4419016D1*
X2219016D1*
X2644016Y2294016D2*
X2744016D1*
X2644016Y2694016D2*
Y2294016D1*
X2744016Y2694016D2*
Y2294016D1*
X2644016Y2694016D2*
X2744016D1*
X2306516Y3094016D2*
Y3194016D1*
X1906516Y3094016D2*
X2306516D1*
X1906516Y3194016D2*
X2306516D1*
X1906516Y3094016D2*
Y3194016D1*
X2668997Y4319011D2*
X2369035D1*
Y4419016D1*
X2668997D1*
Y4319011D1*
X699112Y2941831D2*
X354646D1*
Y3296173D1*
X358581D1*
X354646D2*
X921580D1*
Y3189878D1*
Y3048165D2*
Y2941831D1*
X852652D1*
X904269Y444606D2*
X929244Y469626D1*
X854252Y444606D2*
X1529252D1*
Y1044606D1*
X854252D1*
Y444606D1*
X929244Y469626D2*
X1454259D1*
X1479234Y444606D1*
X1179264Y469626D2*
Y644586D1*
X1129247Y619626D1*
X1179264Y644586D2*
X1229282Y619626D1*
X774921Y2845394D2*
X440276D1*
Y2388701D1*
X774921D1*
Y2845394D1*
X583382Y1068033D2*
X603071D1*
Y890864D1*
X583382D1*
X504650Y1068033D2*
X484961D1*
Y890864D1*
X504650D1*
X484961Y979449D2*
G02X484961Y979449I59055J0D01*
G01*
X583382Y1622167D2*
X603071D1*
Y1444998D1*
X583382D1*
X504650Y1622167D2*
X484961D1*
Y1444998D1*
X504650D1*
X484961Y1533583D2*
G02X484961Y1533583I59055J0D01*
G01*
X583382Y2197167D2*
X603071D1*
Y2019998D1*
X583382D1*
X504650Y2197167D2*
X484961D1*
Y2019998D1*
X504650D1*
X484961Y2108583D2*
G02X484961Y2108583I59055J0D01*
G01*
X719016Y2344016D2*
X1718988D1*
Y444016D1*
X719016D1*
Y2344016D1*
X819024D2*
Y444016D1*
X1618980Y2344016D2*
Y444016D1*
X1069044Y593926D2*
X1369068D1*
Y444016D1*
X1069044D1*
Y593926D1*
X1994016Y2894016D2*
X2094036D1*
Y2094016D1*
X1994016D1*
Y2894016D1*
X2493996D2*
X2594016D1*
Y2094016D1*
X2493996D1*
Y2894016D1*
X2094036D2*
X2493996D1*
Y2094016D1*
X2094036D1*
Y2894016D1*
X1194016Y3219016D2*
X1294036D1*
Y2419016D1*
X1194016D1*
Y3219016D1*
X1693996D2*
X1794016D1*
Y2419016D1*
X1693996D1*
Y3219016D1*
X1294036D2*
X1693996D1*
Y2419016D1*
X1294036D1*
Y3219016D1*
X865156Y2168445D2*
Y2219587D1*
X997391Y2749540D2*
D100*
X995489Y2753342D1*
X991643Y2757189D1*
X987840Y2759090D1*
X980191D1*
X976344Y2757189D1*
X972541Y2753342D1*
X970596Y2749540D1*
X968695Y2743792D1*
Y2734197D1*
X970596Y2728493D1*
X972541Y2724646D1*
X976344Y2720844D1*
X980191Y2718898D1*
X987840D1*
X991643Y2720844D1*
X995489Y2724646D1*
X997391Y2728493D1*
X1009742Y2751397D2*
X1013589Y2753342D1*
X1019337Y2759046D1*
Y2718898D1*
X988791Y2484776D2*
X986889Y2488578D1*
X983043Y2492425D1*
X979240Y2494326D1*
X971591D1*
X967744Y2492425D1*
X963942Y2488578D1*
X961996Y2484776D1*
X960095Y2479028D1*
Y2469433D1*
X961996Y2463729D1*
X963942Y2459883D1*
X967744Y2456080D1*
X971591Y2454134D1*
X979240D1*
X983043Y2456080D1*
X986889Y2459883D1*
X988791Y2463729D1*
X1003088Y2484732D2*
Y2486633D1*
X1004989Y2490480D1*
X1006890Y2492381D1*
X1010737Y2494282D1*
X1018386D1*
X1022189Y2492381D1*
X1024090Y2490480D1*
X1026035Y2486633D1*
Y2482830D1*
X1024090Y2478984D1*
X1020287Y2473280D1*
X1001142Y2454134D1*
X1027937D1*
X640460Y780808D2*
X636658Y778907D1*
X632811Y775060D1*
X630910Y771257D1*
Y763608D1*
X632811Y759761D1*
X636658Y755959D1*
X640460Y754013D1*
X646208Y752112D1*
X655803D1*
X661507Y754013D1*
X665354Y755959D1*
X669156Y759761D1*
X671102Y763608D1*
Y771257D1*
X669156Y775060D1*
X665354Y778907D1*
X661507Y780808D1*
X630954Y797006D2*
Y818008D1*
X646253Y806557D1*
Y812305D1*
X648154Y816107D1*
X650055Y818008D1*
X655803Y819954D1*
X659606D1*
X665354Y818008D1*
X669200Y814206D1*
X671102Y808458D1*
Y802710D1*
X669201Y797006D1*
X667255Y795105D1*
X663452Y793159D1*
X640460Y1329857D2*
X636658Y1327956D1*
X632811Y1324109D1*
X630910Y1320307D1*
Y1312657D1*
X632811Y1308811D1*
X636658Y1305008D1*
X640460Y1303063D1*
X646208Y1301161D1*
X655803D1*
X661507Y1303063D1*
X665354Y1305008D1*
X669156Y1308811D1*
X671102Y1312657D1*
Y1320307D1*
X669156Y1324109D1*
X665354Y1327956D1*
X661507Y1329857D1*
X671102Y1361354D2*
X630954D1*
X657704Y1342209D1*
Y1370904D1*
X2401291Y2456626D2*
X2399389Y2460429D1*
X2395543Y2464276D1*
X2391740Y2466177D1*
X2384091D1*
X2380244Y2464276D1*
X2376442Y2460429D1*
X2374496Y2456626D1*
X2372595Y2450878D1*
Y2441283D1*
X2374496Y2435580D1*
X2376442Y2431733D1*
X2380244Y2427930D1*
X2384091Y2425985D1*
X2391740D1*
X2395543Y2427930D1*
X2399389Y2431733D1*
X2401291Y2435580D1*
X2436590Y2466133D2*
X2417489D1*
X2415588Y2448933D1*
X2417489Y2450834D1*
X2423237Y2452780D1*
X2428941D1*
X2434689Y2450834D1*
X2438535Y2447032D1*
X2440437Y2441283D1*
Y2437481D1*
X2438535Y2431733D1*
X2434689Y2427886D1*
X2428941Y2425985D1*
X2423237D1*
X2417489Y2427886D1*
X2415588Y2429832D1*
X2413642Y2433634D1*
X1577263Y2731626D2*
X1575362Y2735429D1*
X1571515Y2739276D1*
X1567713Y2741177D1*
X1560064D1*
X1556217Y2739276D1*
X1552414Y2735429D1*
X1550469Y2731626D1*
X1548567Y2725878D1*
Y2716283D1*
X1550469Y2710580D1*
X1552414Y2706733D1*
X1556217Y2702930D1*
X1560064Y2700985D1*
X1567713D1*
X1571515Y2702930D1*
X1575362Y2706733D1*
X1577263Y2710580D1*
X1612563Y2735429D2*
X1610661Y2739231D1*
X1604913Y2741133D1*
X1601111D1*
X1595363Y2739231D1*
X1591516Y2733483D1*
X1589615Y2723933D1*
Y2714382D1*
X1591516Y2706733D1*
X1595363Y2702886D1*
X1601111Y2700985D1*
X1603012D1*
X1608716Y2702886D1*
X1612563Y2706733D1*
X1614464Y2712481D1*
Y2714382D1*
X1612563Y2720130D1*
X1608716Y2723933D1*
X1603012Y2725834D1*
X1601111D1*
X1595363Y2723933D1*
X1591516Y2720130D1*
X1589615Y2714382D1*
X640460Y1868505D2*
X636658Y1866603D1*
X632811Y1862757D1*
X630910Y1858954D1*
Y1851305D1*
X632811Y1847458D1*
X636658Y1843656D1*
X640460Y1841710D1*
X646208Y1839809D1*
X655803D1*
X661507Y1841710D1*
X665354Y1843656D1*
X669156Y1847458D1*
X671102Y1851305D1*
Y1858954D1*
X669156Y1862757D1*
X665354Y1866603D1*
X661507Y1868505D1*
X671102Y1888505D2*
X630954Y1907651D1*
Y1880856D1*
X1681027Y4435071D2*
X1679125Y4438874D1*
X1675279Y4442720D1*
X1671476Y4444622D1*
X1663827D1*
X1659980Y4442720D1*
X1656178Y4438874D1*
X1654232Y4435071D1*
X1652331Y4429323D1*
Y4419728D1*
X1654232Y4414025D1*
X1656178Y4410178D1*
X1659980Y4406375D1*
X1663827Y4404430D1*
X1671476D1*
X1675279Y4406375D1*
X1679125Y4410178D1*
X1681027Y4414025D1*
X1702929Y4444578D2*
X1697225Y4442676D1*
X1695279Y4438874D1*
Y4435027D1*
X1697225Y4431224D1*
X1701027Y4429279D1*
X1708677Y4427378D1*
X1714425Y4425476D1*
X1718227Y4421630D1*
X1720129Y4417827D1*
Y4412079D1*
X1718227Y4408277D1*
X1716326Y4406331D1*
X1710578Y4404430D1*
X1702929D1*
X1697225Y4406331D1*
X1695279Y4408277D1*
X1693378Y4412079D1*
Y4417827D1*
X1695279Y4421630D1*
X1699126Y4425476D1*
X1704830Y4427378D1*
X1712479Y4429279D1*
X1716326Y4431224D1*
X1718227Y4435027D1*
Y4438874D1*
X1716326Y4442676D1*
X1710578Y4444578D1*
X1702929D1*
X2280115Y4402594D2*
Y4371997D1*
X2278214Y4366249D1*
X2276269Y4364348D1*
X2272466Y4362402D1*
X2268619D1*
X2264817Y4364348D1*
X2262915Y4366249D1*
X2260970Y4371997D1*
Y4375800D1*
X2292467Y4394901D2*
X2296313Y4396846D1*
X2302062Y4402550D1*
Y4362402D1*
X2684015Y2752594D2*
Y2721997D1*
X2682114Y2716249D1*
X2680169Y2714348D1*
X2676366Y2712402D1*
X2672519D1*
X2668717Y2714348D1*
X2666816Y2716249D1*
X2664870Y2721997D1*
Y2725800D1*
X2698312Y2742999D2*
Y2744901D1*
X2700214Y2748747D1*
X2702115Y2750649D1*
X2705962Y2752550D1*
X2713611D1*
X2717413Y2750649D1*
X2719315Y2748747D1*
X2721260Y2744901D1*
Y2741098D1*
X2719315Y2737251D1*
X2715512Y2731548D1*
X2696367Y2712402D1*
X2723161D1*
X2095565Y3252594D2*
Y3221997D1*
X2093663Y3216249D1*
X2091718Y3214348D1*
X2087915Y3212402D1*
X2084069D1*
X2080266Y3214348D1*
X2078365Y3216249D1*
X2076419Y3221997D1*
Y3225800D1*
X2127062Y3212402D2*
Y3252550D1*
X2107916Y3225800D1*
X2136612D1*
X2721515Y4390094D2*
Y4359497D1*
X2719614Y4353749D1*
X2717669Y4351848D1*
X2713866Y4349902D1*
X2710019D1*
X2706217Y4351848D1*
X2704316Y4353749D1*
X2702370Y4359497D1*
Y4363300D1*
X2756815Y4390050D2*
X2737714D1*
X2735812Y4372850D1*
X2737714Y4374751D1*
X2743462Y4376697D1*
X2749165D1*
X2754913Y4374751D1*
X2758760Y4370949D1*
X2760661Y4365201D1*
Y4361398D1*
X2758760Y4355650D1*
X2754913Y4351803D1*
X2749165Y4349902D1*
X2743462D1*
X2737714Y4351803D1*
X2735812Y4353749D1*
X2733867Y4357552D1*
X496515Y3404752D2*
Y3374154D1*
X494614Y3368406D1*
X492669Y3366505D1*
X488866Y3364560D1*
X485019D1*
X481217Y3366505D1*
X479316Y3368406D1*
X477370Y3374154D1*
Y3377957D1*
X516516Y3364560D2*
X535661Y3404707D1*
X508867D1*
X1181774Y1103185D2*
Y1072588D1*
X1179872Y1066840D1*
X1177927Y1064938D1*
X1174124Y1062993D1*
X1170278D1*
X1166475Y1064938D1*
X1164574Y1066840D1*
X1162628Y1072588D1*
Y1076390D1*
X1203676Y1103141D2*
X1197972Y1101239D1*
X1196026Y1097437D1*
Y1093590D1*
X1197972Y1089787D1*
X1201774Y1087842D1*
X1209424Y1085941D1*
X1215172Y1084039D1*
X1218974Y1080193D1*
X1220876Y1076390D1*
Y1070642D1*
X1218974Y1066840D1*
X1217073Y1064894D1*
X1211325Y1062993D1*
X1203676D1*
X1197972Y1064894D1*
X1196026Y1066840D1*
X1194125Y1070642D1*
Y1076390D1*
X1196026Y1080193D1*
X1199873Y1084039D1*
X1205577Y1085941D1*
X1213226Y1087842D1*
X1217073Y1089787D1*
X1218974Y1093590D1*
Y1097437D1*
X1217073Y1101239D1*
X1211325Y1103141D1*
X1203676D1*
X563655Y2882926D2*
X580899D1*
X586603Y2884827D1*
X588548Y2886772D1*
X590450Y2890575D1*
Y2896323D1*
X588548Y2900125D1*
X586603Y2902071D1*
X580899Y2903972D1*
X563655D1*
Y2863780D1*
X629596Y2898224D2*
X625793Y2902071D1*
X620045Y2903972D1*
X612396D1*
X606648Y2902071D1*
X602801Y2898224D1*
Y2894422D1*
X604747Y2890575D1*
X606648Y2888674D1*
X610450Y2886772D1*
X621946Y2882926D1*
X625793Y2881024D1*
X627694Y2879079D1*
X629596Y2875276D1*
Y2869528D1*
X625793Y2865726D1*
X620045Y2863780D1*
X612396D1*
X606648Y2865726D1*
X602801Y2869528D1*
X641947Y2896279D2*
X645794Y2898224D1*
X651542Y2903928D1*
Y2863780D1*
X437555Y757244D2*
Y774444D1*
X435610Y780192D1*
X433708Y782137D1*
X429906Y784039D1*
X426059D1*
X422257Y782137D1*
X420311Y780192D1*
X418410Y774444D1*
Y757244D1*
X458602D1*
X437555Y770641D2*
X458602Y784038D1*
X426103Y796390D2*
X424158Y800237D1*
X418454Y805985D1*
X458602D1*
X437555Y1298644D2*
Y1315844D1*
X435610Y1321592D1*
X433708Y1323537D1*
X429906Y1325439D1*
X426059D1*
X422257Y1323537D1*
X420311Y1321592D1*
X418410Y1315844D1*
Y1298644D1*
X458602D1*
X437555Y1312041D2*
X458602Y1325439D1*
X428005Y1339735D2*
X426103D1*
X422257Y1341637D1*
X420355Y1343538D1*
X418454Y1347385D1*
Y1355034D1*
X420355Y1358837D1*
X422257Y1360738D1*
X426103Y1362683D1*
X429906D1*
X433753Y1360738D1*
X439456Y1356935D1*
X458602Y1337790D1*
Y1364585D1*
X437555Y1848447D2*
Y1865647D1*
X435610Y1871395D1*
X433708Y1873340D1*
X429906Y1875242D1*
X426059D1*
X422257Y1873340D1*
X420311Y1871395D1*
X418410Y1865647D1*
Y1848447D1*
X458602D1*
X437555Y1861844D2*
X458602Y1875242D1*
X418454Y1891440D2*
Y1912442D1*
X433753Y1900990D1*
Y1906738D1*
X435654Y1910541D1*
X437555Y1912442D1*
X443303Y1914388D1*
X447106D1*
X452854Y1912442D1*
X456700Y1908640D1*
X458602Y1902892D1*
Y1897144D1*
X456701Y1891440D1*
X454755Y1889539D1*
X450952Y1887593D1*
X1649974Y4325476D2*
X1667174D1*
X1672922Y4327422D1*
X1674867Y4329323D1*
X1676769Y4333126D1*
Y4336972D1*
X1674867Y4340775D1*
X1672922Y4342720D1*
X1667174Y4344622D1*
X1649974D1*
Y4304430D1*
X1663371Y4325476D2*
X1676769Y4304430D1*
X1689120Y4336928D2*
X1692967Y4338874D1*
X1698715Y4344578D1*
Y4304430D1*
X1722562Y4344578D2*
X1716814Y4342676D1*
X1712967Y4336928D1*
X1711066Y4327378D1*
Y4321630D1*
X1712967Y4312079D1*
X1716814Y4306331D1*
X1722562Y4304430D1*
X1726365D1*
X1732113Y4306331D1*
X1735915Y4312079D1*
X1737861Y4321630D1*
Y4327378D1*
X1735915Y4336928D1*
X1732113Y4342676D1*
X1726365Y4344578D1*
X1722562D1*
X1735915Y4336928D2*
X1712967Y4312079D1*
X546440Y1140547D2*
X542637Y1144394D1*
X536889Y1146295D1*
X529240D1*
X523492Y1144394D1*
X519645Y1140547D1*
Y1136744D1*
X521591Y1132898D1*
X523492Y1130996D1*
X527295Y1129095D1*
X538791Y1125248D1*
X542637Y1123347D1*
X544539Y1121402D1*
X546440Y1117599D1*
Y1111851D1*
X542637Y1108048D1*
X536889Y1106103D1*
X529240D1*
X523492Y1108048D1*
X519645Y1111851D1*
X558791Y1138601D2*
X562638Y1140547D1*
X568386Y1146251D1*
Y1106103D1*
X537840Y1694681D2*
X534038Y1698528D1*
X528289Y1700429D1*
X520640D1*
X514892Y1698528D1*
X511045Y1694681D1*
Y1690878D1*
X512991Y1687032D1*
X514892Y1685130D1*
X518695Y1683229D1*
X530191Y1679382D1*
X534038Y1677481D1*
X535939Y1675535D1*
X537840Y1671733D1*
Y1665985D1*
X534038Y1662182D1*
X528289Y1660237D1*
X520640D1*
X514892Y1662182D1*
X511045Y1665985D1*
X552137Y1690834D2*
Y1692735D1*
X554038Y1696582D1*
X555939Y1698483D1*
X559786Y1700385D1*
X567436D1*
X571238Y1698483D1*
X573139Y1696582D1*
X575085Y1692735D1*
Y1688933D1*
X573139Y1685086D1*
X569337Y1679382D1*
X550191Y1660237D1*
X576986D1*
X537840Y2269681D2*
X534038Y2273528D1*
X528289Y2275429D1*
X520640D1*
X514892Y2273528D1*
X511045Y2269681D1*
Y2265878D1*
X512991Y2262032D1*
X514892Y2260130D1*
X518695Y2258229D1*
X530191Y2254382D1*
X534038Y2252481D1*
X535939Y2250535D1*
X537840Y2246733D1*
Y2240985D1*
X534038Y2237182D1*
X528289Y2235237D1*
X520640D1*
X514892Y2237182D1*
X511045Y2240985D1*
X554038Y2275385D2*
X575041D1*
X563589Y2260086D1*
X569337D1*
X573139Y2258185D1*
X575041Y2256283D1*
X576986Y2250535D1*
Y2246733D1*
X575041Y2240985D1*
X571238Y2237138D1*
X565490Y2235237D1*
X559742D1*
X554038Y2237138D1*
X552137Y2239084D1*
X550191Y2242886D1*
X872145Y2315094D2*
Y2286398D1*
X874047Y2280650D1*
X877893Y2276848D1*
X883641Y2274902D1*
X887444D1*
X893192Y2276848D1*
X897039Y2280650D1*
X898940Y2286398D1*
Y2315094D1*
X911291Y2307401D2*
X915138Y2309346D1*
X920886Y2315050D1*
Y2274902D1*
X2261045Y2065094D2*
Y2036398D1*
X2262947Y2030650D1*
X2266793Y2026848D1*
X2272541Y2024902D1*
X2276344D1*
X2282092Y2026848D1*
X2285939Y2030650D1*
X2287840Y2036398D1*
Y2065094D1*
X2302137Y2055499D2*
Y2057401D1*
X2304038Y2061247D1*
X2305939Y2063149D1*
X2309786Y2065050D1*
X2317436D1*
X2321238Y2063149D1*
X2323139Y2061247D1*
X2325085Y2057401D1*
Y2053598D1*
X2323139Y2049751D1*
X2319337Y2044048D1*
X2300191Y2024902D1*
X2326986D1*
X1198545Y3290094D2*
Y3261398D1*
X1200447Y3255650D1*
X1204293Y3251848D1*
X1210041Y3249902D1*
X1213844D1*
X1219592Y3251848D1*
X1223439Y3255650D1*
X1225340Y3261398D1*
Y3290094D1*
X1241538Y3290050D2*
X1262541D1*
X1251089Y3274751D1*
X1256837D1*
X1260639Y3272850D1*
X1262541Y3270949D1*
X1264486Y3265201D1*
Y3261398D1*
X1262541Y3255650D1*
X1258738Y3251803D1*
X1252990Y3249902D1*
X1247242D1*
X1241538Y3251803D1*
X1239637Y3253749D1*
X1237691Y3257552D1*
X944258Y2147571D2*
X942357Y2151374D1*
X938510Y2155220D1*
X934708Y2157122D1*
X927059D1*
X923212Y2155220D1*
X919409Y2151374D1*
X917464Y2147571D1*
X915562Y2141823D1*
Y2132228D1*
X917464Y2126525D1*
X919409Y2122678D1*
X923212Y2118875D1*
X927059Y2116930D1*
X934708D1*
X938510Y2118875D1*
X942357Y2122678D1*
X944258Y2126525D1*
X981503Y2143724D2*
X979558Y2137976D1*
X975755Y2134130D1*
X970007Y2132228D1*
X968106D1*
X962358Y2134130D1*
X958555Y2137976D1*
X956610Y2143724D1*
Y2145626D1*
X958555Y2151374D1*
X962358Y2155176D1*
X968106Y2157078D1*
X970007D1*
X975755Y2155176D1*
X979558Y2151374D1*
X981503Y2143724D1*
Y2134130D1*
X979558Y2124579D1*
X975755Y2118831D1*
X970007Y2116930D1*
X966205D1*
X960457Y2118831D1*
X958555Y2122678D1*
X3109133Y4381331D2*
D101*
X3094763D1*
X3085256Y4376577D1*
X3080393Y4371824D1*
X3075639Y4362207D1*
Y4343084D1*
X3080393Y4338331D1*
X3090010D1*
X3109133Y4343084D1*
X3113886Y4333578D1*
X3118639D1*
X3128256Y4343084D1*
X3133009Y4366960D1*
X3128256Y4381331D1*
X3123503Y4390947D1*
X3113886Y4400454D1*
X3104380Y4405207D1*
X3085256D1*
X3075639Y4400454D1*
X3066133Y4390947D1*
X3061269Y4381331D1*
X3056516Y4366960D1*
Y4343084D1*
X3061269Y4328714D1*
X3066133Y4319208D1*
X3075639Y4309591D1*
X3085256Y4304838D1*
X3104380D1*
X3113886Y4309591D1*
X3123503Y4319208D1*
X3109133Y4386084D2*
Y4343084D1*
X3163888Y4405318D2*
Y4304838D1*
Y4357454D2*
X3173505Y4367071D1*
X3183011Y4371824D1*
X3197381D1*
X3206887Y4367071D1*
X3216504Y4357454D1*
X3221258Y4343084D1*
Y4333578D1*
X3216504Y4319208D1*
X3206887Y4309701D1*
X3197381Y4304838D1*
X3183011D1*
X3173505Y4309701D1*
X3163888Y4319208D1*
X3252136Y4371824D2*
Y4323961D1*
X3256889Y4309701D1*
X3266506Y4304838D1*
X3280876D1*
X3290383Y4309701D1*
X3304753Y4323961D1*
Y4371824D2*
Y4304838D1*
X3335631Y4405318D2*
X3340384Y4400564D1*
X3345248Y4405318D1*
X3340384Y4410181D1*
X3335631Y4405318D1*
X3340384Y4371824D2*
Y4304838D1*
X3376126Y4405318D2*
Y4304838D1*
X3464375Y4405318D2*
Y4304838D1*
Y4357454D2*
X3454868Y4367071D1*
X3445251Y4371824D1*
X3430881D1*
X3421375Y4367071D1*
X3411758Y4357454D1*
X3407005Y4343084D1*
Y4333578D1*
X3411758Y4319208D1*
X3421375Y4309701D1*
X3430881Y4304838D1*
X3445251D1*
X3454868Y4309701D1*
X3464375Y4319208D1*
X3495253Y4405318D2*
Y4304838D1*
X3550008Y4371824D2*
X3540502Y4367071D1*
X3530885Y4357454D1*
X3526132Y4343084D1*
Y4333578D1*
X3530885Y4319208D1*
X3540502Y4309701D1*
X3550008Y4304838D1*
X3564378D1*
X3573995Y4309701D1*
X3583502Y4319208D1*
X3588365Y4333578D1*
Y4343084D1*
X3583502Y4357454D1*
X3573995Y4367071D1*
X3564378Y4371824D1*
X3550008D1*
X3676614Y4367071D2*
Y4290467D1*
X3671860Y4276208D1*
X3667107Y4271344D1*
X3657490Y4266591D1*
X3643120D1*
X3633614Y4271344D1*
X3676614Y4352701D2*
X3667107Y4362207D1*
X3657490Y4367071D1*
X3643120D1*
X3633614Y4362207D1*
X3623997Y4352701D1*
X3619244Y4338331D1*
Y4328714D1*
X3623997Y4314454D1*
X3633614Y4304838D1*
X3643120Y4300084D1*
X3657490D1*
X3667107Y4304838D1*
X3676614Y4314454D1*
X2006516Y490201D2*
X2049626D1*
X2063886Y494955D1*
X2068749Y499818D1*
X2073502Y509325D1*
Y523695D1*
X2068749Y533201D1*
X2063886Y538065D1*
X2049626Y542818D1*
X2006516D1*
Y442338D1*
X2128257Y509325D2*
X2118751Y504571D1*
X2109134Y494955D1*
X2104381Y480584D1*
Y471078D1*
X2109134Y456708D1*
X2118751Y447202D1*
X2128257Y442338D1*
X2142627D1*
X2152244Y447202D1*
X2161751Y456708D1*
X2166614Y471078D1*
Y480584D1*
X2161751Y494955D1*
X2152244Y504571D1*
X2142627Y509325D1*
X2128257D1*
X2197493Y542818D2*
Y442338D1*
X2285741Y509325D2*
Y442338D1*
Y494955D2*
X2276235Y504571D1*
X2266618Y509325D1*
X2252358D1*
X2242741Y504571D1*
X2233235Y494955D1*
X2228371Y480584D1*
Y471078D1*
X2233235Y456708D1*
X2242741Y447202D1*
X2252358Y442338D1*
X2266618D1*
X2276235Y447202D1*
X2285741Y456708D1*
X2316620Y509325D2*
Y442338D1*
Y480584D2*
X2321483Y494955D1*
X2330990Y504571D1*
X2340607Y509325D1*
X2354977D1*
X2554797Y518942D2*
X2550044Y528448D1*
X2540427Y538065D1*
X2530921Y542818D1*
X2511797D1*
X2502180Y538065D1*
X2492674Y528448D1*
X2487810Y518942D1*
X2483057Y504571D1*
Y480584D1*
X2487810Y466325D1*
X2492674Y456708D1*
X2502180Y447202D1*
X2511797Y442338D1*
X2530921D1*
X2540427Y447202D1*
X2550044Y456708D1*
X2554797Y466325D1*
X2609552Y509325D2*
X2600046Y504571D1*
X2590429Y494955D1*
X2585675Y480584D1*
Y471078D1*
X2590429Y456708D1*
X2600046Y447202D1*
X2609552Y442338D1*
X2623922D1*
X2633539Y447202D1*
X2643045Y456708D1*
X2647909Y471078D1*
Y480584D1*
X2643045Y494955D1*
X2633539Y504571D1*
X2623922Y509325D1*
X2609552D1*
X2736157D2*
Y442338D1*
Y494955D2*
X2726651Y504571D1*
X2717034Y509325D1*
X2702774D1*
X2693158Y504571D1*
X2683651Y494955D1*
X2678787Y480584D1*
Y471078D1*
X2683651Y456708D1*
X2693158Y447202D1*
X2702774Y442338D1*
X2717034D1*
X2726651Y447202D1*
X2736157Y456708D1*
X2819652Y494955D2*
X2814899Y504571D1*
X2800529Y509325D1*
X2786159D1*
X2771789Y504571D1*
X2767036Y494955D1*
X2771789Y485448D1*
X2781406Y480584D1*
X2805282Y475831D1*
X2814899Y471078D1*
X2819652Y461461D1*
Y456708D1*
X2814899Y447202D1*
X2800529Y442338D1*
X2786159D1*
X2771789Y447202D1*
X2767036Y456708D1*
X2864901Y542818D2*
Y461461D1*
X2869654Y447202D1*
X2879271Y442338D1*
X2888777D1*
X2850531Y509325D2*
X2884024D1*
X2919656Y480584D2*
X2977026D1*
Y490201D1*
X2972272Y499818D1*
X2967519Y504571D1*
X2957902Y509325D1*
X2943532D1*
X2934026Y504571D1*
X2924409Y494955D1*
X2919656Y480584D1*
Y471078D1*
X2924409Y456708D1*
X2934026Y447202D1*
X2943532Y442338D1*
X2957902D1*
X2967519Y447202D1*
X2977026Y456708D1*
X3007904Y509325D2*
Y442338D1*
Y480584D2*
X3012768Y494955D1*
X3022274Y504571D1*
X3031891Y509325D1*
X3046261D1*
X3174342Y542818D2*
X3212588Y442338D1*
X3250835Y542818D1*
X3286577Y518831D2*
Y523584D1*
X3291330Y533201D1*
X3296083Y537954D1*
X3305700Y542707D1*
X3324823D1*
X3334330Y537954D1*
X3339083Y533201D1*
X3343947Y523584D1*
Y514078D1*
X3339083Y504461D1*
X3329577Y490201D1*
X3281713Y442338D1*
X3348700D1*
X1978428Y4306384D2*
D102*
Y4246096D1*
X2012850D1*
X2031377Y4306384D2*
X2034229Y4303533D1*
X2037147Y4306384D1*
X2034229Y4309303D1*
X2031377Y4306384D1*
X2034229Y4286288D2*
Y4246096D1*
X2055675Y4286288D2*
Y4246096D1*
Y4274815D2*
X2064297Y4283437D1*
X2070067Y4286288D1*
X2078622D1*
X2084393Y4283437D1*
X2087245Y4274815D1*
Y4246096D1*
Y4274815D2*
X2095867Y4283437D1*
X2101637Y4286288D1*
X2110192D1*
X2115963Y4283437D1*
X2118881Y4274815D1*
Y4246096D1*
X2235921Y4297762D2*
X2230217Y4303533D1*
X2221595Y4306384D1*
X2210121D1*
X2201499Y4303533D1*
X2195729Y4297762D1*
Y4292059D1*
X2198647Y4286288D1*
X2201499Y4283437D1*
X2207203Y4280585D1*
X2224447Y4274815D1*
X2230217Y4271963D1*
X2233069Y4269044D1*
X2235921Y4263341D1*
Y4254719D1*
X2230217Y4249015D1*
X2221595Y4246096D1*
X2210121D1*
X2201499Y4249015D1*
X2195729Y4254719D1*
X2254448Y4286288D2*
X2265922Y4246096D1*
X2277396Y4286288D1*
X2288870Y4246096D1*
X2300344Y4286288D1*
X2431120Y4285262D2*
X2425417Y4291033D1*
X2416795Y4293884D1*
X2405321D1*
X2396699Y4291033D1*
X2390928Y4285262D1*
Y4279559D1*
X2393847Y4273788D1*
X2396699Y4270937D1*
X2402402Y4268085D1*
X2419646Y4262315D1*
X2425417Y4259463D1*
X2428268Y4256544D1*
X2431120Y4250841D1*
Y4242219D1*
X2425417Y4236515D1*
X2416795Y4233596D1*
X2405321D1*
X2396699Y4236515D1*
X2390928Y4242219D1*
X2449647Y4256544D2*
X2484069D1*
Y4262315D1*
X2481217Y4268085D1*
X2478366Y4270937D1*
X2472595Y4273788D1*
X2463973D1*
X2458270Y4270937D1*
X2452499Y4265166D1*
X2449647Y4256544D1*
Y4250841D1*
X2452499Y4242219D1*
X2458270Y4236515D1*
X2463973Y4233596D1*
X2472595D1*
X2478366Y4236515D1*
X2484069Y4242219D1*
X2502596Y4273788D2*
Y4233596D1*
Y4256544D2*
X2505515Y4265166D1*
X2511218Y4270937D1*
X2516989Y4273788D1*
X2525611D1*
X2544138D2*
X2561382Y4233596D1*
X2578560Y4273788D1*
X2611413D2*
X2605709Y4270937D1*
X2599939Y4265166D1*
X2597087Y4256544D1*
Y4250841D1*
X2599939Y4242219D1*
X2605709Y4236515D1*
X2611413Y4233596D1*
X2620035D1*
X2625805Y4236515D1*
X2631509Y4242219D1*
X2634427Y4250841D1*
Y4256544D1*
X2631509Y4265166D1*
X2625805Y4270937D1*
X2620035Y4273788D1*
X2611413D1*
X2403428Y4493884D2*
Y4433596D1*
X2429295D1*
X2437917Y4436515D1*
X2440768Y4439367D1*
X2443620Y4445070D1*
Y4453692D1*
X2440768Y4459463D1*
X2437917Y4462315D1*
X2429295Y4465166D1*
X2437917Y4468085D1*
X2440768Y4470937D1*
X2443620Y4476640D1*
Y4482411D1*
X2440768Y4488114D1*
X2437917Y4491033D1*
X2429295Y4493884D1*
X2403428D1*
Y4465166D2*
X2429295D1*
X2490928D2*
X2516728D1*
X2525350Y4468085D1*
X2528268Y4470937D1*
X2531120Y4476640D1*
Y4482411D1*
X2528268Y4488114D1*
X2525350Y4491033D1*
X2516728Y4493884D1*
X2490928D1*
Y4433596D1*
X2511024Y4465166D2*
X2531120Y4433596D1*
X2590928Y4493884D2*
X2613876Y4465166D1*
Y4433596D1*
X2636824Y4493884D2*
X2613876Y4465166D1*
X2038858Y2988427D2*
D104*
X2034105Y2986051D1*
X2029297Y2981242D1*
X2026920Y2976489D1*
Y2966928D1*
X2029297Y2962119D1*
X2034105Y2957366D1*
X2038858Y2954934D1*
X2046043Y2952557D1*
X2058037D1*
X2065167Y2954934D1*
X2069975Y2957366D1*
X2074728Y2962119D1*
X2077160Y2966927D1*
Y2976489D1*
X2074728Y2981242D1*
X2069975Y2986051D1*
X2065167Y2988427D1*
X2058037D1*
Y2976489D1*
X2043667Y3003867D2*
X2077160D1*
X2058037D2*
X2050852Y3006298D1*
X2046043Y3011052D1*
X2043667Y3015860D1*
Y3023045D1*
Y3038484D2*
X2077160D1*
X2053228D2*
X2046043Y3045669D1*
X2043667Y3050478D1*
Y3057608D1*
X2046043Y3062416D1*
X2053228Y3064793D1*
X2077160D1*
X1927353Y2974113D2*
X1977593D1*
Y2995668D1*
X1975161Y3002853D1*
X1972785Y3005229D1*
X1968031Y3007606D1*
X1960846D1*
X1956038Y3005229D1*
X1953661Y3002853D1*
X1951285Y2995668D1*
X1948853Y3002853D1*
X1946476Y3005229D1*
X1941723Y3007606D1*
X1936915D1*
X1932162Y3005229D1*
X1929730Y3002853D1*
X1927353Y2995668D1*
Y2974113D1*
X1951285D2*
Y2995668D1*
X1927353Y3023045D2*
X1977593D1*
X1927353Y3038484D2*
X1977593D1*
X1944100Y3062416D2*
X1968031Y3038484D1*
X1958470Y3048046D2*
X1977593Y3064793D1*
X2145148Y2943051D2*
Y2964551D1*
X2142716Y2971736D1*
X2140339Y2974168D1*
X2135586Y2976544D1*
X2130778D1*
X2126024Y2974168D1*
X2123593Y2971736D1*
X2121216Y2964551D1*
Y2943051D1*
X2171456D1*
X2145148Y2959798D2*
X2171456Y2976544D1*
X2152333Y2991984D2*
Y3020668D1*
X2147524D1*
X2142716Y3018292D1*
X2140339Y3015915D1*
X2137963Y3011107D1*
Y3003922D1*
X2140339Y2999169D1*
X2145148Y2994360D1*
X2152333Y2991984D1*
X2157086D1*
X2164271Y2994360D1*
X2169024Y2999169D1*
X2171456Y3003922D1*
Y3011107D1*
X2169024Y3015915D1*
X2164271Y3020668D1*
X2121216Y3064793D2*
X2171456D1*
X2145148D2*
X2140339Y3060039D1*
X2137963Y3055231D1*
Y3048046D1*
X2140339Y3043293D1*
X2145148Y3038484D1*
X2152333Y3036108D1*
X2157086D1*
X2164271Y3038484D1*
X2169024Y3043293D1*
X2171456Y3048046D1*
Y3055231D1*
X2169024Y3060039D1*
X2164271Y3064793D1*
X2227353Y2974113D2*
X2277593D1*
Y2995668D1*
X2275161Y3002853D1*
X2272785Y3005229D1*
X2268031Y3007606D1*
X2260846D1*
X2256038Y3005229D1*
X2253661Y3002853D1*
X2251285Y2995668D1*
X2248853Y3002853D1*
X2246476Y3005229D1*
X2241723Y3007606D1*
X2236915D1*
X2232162Y3005229D1*
X2229730Y3002853D1*
X2227353Y2995668D1*
Y2974113D1*
X2251285D2*
Y2995668D1*
X2227353Y3023045D2*
X2277593D1*
X2244100Y3038484D2*
X2268031D1*
X2275161Y3040861D1*
X2277593Y3045669D1*
Y3052854D1*
X2275161Y3057608D1*
X2268031Y3064793D1*
X2244100D2*
X2277593D1*
X1130823Y557834D2*
D106*
Y507616D1*
X1134151Y497557D1*
X1140883Y490902D1*
X1150942Y487498D1*
X1157596D1*
X1167655Y490902D1*
X1174387Y497557D1*
X1177714Y507616D1*
Y557834D1*
X1246220Y547775D2*
X1239565Y554506D1*
X1229506Y557834D1*
X1216120D1*
X1206061Y554506D1*
X1199329Y547775D1*
Y541120D1*
X1202734Y534388D1*
X1206061Y531061D1*
X1212715Y527734D1*
X1232833Y521002D1*
X1239565Y517675D1*
X1242893Y514270D1*
X1246220Y507616D1*
Y497557D1*
X1239565Y490902D1*
X1229506Y487498D1*
X1216120D1*
X1206061Y490902D1*
X1199329Y497557D1*
X1267835Y557834D2*
Y487498D1*
X1298012D1*
X1308071Y490902D1*
X1311398Y494229D1*
X1314725Y500884D1*
Y510943D1*
X1311398Y517675D1*
X1308071Y521002D1*
X1298012Y524329D1*
X1308071Y527734D1*
X1311398Y531061D1*
X1314725Y537715D1*
Y544447D1*
X1311398Y551102D1*
X1308071Y554506D1*
X1298012Y557834D1*
X1267835D1*
Y524329D2*
X1298012D1*
X2322124Y2867969D2*
D100*
X2337422Y2827777D1*
X2352721Y2867969D1*
X2395669Y2827777D2*
Y2867969D1*
X2380371Y2827777D1*
X2365072Y2867969D1*
Y2827777D1*
X2417571Y2854571D2*
X2413769Y2852670D1*
X2409922Y2848823D1*
X2408021Y2843075D1*
Y2839273D1*
X2409922Y2833525D1*
X2413769Y2829722D1*
X2417571Y2827777D1*
X2423319D1*
X2427166Y2829722D1*
X2430969Y2833525D1*
X2432914Y2839273D1*
Y2843075D1*
X2430969Y2848823D1*
X2427166Y2852670D1*
X2423319Y2854571D1*
X2417571D1*
X2451014Y2867969D2*
Y2835426D1*
X2452915Y2829722D1*
X2456762Y2827777D1*
X2460564D1*
X2445266Y2854571D2*
X2458663D1*
X2400800Y2158418D2*
X2398898Y2162221D1*
X2395052Y2166068D1*
X2391249Y2167969D1*
X2383600D1*
X2379753Y2166068D1*
X2375950Y2162221D1*
X2374005Y2158418D1*
X2372104Y2152670D1*
Y2143075D1*
X2374005Y2137372D1*
X2375950Y2133525D1*
X2379753Y2129722D1*
X2383600Y2127777D1*
X2391249D1*
X2395052Y2129722D1*
X2398898Y2133525D1*
X2400800Y2137372D1*
Y2143075D1*
X2391249D1*
X2413151Y2154571D2*
Y2127777D1*
Y2146922D2*
X2418899Y2152670D1*
X2422746Y2154571D1*
X2428450D1*
X2432296Y2152670D1*
X2434198Y2146922D1*
Y2127777D1*
X2469497Y2167969D2*
Y2127777D1*
Y2148823D2*
X2465694Y2152670D1*
X2461848Y2154571D1*
X2456100D1*
X2452297Y2152670D1*
X2448450Y2148823D1*
X2446549Y2143075D1*
Y2139273D1*
X2448450Y2133525D1*
X2452297Y2129722D1*
X2456100Y2127777D1*
X2461848D1*
X2465694Y2129722D1*
X2469497Y2133525D1*
X2146933Y2867969D2*
X2122084D1*
Y2827777D1*
X2146933D1*
X2122084Y2848823D2*
X2137382D1*
X2159284Y2854571D2*
Y2827777D1*
Y2846922D2*
X2165032Y2852670D1*
X2168879Y2854571D1*
X2174583D1*
X2178430Y2852670D1*
X2180331Y2846922D1*
Y2827777D1*
X2122084Y2167969D2*
Y2127777D1*
X2135481D1*
X2141229Y2129722D1*
X2145076Y2133525D1*
X2146977Y2137372D1*
X2148878Y2143075D1*
Y2152670D1*
X2146977Y2158418D1*
X2145076Y2162221D1*
X2141229Y2166068D1*
X2135481Y2167969D1*
X2122084D1*
X2161230D2*
X2163131Y2166068D1*
X2165076Y2167969D1*
X2163131Y2169914D1*
X2161230Y2167969D1*
X2163131Y2154571D2*
Y2127777D1*
X2177428Y2154571D2*
Y2127777D1*
Y2143075D2*
X2179373Y2148823D1*
X2183176Y2152670D1*
X2187023Y2154571D1*
X2192771D1*
X1522124Y3192969D2*
X1537422Y3152777D1*
X1552721Y3192969D1*
X1595669Y3152777D2*
Y3192969D1*
X1580371Y3152777D1*
X1565072Y3192969D1*
Y3152777D1*
X1617571Y3179571D2*
X1613769Y3177670D1*
X1609922Y3173823D1*
X1608021Y3168075D1*
Y3164273D1*
X1609922Y3158525D1*
X1613769Y3154722D1*
X1617571Y3152777D1*
X1623319D1*
X1627166Y3154722D1*
X1630969Y3158525D1*
X1632914Y3164273D1*
Y3168075D1*
X1630969Y3173823D1*
X1627166Y3177670D1*
X1623319Y3179571D1*
X1617571D1*
X1651014Y3192969D2*
Y3160426D1*
X1652915Y3154722D1*
X1656762Y3152777D1*
X1660564D1*
X1645266Y3179571D2*
X1658663D1*
X1600800Y2483418D2*
X1598898Y2487221D1*
X1595052Y2491068D1*
X1591249Y2492969D1*
X1583600D1*
X1579753Y2491068D1*
X1575950Y2487221D1*
X1574005Y2483418D1*
X1572104Y2477670D1*
Y2468075D1*
X1574005Y2462372D1*
X1575950Y2458525D1*
X1579753Y2454722D1*
X1583600Y2452777D1*
X1591249D1*
X1595052Y2454722D1*
X1598898Y2458525D1*
X1600800Y2462372D1*
Y2468075D1*
X1591249D1*
X1613151Y2479571D2*
Y2452777D1*
Y2471922D2*
X1618899Y2477670D1*
X1622746Y2479571D1*
X1628450D1*
X1632296Y2477670D1*
X1634198Y2471922D1*
Y2452777D1*
X1669497Y2492969D2*
Y2452777D1*
Y2473823D2*
X1665694Y2477670D1*
X1661848Y2479571D1*
X1656100D1*
X1652297Y2477670D1*
X1648450Y2473823D1*
X1646549Y2468075D1*
Y2464273D1*
X1648450Y2458525D1*
X1652297Y2454722D1*
X1656100Y2452777D1*
X1661848D1*
X1665694Y2454722D1*
X1669497Y2458525D1*
X1346933Y3192969D2*
X1322084D1*
Y3152777D1*
X1346933D1*
X1322084Y3173823D2*
X1337382D1*
X1359284Y3179571D2*
Y3152777D1*
Y3171922D2*
X1365032Y3177670D1*
X1368879Y3179571D1*
X1374583D1*
X1378430Y3177670D1*
X1380331Y3171922D1*
Y3152777D1*
X1322084Y2492969D2*
Y2452777D1*
X1335481D1*
X1341229Y2454722D1*
X1345076Y2458525D1*
X1346977Y2462372D1*
X1348878Y2468075D1*
Y2477670D1*
X1346977Y2483418D1*
X1345076Y2487221D1*
X1341229Y2491068D1*
X1335481Y2492969D1*
X1322084D1*
X1361230D2*
X1363131Y2491068D1*
X1365076Y2492969D1*
X1363131Y2494914D1*
X1361230Y2492969D1*
X1363131Y2479571D2*
Y2452777D1*
X1377428Y2479571D2*
Y2452777D1*
Y2468075D2*
X1379373Y2473823D1*
X1383176Y2477670D1*
X1387023Y2479571D1*
X1392771D1*
M02*
